<svg width="19" height="19" viewBox="0 0 19 19" fill="none" xmlns="http://www.w3.org/2000/svg">
<path d="M18.2115 7.37885H17.4724V7.34077H9.21405V11.0112H14.3998C13.6433 13.1478 11.6104 14.6815 9.21405 14.6815C6.1736 14.6815 3.70847 12.2164 3.70847 9.17597C3.70847 6.13551 6.1736 3.67039 9.21405 3.67039C10.6175 3.67039 11.8944 4.19984 12.8665 5.06467L15.462 2.46925C13.8231 0.941913 11.631 0 9.21405 0C4.14663 0 0.0380859 4.10854 0.0380859 9.17597C0.0380859 14.2434 4.14663 18.3519 9.21405 18.3519C14.2815 18.3519 18.39 14.2434 18.39 9.17597C18.39 8.56072 18.3267 7.96015 18.2115 7.37885Z" fill="#FFC107"/>
<path d="M1.0957 4.9051L4.11047 7.11605C4.92621 5.09642 6.9018 3.67048 9.21368 3.67048C10.6171 3.67048 11.894 4.19993 12.8662 5.06477L15.4616 2.46934C13.8228 0.942005 11.6306 9.15527e-05 9.21368 9.15527e-05C5.68919 9.15527e-05 2.63268 1.9899 1.0957 4.9051Z" fill="#FF3D00"/>
<path d="M9.21383 18.3521C11.584 18.3521 13.7376 17.4451 15.3659 15.97L12.5259 13.5669C11.6046 14.2647 10.4595 14.6817 9.21383 14.6817C6.82716 14.6817 4.80064 13.1599 4.0372 11.0361L1.04492 13.3416C2.56354 16.3132 5.64759 18.3521 9.21383 18.3521Z" fill="#4CAF50"/>
<path d="M18.2114 7.37887H17.4722V7.34079H9.21387V11.0112H14.3997C14.0363 12.0375 13.3761 12.9225 12.5246 13.5671C12.525 13.5667 12.5255 13.5667 12.5259 13.5662L15.3659 15.9694C15.1649 16.152 18.3898 13.764 18.3898 9.17598C18.3898 8.56073 18.3265 7.96017 18.2114 7.37887Z" fill="#1976D2"/>
</svg>
