<svg width="48" height="47" viewBox="0 0 48 47" fill="none" xmlns="http://www.w3.org/2000/svg">
<path d="M33.167 16.2811C32.9631 15.7529 32.6508 15.2734 32.2502 14.8733C31.8497 14.4732 31.3698 14.1614 30.8415 13.958C30.114 13.6886 29.3455 13.5461 28.5698 13.537C27.2797 13.4782 26.893 13.4635 23.625 13.4635C20.357 13.4635 19.9703 13.4782 18.6802 13.537C17.9036 13.5459 17.1344 13.6883 16.4061 13.958C15.878 14.1619 15.3984 14.4742 14.9983 14.8748C14.5982 15.2753 14.2864 15.7552 14.083 16.2835C13.8136 17.011 13.6712 17.7795 13.662 18.5552C13.6032 19.8453 13.5885 20.232 13.5885 23.5C13.5885 26.768 13.6032 27.1547 13.662 28.4448C13.6709 29.2214 13.8133 29.9906 14.083 30.7189C14.2869 31.247 14.5992 31.7266 14.9998 32.1267C15.4003 32.5268 15.8802 32.8386 16.4085 33.042C17.1361 33.3114 17.9045 33.4538 18.6802 33.463C19.9703 33.5218 20.357 33.534 23.625 33.534C26.893 33.534 27.2797 33.5218 28.5698 33.4606C29.3462 33.4525 30.1155 33.3109 30.8439 33.042C31.372 32.8381 31.8516 32.5258 32.2517 32.1252C32.6518 31.7247 32.9636 31.2448 33.167 30.7165C33.4364 29.9889 33.5789 29.2205 33.588 28.4448C33.6468 27.1547 33.659 26.768 33.659 23.5C33.659 20.232 33.6468 19.8453 33.5856 18.5552C33.5775 17.7788 33.4359 17.0095 33.167 16.2811ZM23.625 29.7862C22.3817 29.7862 21.1663 29.4176 20.1326 28.7268C19.0988 28.0361 18.2931 27.0543 17.8173 25.9056C17.3415 24.757 17.217 23.493 17.4595 22.2736C17.7021 21.0542 18.3008 19.9341 19.18 19.0549C20.0591 18.1758 21.1792 17.5771 22.3986 17.3345C23.618 17.092 24.882 17.2165 26.0306 17.6923C27.1793 18.168 28.1611 18.9738 28.8518 20.0075C29.5426 21.0413 29.9113 22.2567 29.9113 23.5C29.9113 25.1672 29.249 26.7661 28.0701 27.945C26.8912 29.1239 25.2922 29.7862 23.625 29.7862ZM30.1585 18.4353C29.868 18.4353 29.584 18.3491 29.3425 18.1877C29.101 18.0263 28.9127 17.797 28.8015 17.5286C28.6904 17.2602 28.6613 16.9649 28.718 16.68C28.7746 16.3951 28.9145 16.1334 29.1199 15.9279C29.3253 15.7225 29.587 15.5827 29.872 15.526C30.1569 15.4693 30.4522 15.4984 30.7206 15.6096C30.9889 15.7207 31.2183 15.909 31.3797 16.1505C31.5411 16.392 31.6272 16.676 31.6272 16.9665C31.6272 17.356 31.4725 17.7296 31.1971 18.0051C30.9216 18.2805 30.548 18.4353 30.1585 18.4353ZM27.7057 23.5C27.7057 24.3071 27.4664 25.096 27.018 25.7671C26.5696 26.4382 25.9323 26.9612 25.1866 27.27C24.441 27.5789 23.6205 27.6597 22.8289 27.5023C22.0373 27.3448 21.3102 26.9562 20.7395 26.3855C20.1688 25.8148 19.7802 25.0877 19.6227 24.2961C19.4653 23.5045 19.5461 22.684 19.855 21.9384C20.1638 21.1927 20.6868 20.5554 21.3579 20.107C22.029 19.6586 22.8179 19.4193 23.625 19.4193C24.7073 19.4193 25.7452 19.8492 26.5105 20.6145C27.2758 21.3798 27.7057 22.4177 27.7057 23.5ZM23.625 0C18.9771 0 14.4337 1.37825 10.5691 3.96046C6.70455 6.54268 3.6925 10.2129 1.91384 14.5069C0.135182 18.801 -0.330196 23.5261 0.576556 28.0846C1.48331 32.6432 3.72147 36.8305 7.008 40.117C10.2945 43.4035 14.4818 45.6417 19.0404 46.5484C23.5989 47.4552 28.324 46.9898 32.6181 45.2112C36.9121 43.4325 40.5823 40.4204 43.1645 36.5559C45.7467 32.6913 47.125 28.1479 47.125 23.5C47.125 17.2674 44.6491 11.2901 40.242 6.88299C35.8349 2.47589 29.8576 0 23.625 0V0ZM35.7911 28.5451C35.7704 29.5609 35.5776 30.5657 35.2208 31.5169C34.9064 32.3298 34.4257 33.0681 33.8094 33.6844C33.1931 34.3007 32.4548 34.7814 31.6419 35.0958C30.6915 35.4523 29.6875 35.6451 28.6726 35.6661C27.3654 35.7249 26.9493 35.7396 23.625 35.7396C20.3007 35.7396 19.8846 35.7249 18.5774 35.6661C17.5625 35.6451 16.5585 35.4523 15.6081 35.0958C14.7952 34.7814 14.0569 34.3007 13.4406 33.6844C12.8243 33.0681 12.3436 32.3298 12.0292 31.5169C11.6727 30.5665 11.4799 29.5625 11.4589 28.5476C11.4001 27.2404 11.3854 26.8243 11.3854 23.5C11.3854 20.1757 11.4001 19.7596 11.4589 18.4524C11.4791 17.4376 11.6711 16.4337 12.0268 15.4831C12.3411 14.6695 12.8221 13.9306 13.4389 13.3139C14.0556 12.6971 14.7945 12.2161 15.6081 11.9018C16.5587 11.5461 17.5627 11.3541 18.5774 11.3339C19.8846 11.2751 20.3007 11.2604 23.625 11.2604C26.9493 11.2604 27.3654 11.2751 28.6726 11.3339C29.6874 11.3541 30.6913 11.5461 31.6419 11.9018C32.4551 12.2164 33.1935 12.6975 33.8098 13.3143C34.4261 13.931 34.9067 14.6697 35.2208 15.4831C35.5773 16.4335 35.7701 17.4375 35.7911 18.4524C35.8499 19.7596 35.8646 20.1757 35.8646 23.5C35.8646 26.8243 35.8499 27.2404 35.7911 28.5476V28.5451Z" fill="#3A3985"/>
</svg>
