<svg width="42" height="41" viewBox="0 0 42 41" fill="none" xmlns="http://www.w3.org/2000/svg">
<rect width="42" height="41" rx="20.5" fill="#7549AD"/>
<path d="M21.1601 18.87C21.0601 18.86 20.9401 18.86 20.8301 18.87C18.4501 18.79 16.5601 16.84 16.5601 14.44C16.5601 11.99 18.5401 10 21.0001 10C23.4501 10 25.4401 11.99 25.4401 14.44C25.4301 16.84 23.5401 18.79 21.1601 18.87Z" fill="white"/>
<path d="M16.1602 22.56C13.7402 24.18 13.7402 26.82 16.1602 28.43C18.9102 30.27 23.4202 30.27 26.1702 28.43C28.5902 26.81 28.5902 24.17 26.1702 22.56C23.4302 20.73 18.9202 20.73 16.1602 22.56Z" fill="white"/>
</svg>
