<svg width="48" height="47" viewBox="0 0 48 47" fill="none" xmlns="http://www.w3.org/2000/svg">
<path d="M24.1875 0C11.2086 0 0.6875 10.5211 0.6875 23.5C0.6875 36.4789 11.2086 47 24.1875 47C37.1664 47 47.6875 36.4789 47.6875 23.5C47.6875 10.5211 37.1664 0 24.1875 0ZM18.4349 33.2403H13.6761V17.9261H18.4349V33.2403ZM16.0261 16.0461C14.5231 16.0461 13.5513 14.9812 13.5513 13.6643C13.5513 12.3204 14.5525 11.2873 16.0873 11.2873C17.6222 11.2873 18.5622 12.3204 18.5916 13.6643C18.5916 14.9812 17.6222 16.0461 16.0261 16.0461ZM35.8151 33.2403H31.0564V24.7533C31.0564 22.7779 30.366 21.4364 28.6452 21.4364C27.3306 21.4364 26.5497 22.3446 26.2046 23.2185C26.0773 23.5294 26.0455 23.97 26.0455 24.4082V33.2378H21.2843V22.8097C21.2843 20.8979 21.2231 19.2994 21.1594 17.9236H25.294L25.5118 20.0509H25.6073C26.234 19.0521 27.7688 17.5785 30.3367 17.5785C33.4676 17.5785 35.8151 19.6764 35.8151 24.1854V33.2403Z" fill="#3A3985"/>
</svg>
