<svg width="48" height="47" viewBox="0 0 48 47" fill="none" xmlns="http://www.w3.org/2000/svg">
<path d="M24.0625 47C37.0412 47 47.5625 36.4787 47.5625 23.5C47.5625 10.5213 37.0412 0 24.0625 0C11.0838 0 0.5625 10.5213 0.5625 23.5C0.5625 36.4787 11.0838 47 24.0625 47Z" fill="#3A3985"/>
<path fill-rule="evenodd" clip-rule="evenodd" d="M34.6501 17.1535C34.6501 17.1535 36.5979 17 37.3795 16.4185C37.3795 16.4185 37.1922 17.0879 34.8484 19.2059C34.8484 19.2059 35.6376 30.6342 23.6132 33.4331C23.6132 33.4331 17.5151 34.7317 13.0962 31.4191C13.0962 31.4191 17.7221 32.2397 20.3246 29.3701C20.3246 29.3701 16.9675 29.404 15.9057 25.9897C15.9057 25.9897 17.1733 26.2626 17.9267 25.9213C17.9267 25.9213 14.124 25.1353 14.1926 21.0033C14.1926 21.0033 15.2203 21.7549 16.1449 21.6181C16.1449 21.6181 12.7198 18.7147 14.8434 15.0958C14.8434 15.0958 19.4329 20.5057 25.1211 20.1845C25.022 19.7972 24.9684 19.3915 24.9684 18.9721C24.9684 16.2824 27.1571 14.1006 29.8565 14.1006C31.2204 14.1006 32.4539 14.658 33.341 15.5561C33.9913 15.567 35.3286 15.4515 36.6642 14.4982C36.6642 14.4988 36.7408 15.5405 34.6501 17.1535Z" fill="white"/>
</svg>
