<svg width="61" height="71" viewBox="0 0 61 71" fill="none" xmlns="http://www.w3.org/2000/svg">
<path d="M30.5037 28.6194C29.8077 28.6194 29.1274 28.8258 28.5487 29.2124C27.9701 29.5991 27.519 30.1486 27.2527 30.7916C26.9864 31.4346 26.9167 32.1421 27.0525 32.8247C27.1883 33.5073 27.5234 34.1342 28.0155 34.6264C28.5076 35.1185 29.1346 35.4536 29.8172 35.5894C30.4998 35.7252 31.2073 35.6555 31.8503 35.3891C32.4932 35.1228 33.0428 34.6718 33.4294 34.0931C33.8161 33.5145 34.0225 32.8341 34.0225 32.1382C34.0225 31.2049 33.6517 30.3099 32.9918 29.65C32.3319 28.9901 31.4369 28.6194 30.5037 28.6194ZM30.5037 33.3111C30.2717 33.3111 30.0449 33.2423 29.852 33.1135C29.6591 32.9846 29.5088 32.8014 29.42 32.5871C29.3312 32.3727 29.308 32.1369 29.3533 31.9094C29.3985 31.6818 29.5102 31.4728 29.6743 31.3088C29.8383 31.1448 30.0473 31.0331 30.2748 30.9878C30.5024 30.9425 30.7382 30.9658 30.9525 31.0545C31.1669 31.1433 31.35 31.2937 31.4789 31.4865C31.6078 31.6794 31.6766 31.9062 31.6766 32.1382C31.6766 32.4493 31.553 32.7476 31.3331 32.9676C31.1131 33.1875 30.8148 33.3111 30.5037 33.3111Z" fill="#05D35D"/>
<path d="M30.5038 26.2725C31.4351 26.2674 32.3309 25.9151 33.0162 25.2845C33.7014 24.6539 34.1268 23.7904 34.2091 22.8628L34.8953 14.6276C34.946 14.0197 34.87 13.4078 34.6721 12.8308C34.4743 12.2537 34.1589 11.724 33.7458 11.275C33.3327 10.8261 32.831 10.4678 32.2724 10.2226C31.7138 9.97751 31.1104 9.85095 30.5003 9.85095C29.8903 9.85095 29.2869 9.97751 28.7282 10.2226C28.1696 10.4678 27.6679 10.8261 27.2549 11.275C26.8418 11.724 26.5264 12.2537 26.3285 12.8308C26.1306 13.4078 26.0547 14.0197 26.1053 14.6276L26.7915 22.8628C26.874 23.7916 27.3003 24.6561 27.9871 25.2869C28.6738 25.9176 29.5714 26.2691 30.5038 26.2725ZM28.979 12.8635C29.2705 12.5467 29.6536 12.3289 30.0749 12.2404C30.4962 12.152 30.9345 12.1974 31.3288 12.3703C31.723 12.5432 32.0534 12.8349 32.2737 13.2047C32.494 13.5745 32.5933 14.0039 32.5577 14.4329L31.8715 22.6681C31.8403 23.0102 31.6831 23.3285 31.4303 23.5611C31.1776 23.7937 30.8473 23.924 30.5038 23.9266C30.1601 23.9243 29.8296 23.7941 29.5766 23.5615C29.3236 23.3288 29.1662 23.0104 29.135 22.6681L28.4489 14.4329C28.423 14.1488 28.4568 13.8624 28.5481 13.5922C28.6394 13.3219 28.7862 13.0737 28.979 12.8635Z" fill="#05D35D"/>
<path d="M11.854 70.6096C12.2416 70.8038 12.676 70.8848 13.1076 70.8433C13.5391 70.8018 13.9502 70.6395 14.2937 70.375L27.3848 60.2878H53.9623C55.8282 60.2859 57.6172 59.5439 58.9366 58.2245C60.256 56.9051 60.9981 55.1161 60.9999 53.2502V25.0997C60.9981 23.2338 60.256 21.4449 58.9366 20.1255C57.6172 18.8061 55.8282 18.064 53.9623 18.0621H45.3612L36.2205 3.61509C35.6101 2.65118 34.766 1.85725 33.7664 1.30712C32.7669 0.756984 31.6445 0.468506 30.5036 0.468506C29.3627 0.468506 28.2403 0.756984 27.2408 1.30712C26.2413 1.85725 25.3971 2.65118 24.7867 3.61509L15.6461 18.0621H7.04493C5.17902 18.064 3.39005 18.8061 2.07065 20.1255C0.751246 21.4449 0.00918734 23.2338 0.00732422 25.0997V53.2502C0.00918734 55.1161 0.751246 56.9051 2.07065 58.2245C3.39005 59.5439 5.17902 60.2859 7.04493 60.2878H10.5637V68.5335C10.5618 68.9659 10.6818 69.39 10.9101 69.7572C11.1383 70.1245 11.4654 70.4199 11.854 70.6096ZM26.7678 4.86779C27.1671 4.23847 27.7189 3.72022 28.372 3.36114C29.0251 3.00206 29.7583 2.81378 30.5036 2.81378C31.2489 2.81378 31.9822 3.00206 32.6352 3.36114C33.2883 3.72022 33.8401 4.23847 34.2394 4.86779L50.9256 31.2436C51.347 31.9106 51.5815 32.6785 51.6047 33.4671C51.6278 34.2558 51.4388 35.0361 51.0573 35.7267C50.6758 36.4173 50.1158 36.9928 49.4359 37.3931C48.756 37.7933 47.9811 38.0036 47.1922 38.002H13.8151C13.0261 38.0034 12.2512 37.7928 11.5714 37.3925C10.8915 36.9921 10.3316 36.4165 9.95019 35.7259C9.56873 35.0352 9.37969 34.2548 9.40282 33.4661C9.42595 32.6775 9.66039 31.9095 10.0817 31.2424L26.7678 4.86779ZM7.04493 57.9419C5.80061 57.9419 4.60724 57.4476 3.72737 56.5677C2.8475 55.6879 2.35319 54.4945 2.35319 53.2502V25.0997C2.35319 23.8554 2.8475 22.6621 3.72737 21.7822C4.60724 20.9023 5.80061 20.408 7.04493 20.408H14.1611L8.10057 29.9885C7.45499 31.0103 7.09549 32.1867 7.05961 33.3948C7.02372 34.603 7.31276 35.7986 7.89657 36.8569C8.48037 37.9152 9.33753 38.7975 10.3786 39.4115C11.4197 40.0256 12.6064 40.3489 13.8151 40.3479H47.1922C48.4008 40.3492 49.5876 40.026 50.6287 39.4121C51.6698 38.7982 52.5271 37.9161 53.1109 36.8578C53.6947 35.7995 53.9838 34.6039 53.9479 33.3958C53.9119 32.1877 53.5524 31.0114 52.9067 29.9897L46.845 20.408H53.9623C55.2067 20.408 56.4 20.9023 57.2799 21.7822C58.1598 22.6621 58.6541 23.8554 58.6541 25.0997V53.2502C58.6541 54.4945 58.1598 55.6879 57.2799 56.5677C56.4 57.4476 55.2067 57.9419 53.9623 57.9419H27.3848C26.8666 57.9419 26.363 58.1135 25.9526 58.4299L12.9096 68.5335V60.2878C12.9096 59.6656 12.6625 59.0689 12.2225 58.629C11.7826 58.1891 11.1859 57.9419 10.5637 57.9419H7.04493Z" fill="#05D35D"/>
<path d="M9.39144 46.2128H12.9102C13.2213 46.2128 13.5197 46.0892 13.7396 45.8693C13.9596 45.6493 14.0832 45.351 14.0832 45.0399C14.0832 44.7288 13.9596 44.4305 13.7396 44.2105C13.5197 43.9905 13.2213 43.8669 12.9102 43.8669H9.39144C9.08036 43.8669 8.78202 43.9905 8.56205 44.2105C8.34208 44.4305 8.21851 44.7288 8.21851 45.0399C8.21851 45.351 8.34208 45.6493 8.56205 45.8693C8.78202 46.0892 9.08036 46.2128 9.39144 46.2128Z" fill="#05D35D"/>
<path d="M41.0597 49.7321H37.5409C37.2298 49.7321 36.9314 49.8556 36.7115 50.0756C36.4915 50.2956 36.3679 50.5939 36.3679 50.905C36.3679 51.2161 36.4915 51.5144 36.7115 51.7344C36.9314 51.9543 37.2298 52.0779 37.5409 52.0779H41.0597C41.3707 52.0779 41.6691 51.9543 41.8891 51.7344C42.109 51.5144 42.2326 51.2161 42.2326 50.905C42.2326 50.5939 42.109 50.2956 41.8891 50.0756C41.6691 49.8556 41.3707 49.7321 41.0597 49.7321Z" fill="#05D35D"/>
<path d="M17.6016 46.2128H45.7521C46.0632 46.2128 46.3615 46.0892 46.5815 45.8693C46.8014 45.6493 46.925 45.351 46.925 45.0399C46.925 44.7288 46.8014 44.4305 46.5815 44.2105C46.3615 43.9905 46.0632 43.8669 45.7521 43.8669H17.6016C17.2906 43.8669 16.9922 43.9905 16.7723 44.2105C16.5523 44.4305 16.4287 44.7288 16.4287 45.0399C16.4287 45.351 16.5523 45.6493 16.7723 45.8693C16.9922 46.0892 17.2906 46.2128 17.6016 46.2128Z" fill="#05D35D"/>
<path d="M34.0231 50.905C34.0231 50.5939 33.8995 50.2956 33.6795 50.0756C33.4596 49.8556 33.1612 49.7321 32.8501 49.7321H9.39144C9.08036 49.7321 8.78202 49.8556 8.56205 50.0756C8.34208 50.2956 8.21851 50.5939 8.21851 50.905C8.21851 51.2161 8.34208 51.5144 8.56205 51.7344C8.78202 51.9543 9.08036 52.0779 9.39144 52.0779H32.8501C33.1612 52.0779 33.4596 51.9543 33.6795 51.7344C33.8995 51.5144 34.0231 51.2161 34.0231 50.905Z" fill="#05D35D"/>
<path d="M50.4439 46.2128H51.6169C51.9279 46.2128 52.2263 46.0892 52.4463 45.8693C52.6662 45.6493 52.7898 45.351 52.7898 45.0399C52.7898 44.7288 52.6662 44.4305 52.4463 44.2105C52.2263 43.9905 51.9279 43.8669 51.6169 43.8669H50.4439C50.1328 43.8669 49.8345 43.9905 49.6145 44.2105C49.3946 44.4305 49.271 44.7288 49.271 45.0399C49.271 45.351 49.3946 45.6493 49.6145 45.8693C49.8345 46.0892 50.1328 46.2128 50.4439 46.2128Z" fill="#05D35D"/>
</svg>
