<svg width="26" height="26" viewBox="0 0 26 26" fill="none" xmlns="http://www.w3.org/2000/svg">
<path d="M26 13.0671C26 5.85421 20.1914 1.56908e-05 13.0268 1.56908e-05C10.5351 -0.0038579 8.09474 0.70955 5.99597 2.05538C3.8972 3.40121 2.22837 5.32282 1.188 7.59162C0.147636 9.86043 -0.22049 12.3809 0.127415 14.8534C0.475321 17.3258 1.52462 19.646 3.15049 21.5381C5.16008 23.898 7.94383 25.4623 11.0013 25.9497V16.7407H7.82083V13.0503H11.0013V10.3329C11.0013 7.17937 12.9097 5.4684 15.6884 5.4684C17.0276 5.4684 18.1826 5.56904 18.5174 5.60259V8.90711H16.5924C15.0691 8.90711 14.751 9.6284 14.751 10.7019V13.0503H18.3835L17.9148 16.7407H14.7677V26C17.8811 25.5662 20.7324 24.0173 22.7943 21.6398C24.8561 19.2623 25.9889 16.2169 25.9833 13.0671" fill="white"/>
</svg>
