<svg width="17" height="15" viewBox="0 0 17 15" fill="none" xmlns="http://www.w3.org/2000/svg">
<path fill-rule="evenodd" clip-rule="evenodd" d="M0 10.17C0 9.6 0.13 9.06 0.38 8.57L0.4 8.55V8.53L0.42 8.51C0.42 8.49 0.42 8.49 0.44 8.49C0.56 8.23 0.74 7.97 1.01 7.69L4.21 4.5V4.48L4.22 4.46C4.66 4.05 5.13 3.76 5.66 3.61C5.05337 4.27193 4.64153 5.08868 4.47 5.97C4.41432 6.34397 4.40091 6.72303 4.43 7.1L2.47 9.1C2.28 9.29 2.15 9.5 2.09 9.75C2.02162 10.0461 2.02162 10.3539 2.09 10.65C2.17 10.85 2.29 11.05 2.47 11.22L3.76 12.53C4.03 12.81 4.38 12.95 4.79 12.95C5.21 12.95 5.57 12.81 5.85 12.53L7.08 11.28L7.87 10.5L9.02 9.34C9.1 9.25 9.21 9.12 9.3 8.94C9.4 8.74 9.45 8.52 9.45 8.27C9.45 8.11 9.43 7.97 9.39 7.82L9.37 7.8V7.78L9.3 7.64C9.3 7.64 9.3 7.61 9.26 7.58L9.2 7.45L9.18 7.43C9.18 7.41 9.18 7.4 9.16 7.38C9.12323 7.31876 9.07582 7.26457 9.02 7.22L8.54 6.72C8.54 6.68 8.56 6.62 8.58 6.57L8.64 6.45L9.81 5.31L9.9 5.22L10.46 5.79C10.48 5.83 10.54 5.89 10.62 5.97L10.67 6.01L10.7 6.07L10.74 6.12L10.77 6.16L10.81 6.22L10.91 6.36L10.93 6.38C10.93 6.4 10.94 6.41 10.96 6.42L11.06 6.62V6.64C11.16 6.8 11.26 7.02 11.36 7.32C11.3839 7.4013 11.3973 7.48531 11.4 7.57C11.4998 8.00704 11.5066 8.46016 11.42 8.9C11.3026 9.606 10.9709 10.2588 10.47 10.77L9.81 11.44L8.84 12.41L7.28 13.98C6.95853 14.308 6.57393 14.5675 6.14941 14.7428C5.72489 14.9181 5.26926 15.0056 4.81 15C3.84 15 3.01 14.66 2.32 13.97L1.02 12.67C0.368862 11.9978 0.00946859 11.0958 0.02 10.16V10.15H0V10.17ZM5.39 6.74C5.39 6.55 5.41 6.34 5.46 6.11C5.59 5.37 5.9 4.74 6.41 4.24L7.07 3.57L8.04 2.59L9.6 1.03C10.28 0.34 11.1 0 12.07 0C13.04 0 13.87 0.34 14.55 1.02L15.85 2.34C16.172 2.66702 16.4261 3.05449 16.5977 3.48012C16.7693 3.90574 16.8551 4.36111 16.85 4.82C16.85 5.4 16.74 5.93 16.48 6.42L16.46 6.44V6.46L16.44 6.5C16.3 6.77 16.09 7.04 15.84 7.3L12.66 10.5L12.65 10.52L12.64 10.54C12.2 10.96 11.72 11.24 11.21 11.37C11.652 10.9034 11.9901 10.3485 12.2021 9.74178C12.4141 9.13507 12.4952 8.49032 12.44 7.85L14.43 5.88C14.61 5.67 14.73 5.46 14.78 5.23C14.8441 4.93303 14.8406 4.62547 14.77 4.33C14.6849 4.1171 14.563 3.92079 14.41 3.75L13.11 2.45C12.8263 2.175 12.445 2.02393 12.05 2.03C11.63 2.03 11.28 2.17 10.99 2.43L9.79 3.7L8.99 4.5L7.83 5.65C7.75 5.73 7.65 5.86 7.54 6.05C7.38405 6.40271 7.35576 6.79871 7.46 7.17L7.48 7.2V7.22L7.54 7.36C7.54 7.36 7.55 7.39 7.59 7.42L7.65 7.55L7.67 7.57L7.68 7.59L7.69 7.61C7.74 7.69 7.79 7.74 7.83 7.77L8.3 8.27C8.3 8.31 8.28 8.36 8.26 8.42L8.2 8.54L7.05 9.69L6.95 9.77L6.39 9.21C6.33366 9.1433 6.27356 9.07987 6.21 9.02C6.19 9.01 6.19 8.99 6.19 8.98L6.17 8.96C6.12851 8.92757 6.09441 8.88666 6.07 8.84C6.04 8.81 6.02 8.8 6.02 8.78L5.92 8.63L5.9 8.61L5.88 8.57L5.8 8.4V8.38C5.68998 8.15713 5.5964 7.92652 5.52 7.69C5.49561 7.6054 5.48217 7.51802 5.48 7.43C5.42 7.2 5.38 6.97 5.38 6.73V6.74H5.39Z" fill="white"/>
</svg>
