<svg width="31" height="32" viewBox="0 0 31 32" fill="none" xmlns="http://www.w3.org/2000/svg">
<mask id="path-1-inside-1_977_8408" fill="white">
<path d="M14.5079 5.00737C12.5695 5.00878 10.6692 5.54636 9.01739 6.56064C7.36554 7.57491 6.02644 9.02635 5.14823 10.7544C4.27002 12.4824 3.88692 14.4197 4.04132 16.352C4.19573 18.2842 4.8816 20.1361 6.02309 21.7027L14.5156 15.515L14.5079 5.00737Z"/>
</mask>
<path d="M14.5079 5.00737C12.5695 5.00878 10.6692 5.54636 9.01739 6.56064C7.36554 7.57491 6.02644 9.02635 5.14823 10.7544C4.27002 12.4824 3.88692 14.4197 4.04132 16.352C4.19573 18.2842 4.8816 20.1361 6.02309 21.7027L14.5156 15.515L14.5079 5.00737Z" stroke="#05D35D" stroke-width="2" mask="url(#path-1-inside-1_977_8408)"/>
<path d="M6.53462 22.7378C7.64986 24.2599 9.13609 25.4711 10.8518 26.2563C12.5676 27.0415 14.4558 27.3745 16.3366 27.2235C18.2174 27.0726 20.0283 26.4428 21.5969 25.3941C23.1655 24.3453 24.4396 22.9126 25.2979 21.2322C26.1561 19.5518 26.57 17.6797 26.5001 15.7941C26.4303 13.9085 25.8789 12.0722 24.8987 10.46C23.9184 8.84771 22.5418 7.51319 20.8999 6.58343C19.2579 5.65367 17.4054 5.15962 15.5185 5.14832L15.4523 16.2035L6.53462 22.7378Z" fill="#05D35D"/>
</svg>
