<svg width="22" height="13" viewBox="0 0 22 13" fill="none" xmlns="http://www.w3.org/2000/svg">
<path d="M1.25242 12.9998H20.7476C21.439 12.9998 22 12.5519 22 11.9998C22 11.4477 21.439 10.9998 20.7476 10.9998H1.25242C0.56098 10.9998 0 11.4477 0 11.9998C0 12.5519 0.56098 12.9998 1.25242 12.9998Z" fill="#3B6064"/>
<path d="M4.26979 12.9998C4.97567 12.9998 5.54836 12.4431 5.54836 11.7568C5.54836 9.87077 6.0811 5.48579 10.9956 5.48579C16.0477 5.48579 16.4429 10.2851 16.4429 11.7568C16.4429 12.4431 17.0156 12.9998 17.7214 12.9998C18.4273 12.9998 19 12.4431 19 11.7568C19 7.71712 16.9046 2.99982 11 2.99982C5.09554 2.99982 3.0001 7.71712 3.0001 11.7568C2.99122 12.4431 3.56392 12.9998 4.26979 12.9998Z" fill="#3B6064"/>
<path d="M11 3.99982C12.1026 3.99982 13 3.10244 13 1.99982C13 0.897191 12.1026 -0.000183105 11 -0.000183105C9.89738 -0.000183105 9 0.897191 9 1.99982C9.00477 3.10244 9.89738 3.99982 11 3.99982Z" fill="#3B6064"/>
</svg>
