<svg width="21" height="15" viewBox="0 0 21 15" fill="none" xmlns="http://www.w3.org/2000/svg">
<g clip-path="url(#clip0_2147_13218)">
<path d="M16.2757 0.880379H5.70776C5.22352 0.880379 4.83008 1.27933 4.83008 1.76907V12.3178C4.83008 12.8075 5.22352 13.2065 5.70776 13.2065H16.2757C16.76 13.2065 17.1562 12.8075 17.1562 12.3178V1.76907C17.1562 1.27933 16.76 0.880379 16.2757 0.880379ZM8.55542 11.4456H6.72852V5.56319H8.55817V11.4456H8.55542ZM7.64197 4.75979C7.05593 4.75979 6.58269 4.28381 6.58269 3.70052C6.58269 3.11723 7.05593 2.64125 7.64197 2.64125C8.22525 2.64125 8.70124 3.11723 8.70124 3.70052C8.70124 4.28656 8.22801 4.75979 7.64197 4.75979ZM15.4035 11.4456H13.5766V8.58418C13.5766 7.90185 13.5629 7.02416 12.6274 7.02416C11.6755 7.02416 11.5296 7.76703 11.5296 8.53466V11.4456H9.70273V5.56319H11.4554V6.36659H11.4801C11.725 5.90436 12.322 5.41737 13.2107 5.41737C15.0596 5.41737 15.4035 6.63622 15.4035 8.221V11.4456Z" fill="white"/>
</g>
<defs>
<clipPath id="clip0_2147_13218">
<rect width="19.1772" height="14.087" fill="white" transform="translate(0.949707 -6.10352e-05)"/>
</clipPath>
</defs>
</svg>
