<svg width="20" height="15" viewBox="0 0 20 15" fill="none" xmlns="http://www.w3.org/2000/svg">
<g clip-path="url(#clip0_2147_13209)">
<path d="M16.447 4.17423C16.456 4.29936 16.456 4.42452 16.456 4.54965C16.456 8.36633 13.551 12.7641 8.24156 12.7641C6.60582 12.7641 5.0863 12.2903 3.80811 11.468C4.04051 11.4948 4.26395 11.5037 4.5053 11.5037C5.85498 11.5037 7.09744 11.0479 8.0896 10.2702C6.82035 10.2434 5.75667 9.41215 5.39019 8.26803C5.56897 8.29483 5.74773 8.31271 5.93546 8.31271C6.19466 8.31271 6.45389 8.27694 6.69522 8.2144C5.37234 7.94623 4.38014 6.78425 4.38014 5.38092V5.34518C4.76448 5.5597 5.21144 5.69377 5.68514 5.71163C4.90749 5.19319 4.39802 4.3083 4.39802 3.30719C4.39802 2.7709 4.54101 2.27928 4.7913 1.85024C6.21252 3.60216 8.34881 4.74626 10.7443 4.87142C10.6996 4.6569 10.6728 4.43346 10.6728 4.20999C10.6728 2.61894 11.9599 1.32288 13.5599 1.32288C14.3912 1.32288 15.142 1.67148 15.6694 2.2346C16.3218 2.10947 16.9475 1.86812 17.5017 1.53741C17.2872 2.2078 16.8313 2.77092 16.2325 3.12844C16.8135 3.0659 17.3766 2.90497 17.895 2.68153C17.5018 3.25357 17.0101 3.76304 16.447 4.17423Z" fill="white"/>
</g>
<defs>
<clipPath id="clip0_2147_13209">
<rect width="19.1772" height="14.087" fill="white" transform="translate(0.808105 -3.05176e-05)"/>
</clipPath>
</defs>
</svg>
