<svg width="20" height="15" viewBox="0 0 20 15" fill="none" xmlns="http://www.w3.org/2000/svg">
<g clip-path="url(#clip0_2147_13213)">
<path d="M10.4252 3.87936C8.67532 3.87936 7.26387 5.29081 7.26387 7.04067C7.26387 8.79054 8.67532 10.202 10.4252 10.202C12.175 10.202 13.5865 8.79054 13.5865 7.04067C13.5865 5.29081 12.175 3.87936 10.4252 3.87936ZM10.4252 9.09594C9.29437 9.09594 8.36992 8.17423 8.36992 7.04067C8.36992 5.90711 9.29162 4.98541 10.4252 4.98541C11.5587 4.98541 12.4804 5.90711 12.4804 7.04067C12.4804 8.17423 11.556 9.09594 10.4252 9.09594ZM14.4532 3.75005C14.4532 4.16 14.123 4.48741 13.7158 4.48741C13.3059 4.48741 12.9784 4.15725 12.9784 3.75005C12.9784 3.34285 13.3086 3.01268 13.7158 3.01268C14.123 3.01268 14.4532 3.34285 14.4532 3.75005ZM16.547 4.49842C16.5002 3.51068 16.2746 2.63575 15.551 1.91489C14.8301 1.19403 13.9552 0.968423 12.9674 0.918898C11.9494 0.86112 8.89818 0.86112 7.88018 0.918898C6.89519 0.965672 6.02026 1.19128 5.29665 1.91214C4.57304 2.63299 4.35018 3.50793 4.30066 4.49566C4.24288 5.51367 4.24288 8.56492 4.30066 9.58293C4.34743 10.5707 4.57304 11.4456 5.29665 12.1665C6.02026 12.8873 6.89244 13.1129 7.88018 13.1624C8.89818 13.2202 11.9494 13.2202 12.9674 13.1624C13.9552 13.1157 14.8301 12.8901 15.551 12.1665C16.2718 11.4456 16.4974 10.5707 16.547 9.58293C16.6047 8.56492 16.6047 5.51642 16.547 4.49842ZM15.2318 10.6752C15.0172 11.2145 14.6017 11.6299 14.0597 11.8473C13.2481 12.1692 11.3221 12.0949 10.4252 12.0949C9.52824 12.0949 7.59954 12.1665 6.79064 11.8473C6.25137 11.6327 5.83592 11.2172 5.61856 10.6752C5.29665 9.86356 5.37094 7.93761 5.37094 7.04067C5.37094 6.14373 5.2994 4.21503 5.61856 3.40613C5.83316 2.86686 6.24862 2.45141 6.79064 2.23405C7.60229 1.91214 9.52824 1.98643 10.4252 1.98643C11.3221 1.98643 13.2508 1.91489 14.0597 2.23405C14.599 2.44865 15.0144 2.86411 15.2318 3.40613C15.5537 4.21778 15.4794 6.14373 15.4794 7.04067C15.4794 7.93761 15.5537 9.86632 15.2318 10.6752Z" fill="white"/>
</g>
<defs>
<clipPath id="clip0_2147_13213">
<rect width="19.1772" height="14.087" fill="white" transform="translate(0.378906 -6.10352e-05)"/>
</clipPath>
</defs>
</svg>
