<svg width="841" height="138" viewBox="0 0 841 138" fill="none" xmlns="http://www.w3.org/2000/svg">
<g clip-path="url(#clip0_3686_14084)">
<path d="M846.5 86V138H187L270.565 86H846.5Z" fill="#4B4B4B"/>
<path d="M383 42H324.092L286 0H344.88L383 42Z" fill="#4B4B4B"/>
<path d="M384 44.2819H321.651L282.967 0H0V83.2021V138H286.682L380.785 47.2979L384 44.2819Z" fill="#3B6064"/>
<g opacity="0.16">
<mask id="mask0_3686_14084" style="mask-type:alpha" maskUnits="userSpaceOnUse" x="-403" y="-249" width="844" height="571">
<rect width="475.639" height="592.948" rx="24" transform="matrix(-0.650644 0.768725 -0.935651 -0.367574 450.957 -37.3761)" fill="#181059"/>
</mask>
<g mask="url(#mask0_3686_14084)">
<path d="M365.605 118.104C324.333 143.738 238.329 42.5453 109.569 194.743C41.5716 275.117 -48.9993 216.439 -97.4983 262.007" stroke="#181059"/>
<path d="M383.767 203.343C342.497 228.979 256.483 127.791 127.739 279.995C59.7501 360.373 -30.8269 301.699 -79.3209 347.269" stroke="#181059"/>
<path d="M304.457 -66.1892C271.466 -12.5108 185.285 90.0232 148.869 48.2287C88.6094 -20.9307 -66.0591 24.6826 -263.144 231.765" stroke="#181059"/>
<path d="M455.762 -175.05C414.966 -108.708 308.444 18.0291 263.54 -33.5886C189.236 -119.003 -1.76347 -62.5537 -245.329 193.425" stroke="#181059"/>
<path d="M443.619 -264.492C397.441 -189.388 276.854 -45.9174 225.995 -104.361C141.835 -201.07 -74.4263 -137.184 -350.161 152.589" stroke="#181059"/>
</g>
</g>
</g>
<g clip-path="url(#clip1_3686_14084)">
<path d="M471 54.5654V26H479.133V54.5654C479.133 56.7785 480.927 58.581 483.131 58.581H527.814V66.7947H483.131C476.452 66.7947 471 61.2504 471 54.5654Z" fill="#3B6064"/>
<path d="M541.558 48.1998V66.7947H533.38V48.1998L508.664 26H520.84L537.446 40.9215L554.097 26H566.273L541.558 48.1998Z" fill="#3B6064"/>
<path d="M615.022 26H623.2V59.6761C623.131 63.5776 619.951 66.7947 616.067 66.7947C614.499 66.7947 612.932 66.2014 611.773 65.2888L574.404 35.3317V66.7947H566.272V33.1185C566.272 29.1486 569.452 26 573.405 26C574.972 26 576.472 26.5248 577.698 27.5058L615.022 57.463V26Z" fill="#3B6064"/>
<path d="M677.744 26H685.922V59.6761C685.854 63.5776 682.673 66.7947 678.789 66.7947C677.221 66.7947 675.654 66.2014 674.495 65.2888L637.127 35.3317V66.7947H628.994V33.1185C628.994 29.1486 632.174 26 636.127 26C637.695 26 639.194 26.5248 640.421 27.5058L677.721 57.463V26H677.744Z" fill="#3B6064"/>
<path d="M699.847 38.2293V54.5426C699.847 56.7557 701.709 58.5582 703.913 58.5582H748.596V66.7718H703.913C697.189 66.7718 691.737 61.2276 691.737 54.5426V38.2293C691.737 31.4758 697.189 26 703.913 26H748.596V34.1681H703.913C701.709 34.1681 699.847 36.0161 699.847 38.2293Z" fill="#3B6064"/>
<path d="M759 62.8703C759 63.532 758.886 64.1024 758.682 64.6043C758.477 65.1063 758.182 65.5398 757.819 65.9048C757.455 66.2471 757.046 66.5209 756.569 66.7034C756.092 66.8859 755.592 66.9772 755.07 66.9772C754.547 66.9772 754.07 66.8859 753.593 66.7034C753.116 66.5209 752.707 66.2471 752.344 65.9048C751.98 65.5626 751.708 65.1291 751.481 64.6043C751.253 64.0796 751.163 63.5092 751.163 62.8703C751.163 62.2315 751.276 61.6383 751.481 61.1363C751.685 60.6344 751.98 60.2009 752.344 59.8358C752.707 59.4936 753.116 59.2198 753.593 59.0373C754.07 58.8548 754.547 58.7635 755.07 58.7635C755.592 58.7635 756.092 58.8548 756.569 59.0373C757.046 59.2198 757.455 59.4936 757.819 59.8358C758.182 60.1781 758.455 60.6116 758.682 61.1363C758.909 61.6611 759 62.2315 759 62.8703ZM758 62.8703C758 62.3912 757.932 61.9577 757.796 61.5698C757.66 61.182 757.455 60.8397 757.182 60.5659C756.933 60.2921 756.615 60.064 756.251 59.9271C755.888 59.7674 755.501 59.6989 755.07 59.6989C754.638 59.6989 754.252 59.7674 753.889 59.9271C753.525 60.0868 753.23 60.2921 752.98 60.5659C752.73 60.8397 752.526 61.182 752.389 61.5698C752.253 61.9577 752.185 62.3912 752.185 62.8703C752.185 63.3495 752.253 63.783 752.389 64.1708C752.526 64.5587 752.73 64.9009 752.98 65.1747C753.23 65.4485 753.548 65.6767 753.889 65.8136C754.252 65.9733 754.638 66.0417 755.07 66.0417C755.501 66.0417 755.888 65.9733 756.251 65.8136C756.615 65.6539 756.91 65.4485 757.182 65.1747C757.432 64.9009 757.637 64.5587 757.796 64.1708C757.932 63.783 758 63.3495 758 62.8703ZM756.001 64.9922C755.842 64.6728 755.706 64.3762 755.547 64.1252C755.388 63.8742 755.252 63.6461 755.115 63.4635H754.502V64.9922H753.548V60.8397C753.775 60.7713 754.002 60.7485 754.229 60.7256C754.456 60.7028 754.661 60.7028 754.82 60.7028C755.456 60.7028 755.91 60.8169 756.251 61.0451C756.569 61.2732 756.728 61.6383 756.728 62.1174C756.728 62.3684 756.66 62.5965 756.546 62.8019C756.433 62.9844 756.251 63.1441 756.001 63.2582C756.16 63.4864 756.319 63.7373 756.478 64.0111C756.66 64.3077 756.819 64.6271 756.978 65.015H756.001V64.9922ZM754.502 62.6878H754.82C755.115 62.6878 755.342 62.6422 755.524 62.5737C755.706 62.5053 755.774 62.3228 755.774 62.0946C755.774 61.8893 755.683 61.7295 755.524 61.6383C755.365 61.547 755.161 61.5014 754.911 61.5014C754.843 61.5014 754.775 61.5014 754.706 61.5014C754.638 61.5014 754.57 61.5014 754.479 61.5242V62.6878H754.502Z" fill="#3B6064"/>
</g>
<g opacity="0.4" clip-path="url(#clip2_3686_14084)">
<path d="M404.5 123.319V85.5H415.981V123.319C415.981 126.624 419.022 129.206 422.617 129.206H490.694V139.225H422.617C412.583 139.225 404.5 131.955 404.5 123.319Z" stroke="#3B6064"/>
<path d="M511.977 114.387L511.786 114.537V114.78V139.225H500.235V114.78V114.537L500.044 114.387L463.25 85.5H480.318L505.667 105.41L505.975 105.652L506.284 105.41L531.703 85.5H548.771L511.977 114.387Z" stroke="#3B6064"/>
<path d="M562.198 97.5181V139.225H550.717V94.5493C550.717 89.5629 555.306 85.5 561.164 85.5C563.472 85.5 565.672 86.1754 567.466 87.4295C567.466 87.4296 567.467 87.4297 567.467 87.4298L624.747 127.616L625.534 128.168V127.206V85.5H637.085V130.17C636.984 135.079 632.379 139.225 626.638 139.225C624.335 139.225 622.029 138.461 620.334 137.294C620.333 137.293 620.333 137.293 620.332 137.293L562.985 97.1086L562.198 96.5572V97.5181Z" stroke="#3B6064"/>
<path d="M658.458 97.5181V139.225H646.977V94.5493C646.977 89.5629 651.566 85.5 657.424 85.5C659.732 85.5 661.932 86.1754 663.726 87.4296C663.726 87.4296 663.726 87.4297 663.726 87.4298L720.972 127.616L721.759 128.168V127.206V85.5H733.345V130.17C733.243 135.079 728.639 139.225 722.897 139.225C720.595 139.225 718.289 138.461 716.593 137.294C716.593 137.293 716.592 137.293 716.592 137.293L659.245 97.1086L658.458 96.5572V97.5181Z" stroke="#3B6064"/>
<path d="M754.715 101.405V123.289C754.715 126.603 757.873 129.176 761.456 129.176H829.532V139.194H761.456C751.351 139.194 743.269 131.923 743.269 123.289V101.405C743.269 92.6809 751.349 85.5 761.456 85.5H829.532V95.4572H761.456C757.865 95.4572 754.715 98.0976 754.715 101.405Z" stroke="#3B6064"/>
<path d="M843.563 135.851C843.947 135.456 844.258 134.983 844.5 134.466L844.506 134.453L844.512 134.44C844.748 133.853 844.862 133.207 844.862 132.509C844.862 131.812 844.748 131.166 844.512 130.578C844.277 129.994 843.922 129.471 843.445 129.049C843.013 128.638 842.468 128.297 841.845 128.09C841.222 127.852 840.57 127.755 839.864 127.755C839.154 127.755 838.499 127.853 837.872 128.094C837.262 128.328 836.75 128.637 836.311 129.057C835.876 129.473 835.522 129.992 835.286 130.578C835.05 131.166 834.937 131.812 834.937 132.509C834.937 133.207 835.05 133.853 835.286 134.44C835.522 135.026 835.876 135.545 836.311 135.962C836.743 136.375 837.289 136.719 837.879 136.927C838.503 137.166 839.157 137.263 839.864 137.263C840.574 137.263 841.23 137.165 841.856 136.924C842.468 136.689 842.973 136.383 843.436 135.976L843.445 135.969L843.452 135.962C843.478 135.937 843.504 135.912 843.529 135.886H843.58L843.563 135.851ZM841.616 134.327C841.74 134.503 841.858 134.688 841.972 134.886H841.603C841.599 134.88 841.595 134.873 841.592 134.866C841.405 134.533 841.214 134.193 841.001 133.899C840.951 133.829 840.9 133.759 840.85 133.688C840.67 133.437 840.491 133.187 840.314 132.98L840.164 132.805H839.934H838.993H838.493V133.305V134.856H838.028V130.194C838.214 130.166 838.407 130.149 838.618 130.13C838.942 130.102 839.236 130.102 839.481 130.102C840.406 130.102 841.002 130.247 841.418 130.488C841.733 130.689 841.909 131.003 841.909 131.499C841.909 131.722 841.842 131.933 841.715 132.138C841.606 132.286 841.415 132.443 841.108 132.565L840.483 132.815L840.903 133.341C841.137 133.635 841.372 133.959 841.609 134.316L841.609 134.316L841.616 134.327ZM838.851 130.215L838.458 130.301V130.703V132.264V132.764H838.958H838.993H839.481C839.98 132.764 840.382 132.697 840.718 132.586C840.977 132.501 841.174 132.333 841.296 132.111C841.411 131.902 841.445 131.673 841.445 131.469C841.445 130.995 841.191 130.613 840.786 130.41C840.45 130.241 840.052 130.173 839.62 130.173H839.62H839.619H839.618H839.618H839.617H839.616H839.616H839.615H839.615H839.614H839.613H839.613H839.612H839.612H839.611H839.61H839.61H839.609H839.609H839.608H839.607H839.607H839.606H839.605H839.605H839.604H839.604H839.603H839.602H839.602H839.601H839.601H839.6H839.599H839.599H839.598H839.597H839.597H839.596H839.596H839.595H839.594H839.594H839.593H839.593H839.592H839.591H839.591H839.59H839.59H839.589H839.588H839.588H839.587H839.586H839.586H839.585H839.585H839.584H839.583H839.583H839.582H839.582H839.581H839.58H839.58H839.579H839.578H839.578H839.577H839.577H839.576H839.575H839.575H839.574H839.574H839.573H839.572H839.572H839.571H839.571H839.57H839.569H839.569H839.568H839.567H839.567H839.566H839.566H839.565H839.564H839.564H839.563H839.563H839.562H839.561H839.561H839.56H839.559H839.559H839.558H839.558H839.557H839.556H839.556H839.555H839.555H839.554H839.553H839.553H839.552H839.552H839.551H839.55H839.55H839.549H839.548H839.548H839.547H839.547H839.546H839.545H839.545H839.544H839.544H839.543H839.542H839.542H839.541H839.54H839.54H839.539H839.539H839.538H839.537H839.537H839.536H839.536H839.535H839.534H839.534H839.533H839.533H839.532H839.531H839.531H839.53H839.529H839.529H839.528H839.528H839.527H839.526H839.526H839.525H839.525H839.524H839.523H839.523H839.522H839.521H839.521H839.52H839.52H839.519H839.518H839.518H839.517H839.517H839.516H839.515H839.515H839.514H839.514H839.513H839.512H839.512H839.511H839.51H839.51H839.509H839.509H839.508H839.507H839.507H839.506H839.506H839.505H839.504H839.504H839.503H839.502H839.502H839.501H839.501H839.5H839.499H839.499H839.498H839.498H839.497H839.496H839.496H839.495H839.495H839.494H839.493H839.493H839.492H839.491H839.491H839.49H839.49H839.489H839.488H839.488H839.487H839.487H839.486H839.485H839.485H839.484H839.483H839.483H839.482H839.482H839.481H839.48H839.48H839.479H839.479H839.478H839.477H839.477H839.476H839.476H839.475H839.474H839.474H839.473H839.472H839.472H839.471H839.471H839.47H839.469H839.469H839.468H839.468H839.467H839.466H839.466H839.465H839.464H839.464H839.463H839.463H839.462H839.461H839.461H839.46H839.46H839.459H839.458H839.458H839.457H839.457H839.456H839.455H839.455H839.454H839.453H839.453H839.452H839.452H839.451H839.45H839.45H839.449H839.449H839.448H839.447H839.447H839.446H839.445H839.445H839.444H839.444H839.443H839.442H839.442H839.441H839.441H839.44H839.439H839.439H839.438H839.438H839.437H839.436H839.436H839.435H839.434H839.434H839.433H839.433H839.432H839.431H839.431H839.43H839.43H839.429H839.428H839.428H839.427H839.426H839.426H839.425H839.425H839.424H839.423H839.423H839.422H839.422H839.421H839.42H839.42H839.419H839.419H839.418H839.417H839.417H839.416H839.415H839.415H839.414H839.414H839.413H839.412H839.412H839.411H839.411H839.41H839.409H839.409H839.408H839.407H839.407H839.406H839.406H839.405H839.404H839.404H839.403H839.403H839.402H839.401H839.401H839.4H839.4H839.399H839.398H839.398H839.397H839.396H839.396H839.395H839.395H839.394H839.393H839.393H839.392H839.392H839.391H839.39H839.39H839.389H839.389H839.388H839.387H839.387H839.386H839.385H839.385H839.384H839.384H839.383H839.382H839.382H839.381H839.381H839.38H839.379H839.379H839.378H839.377H839.377H839.376H839.376H839.375H839.374H839.374H839.373H839.373H839.372H839.371H839.371H839.37H839.37H839.369H839.368H839.368H839.367H839.366H839.366H839.365H839.365H839.364H839.363H839.363H839.362H839.362H839.361H839.36H839.36H839.359H839.358H839.358H839.357H839.357H839.356H839.355H839.355H839.354H839.354H839.353H839.352H839.352H839.351H839.351H839.35H839.349H839.349H839.348H839.347H839.347H839.346H839.346H839.345H839.344H839.344H839.343H839.343H839.342H839.341H839.341H839.34H839.339H839.339H839.338H839.338H839.337H839.336H839.336H839.335H839.335H839.334H839.333H839.333H839.332H839.332H839.331H839.33H839.33H839.329H839.328H839.328H839.327H839.327H839.326H839.325H839.325H839.324H839.324H839.323H839.322H839.322H839.321H839.32H839.32H839.319H839.319H839.318H839.317H839.317H839.316H839.316H839.315H839.314H839.314H839.313H839.313H839.312H839.311H839.311H839.31H839.309H839.309H839.308H839.308H839.307H839.306L839.3 130.173C839.192 130.173 839.043 130.173 838.851 130.215ZM845.396 132.509C845.396 133.329 845.235 134.021 844.954 134.624C844.674 135.227 844.267 135.752 843.759 136.199C843.245 136.621 842.673 136.954 842.007 137.177C841.328 137.404 840.614 137.518 839.864 137.518C839.117 137.518 838.438 137.405 837.757 137.177C837.088 136.953 836.514 136.618 835.998 136.194C835.509 135.791 835.13 135.272 834.804 134.613C834.498 133.995 834.368 133.311 834.368 132.509C834.368 131.719 834.529 130.996 834.809 130.394C835.09 129.792 835.497 129.267 836.004 128.82C836.518 128.398 837.091 128.064 837.757 127.841C838.438 127.614 839.117 127.5 839.864 127.5C840.614 127.5 841.328 127.614 842.007 127.841C842.675 128.065 843.25 128.4 843.765 128.825C844.254 129.227 844.633 129.746 844.959 130.405C845.265 131.023 845.396 131.708 845.396 132.509Z" stroke="#3B6064"/>
</g>
<defs>
<clipPath id="clip0_3686_14084">
<rect width="847" height="138" fill="white"/>
</clipPath>
<clipPath id="clip1_3686_14084">
<rect width="288" height="41" fill="white" transform="translate(471 26)"/>
</clipPath>
<clipPath id="clip2_3686_14084">
<rect width="442" height="52" fill="white" transform="translate(404 86)"/>
</clipPath>
</defs>
</svg>
