<svg width="29" height="25" viewBox="0 0 29 25" fill="none" xmlns="http://www.w3.org/2000/svg">
<path d="M27.79 6.95801V24.6338H1.21045V6.95801" stroke="white" stroke-width="0.5" stroke-miterlimit="10" stroke-linecap="round" stroke-linejoin="round"/>
<path d="M22.3164 13.9126H24.7803C24.9995 13.9126 25.1768 13.7593 25.1768 13.5708V11.8198C25.1768 11.6313 24.9995 11.478 24.7803 11.478H22.3164M6.68359 13.9126H4.21973C4.00053 13.9126 3.82324 13.7593 3.82324 13.5708V11.8198C3.82324 11.6313 4.00053 11.478 4.21973 11.478H6.68359M22.3164 9.39258H24.7803C24.9995 9.39258 25.1768 9.23926 25.1768 9.05078V7.2998C25.1768 7.11084 24.9995 6.95801 24.7803 6.95801H22.3164H28.1787C28.3979 6.95801 28.5752 6.80518 28.5752 6.61621V5.10254C28.5752 4.91357 28.3979 4.76074 28.1787 4.76074H22.3164M6.68359 9.39258H4.21973C4.00053 9.39258 3.82324 9.23926 3.82324 9.05078V7.2998C3.82324 7.11084 4.00053 6.95801 4.21973 6.95801H6.68359H0.821289C0.60209 6.95801 0.424805 6.80518 0.424805 6.61621V5.10254C0.424805 4.91357 0.60209 4.76074 0.821289 4.76074H6.68359M22.3164 18.3071H24.7803C24.9995 18.3071 25.1768 18.1538 25.1768 17.9653V16.2144C25.1768 16.0259 24.9995 15.8726 24.7803 15.8726H22.3164M6.68359 18.3071H4.21973C4.00053 18.3071 3.82324 18.1538 3.82324 17.9653V16.2144C3.82324 16.0259 4.00053 15.8726 4.21973 15.8726H6.68359M22.3164 22.7017H24.7803C24.9995 22.7017 25.1768 22.5483 25.1768 22.3599V20.6089C25.1768 20.4204 24.9995 20.2671 24.7803 20.2671H22.3164M6.68359 22.7017H4.21973C4.00053 22.7017 3.82324 22.5483 3.82324 22.3599V20.6089C3.82324 20.4204 4.00053 20.2671 4.21973 20.2671H6.68359M10.9316 13.5986H18.0684M28.5752 24.6338H0.424805M6.68359 2.56348H22.3164V24.6338H6.68359V2.56348ZM22.7695 0.366211H6.23047C6.12531 0.366211 6.02447 0.402222 5.95011 0.466321C5.87576 0.53042 5.83398 0.617358 5.83398 0.708008V2.22168C5.83398 2.31233 5.87576 2.39927 5.95011 2.46337C6.02447 2.52747 6.12531 2.56348 6.23047 2.56348H22.7695C22.8747 2.56348 22.9755 2.52747 23.0499 2.46337C23.1242 2.39927 23.166 2.31233 23.166 2.22168V0.708008C23.166 0.617358 23.1242 0.53042 23.0499 0.466321C22.9755 0.402222 22.8747 0.366211 22.7695 0.366211Z" stroke="white" stroke-width="0.5" stroke-miterlimit="10" stroke-linecap="round" stroke-linejoin="round"/>
<path d="M19.7676 21.4767V24.6338H9.23242V15.7317C9.23242 15.641 9.27419 15.5541 9.34855 15.49C9.4229 15.4259 9.52375 15.3899 9.62891 15.3899H19.3711C19.4762 15.3899 19.5771 15.4259 19.6514 15.49C19.7258 15.5541 19.7676 15.641 19.7676 15.7317V19.7677M13.9347 4.74847H19.3711C19.4762 4.74847 19.5771 4.78448 19.6514 4.84858C19.7258 4.91268 19.7676 4.99962 19.7676 5.09027V6.84105C19.7676 6.9317 19.7258 7.01864 19.6514 7.08274C19.5771 7.14684 19.4762 7.18285 19.3711 7.18285H9.62891C9.52375 7.18285 9.4229 7.14684 9.34855 7.08274C9.27419 7.01864 9.23242 6.9317 9.23242 6.84105V5.09027C9.23242 4.99962 9.27419 4.91268 9.34855 4.84858C9.4229 4.78448 9.52375 4.74847 9.62891 4.74847H11.9523M14.5 15.3899V24.6338M19.3711 11.8144H9.62891C9.52375 11.8144 9.4229 11.7784 9.34855 11.7143C9.27419 11.6502 9.23242 11.5633 9.23242 11.4726V9.72186C9.23242 9.63121 9.27419 9.54428 9.34855 9.48018C9.4229 9.41608 9.52375 9.38007 9.62891 9.38007H19.3711C19.4762 9.38007 19.5771 9.41608 19.6514 9.48018C19.7258 9.54428 19.7676 9.63121 19.7676 9.72186V11.4726C19.7676 11.5633 19.7258 11.6502 19.6514 11.7143C19.5771 11.7784 19.4762 11.8144 19.3711 11.8144Z" stroke="white" stroke-width="0.5" stroke-miterlimit="10" stroke-linecap="round" stroke-linejoin="round"/>
</svg>
