<svg width="48" height="47" viewBox="0 0 48 47" fill="none" xmlns="http://www.w3.org/2000/svg">
<path d="M24.0625 47C37.0412 47 47.5625 36.4787 47.5625 23.5C47.5625 10.5213 37.0412 0 24.0625 0C11.0838 0 0.5625 10.5213 0.5625 23.5C0.5625 36.4787 11.0838 47 24.0625 47Z" fill="#3B6064"/>
<path fill-rule="evenodd" clip-rule="evenodd" d="M34.6496 17.1535C34.6496 17.1535 36.5974 17.0001 37.379 16.4186C37.379 16.4186 37.1917 17.088 34.8479 19.206C34.8479 19.206 35.6371 30.6343 23.6127 33.4332C23.6127 33.4332 17.5146 34.7318 13.0957 31.4192C13.0957 31.4192 17.7216 32.2397 20.3242 29.3702C20.3242 29.3702 16.967 29.4041 15.9052 25.9898C15.9052 25.9898 17.1728 26.2627 17.9262 25.9214C17.9262 25.9214 14.1235 25.1353 14.1921 21.0034C14.1921 21.0034 15.2199 21.7549 16.1445 21.6182C16.1445 21.6182 12.7193 18.7147 14.8429 15.0959C14.8429 15.0959 19.4324 20.5057 25.1206 20.1845C25.0215 19.7973 24.9679 19.3916 24.9679 18.9721C24.9679 16.2824 27.1566 14.1006 29.856 14.1006C31.2199 14.1006 32.4534 14.658 33.3406 15.5561C33.9908 15.567 35.3281 15.4515 36.6637 14.4983C36.6637 14.4988 36.7404 15.5406 34.6496 17.1535Z" fill="white"/>
</svg>
