<svg width="48" height="47" viewBox="0 0 48 47" fill="none" xmlns="http://www.w3.org/2000/svg">
<path d="M27.674 23.0912L22.176 20.5258C21.6962 20.303 21.3021 20.5527 21.3021 21.0839V25.9161C21.3021 26.4473 21.6962 26.697 22.176 26.4742L27.6716 23.9088C28.1538 23.6836 28.1538 23.3164 27.674 23.0912ZM23.75 0C10.7711 0 0.25 10.5211 0.25 23.5C0.25 36.4789 10.7711 47 23.75 47C36.7289 47 47.25 36.4789 47.25 23.5C47.25 10.5211 36.7289 0 23.75 0ZM23.75 33.0469C11.7209 33.0469 11.5104 31.9624 11.5104 23.5C11.5104 15.0376 11.7209 13.9531 23.75 13.9531C35.7791 13.9531 35.9896 15.0376 35.9896 23.5C35.9896 31.9624 35.7791 33.0469 23.75 33.0469Z" fill="#3B6064"/>
</svg>
