<svg width="47" height="47" viewBox="0 0 47 47" fill="none" xmlns="http://www.w3.org/2000/svg">
<path d="M46.998 23.501C46.998 10.5206 36.4774 0 23.499 0C10.5206 0 0 10.5206 0 23.501C0 35.228 8.59352 44.9495 19.827 46.7121V30.2928H13.8617V23.499H19.827V18.3229C19.827 12.432 23.3365 9.17909 28.7025 9.17909C31.2739 9.17909 33.9628 9.63736 33.9628 9.63736V15.4206H31.0017C28.0837 15.4206 27.173 17.2321 27.173 19.0906V23.501H33.6906L32.6487 30.2947H27.173V46.7141C38.4065 44.9515 47 35.2299 47 23.501H46.998Z" fill="#3B6064"/>
</svg>
