<svg width="137" height="121" viewBox="0 0 137 121" fill="none" xmlns="http://www.w3.org/2000/svg">
<g opacity="0.1">
<path d="M130 120.715L87.4581 120.715C83.5957 120.715 80.461 117.593 80.461 113.745L80.461 71.3679C80.461 67.5203 83.5957 64.3979 87.4581 64.3979L107.82 64.3979C107.554 53.3016 104.965 44.4219 100.067 37.7447C96.2044 32.4754 90.355 28.1122 82.5321 24.669C78.9356 23.0938 77.3822 18.8561 79.0615 15.3152L84.0994 4.72082C85.7228 1.3196 89.7391 -0.17212 93.2097 1.31959C102.474 5.30642 110.297 10.3527 116.678 16.4863C124.459 23.972 129.791 32.4196 132.673 41.8431C135.556 51.2665 136.998 64.1191 136.998 80.4289L136.998 113.745C136.998 117.593 133.863 120.715 130 120.715Z" fill="#05D35D"/>
<path d="M15.8371 1.32568C24.9893 5.2993 32.7701 10.3463 39.1935 16.4672C47.0442 23.9544 52.404 32.3756 55.2868 41.7311C58.1696 51.0865 59.6109 63.9833 59.6109 80.4215L59.6109 113.744C59.6109 117.592 56.4763 120.715 52.6138 120.715L10.0714 120.715C6.20895 120.715 3.07424 117.592 3.07424 113.744L3.07424 71.3589C3.07424 67.5106 6.20894 64.3876 10.0713 64.3876L30.4329 64.3876C30.167 53.2893 27.5781 44.408 22.6801 37.7296C18.8177 32.4593 12.9681 28.0953 5.14538 24.6515C1.54886 23.076 -0.0044939 18.8375 1.67481 15.2959L6.69874 4.72752C8.32221 1.32568 12.3665 -0.180245 15.8371 1.32568Z" fill="#05D35D"/>
</g>
</svg>
