<svg width="136" height="121" viewBox="0 0 136 121" fill="none" xmlns="http://www.w3.org/2000/svg">
<g opacity="0.1">
<path d="M6.99755 0.742192L49.54 0.742188C53.4024 0.742188 56.5371 3.86474 56.5371 7.71217L56.5371 50.0896C56.5371 53.9372 53.4024 57.0596 49.54 57.0596L29.1784 57.0596C29.4443 68.156 32.0332 77.0356 36.9312 83.7128C40.7936 88.9821 46.643 93.3453 54.4659 96.7885C58.0625 98.3637 59.6158 102.601 57.9365 106.142L52.8986 116.737C51.2753 120.138 47.2589 121.63 43.7884 120.138C34.5242 116.151 26.7013 111.105 20.3201 104.971C12.5391 97.4855 7.20747 89.0379 4.32466 79.6145C1.44171 70.1911 0.000443629 57.3384 0.000442206 41.0287L0.000439298 7.71217C0.000438963 3.86488 3.13528 0.742192 6.99755 0.742192Z" fill="#3B6064"/>
<path d="M121.161 120.132C112.009 116.158 104.228 111.111 97.8046 104.99C89.9538 97.5032 84.594 89.0819 81.7112 79.7265C78.8284 70.3711 77.3872 57.4742 77.3872 41.036L77.3872 7.71344C77.3872 3.86531 80.5217 0.742192 84.3843 0.742192L126.927 0.742188C130.789 0.742188 133.924 3.86531 133.924 7.71344L133.924 50.0986C133.924 53.9469 130.789 57.0699 126.927 57.0699L106.565 57.0699C106.831 68.1683 109.42 77.0495 114.318 83.728C118.18 88.9982 124.03 93.3622 131.853 96.806C135.449 98.3815 137.003 102.62 135.323 106.162L130.299 116.73C128.676 120.132 124.632 121.638 121.161 120.132Z" fill="#3B6064"/>
</g>
</svg>
