<svg width="39" height="39" viewBox="0 0 39 39" fill="none" xmlns="http://www.w3.org/2000/svg">
<g clip-path="url(#clip0_553_8845)">
<path d="M35.9531 12.1875H33.5156V6.09375C33.5156 5.42176 32.9689 4.875 32.2969 4.875H29.8594V1.82812C29.8594 0.820143 29.0392 0 28.0312 0H10.9688C9.96077 0 9.14062 0.820143 9.14062 1.82812V4.875H6.70312C6.03114 4.875 5.48438 5.42176 5.48438 6.09375V12.1875H3.04688C1.36683 12.1875 0 13.5543 0 15.2344V28.6406C0 30.3207 1.36683 31.6875 3.04688 31.6875H9.14062V37.1719C9.14062 38.1799 9.96077 39 10.9688 39H28.0312C29.0392 39 29.8594 38.1799 29.8594 37.1719V31.6875H35.9531C37.6332 31.6875 39 30.3207 39 28.6406V15.2344C39 13.5543 37.6332 12.1875 35.9531 12.1875ZM32.2969 6.09375V12.1875H29.8594V6.09375H32.2969ZM10.3594 1.82812C10.3594 1.49213 10.6328 1.21875 10.9688 1.21875H28.0312C28.3672 1.21875 28.6406 1.49213 28.6406 1.82812V12.1875H10.3594C10.3594 12.063 10.3594 2.26908 10.3594 1.82812ZM6.70312 6.09375H9.14062V12.1875H6.70312V6.09375ZM28.6406 37.1719C28.6406 37.5079 28.3672 37.7812 28.0312 37.7812H10.9688C10.6328 37.7812 10.3594 37.5079 10.3594 37.1719V26.8125H28.6406V37.1719ZM37.7812 28.6406C37.7812 29.6486 36.9611 30.4688 35.9531 30.4688H29.8594V26.8125H31.0781C31.4147 26.8125 31.6875 26.5397 31.6875 26.2031C31.6875 25.8666 31.4147 25.5938 31.0781 25.5938C28.8953 25.5938 8.92102 25.5938 7.92188 25.5938C7.58535 25.5938 7.3125 25.8666 7.3125 26.2031C7.3125 26.5397 7.58535 26.8125 7.92188 26.8125H9.14062V30.4688H3.04688C2.03889 30.4688 1.21875 29.6486 1.21875 28.6406V15.2344C1.21875 14.2264 2.03889 13.4062 3.04688 13.4062H35.9531C36.9611 13.4062 37.7812 14.2264 37.7812 15.2344V28.6406Z" fill="#05D35D"/>
<path d="M34.7344 14.625C33.7264 14.625 32.9062 15.4451 32.9062 16.4531C32.9062 17.4611 33.7264 18.2812 34.7344 18.2812C35.7424 18.2812 36.5625 17.4611 36.5625 16.4531C36.5625 15.4451 35.7424 14.625 34.7344 14.625ZM34.7344 17.0625C34.3984 17.0625 34.125 16.7891 34.125 16.4531C34.125 16.1171 34.3984 15.8438 34.7344 15.8438C35.0704 15.8438 35.3438 16.1171 35.3438 16.4531C35.3438 16.7891 35.0704 17.0625 34.7344 17.0625Z" fill="#05D35D"/>
<path d="M29.8594 14.625C28.8514 14.625 28.0312 15.4451 28.0312 16.4531C28.0312 17.4611 28.8514 18.2812 29.8594 18.2812C30.8674 18.2812 31.6875 17.4611 31.6875 16.4531C31.6875 15.4451 30.8674 14.625 29.8594 14.625ZM29.8594 17.0625C29.5234 17.0625 29.25 16.7891 29.25 16.4531C29.25 16.1171 29.5234 15.8438 29.8594 15.8438C30.1954 15.8438 30.4688 16.1171 30.4688 16.4531C30.4688 16.7891 30.1954 17.0625 29.8594 17.0625Z" fill="#05D35D"/>
<path d="M26.2031 28.6406H13.4062C13.0697 28.6406 12.7969 28.9135 12.7969 29.25C12.7969 29.5865 13.0697 29.8594 13.4062 29.8594H26.2031C26.5397 29.8594 26.8125 29.5865 26.8125 29.25C26.8125 28.9135 26.5397 28.6406 26.2031 28.6406Z" fill="#05D35D"/>
<path d="M26.2031 31.6875H13.4062C13.0697 31.6875 12.7969 31.9603 12.7969 32.2969C12.7969 32.6334 13.0697 32.9062 13.4062 32.9062H26.2031C26.5397 32.9062 26.8125 32.6334 26.8125 32.2969C26.8125 31.9603 26.5397 31.6875 26.2031 31.6875Z" fill="#05D35D"/>
<path d="M26.2031 34.7344H13.4062C13.0697 34.7344 12.7969 35.0072 12.7969 35.3438C12.7969 35.6803 13.0697 35.9531 13.4062 35.9531H26.2031C26.5397 35.9531 26.8125 35.6803 26.8125 35.3438C26.8125 35.0072 26.5397 34.7344 26.2031 34.7344Z" fill="#05D35D"/>
</g>
<defs>
<clipPath id="clip0_553_8845">
<rect width="39" height="39" fill="white"/>
</clipPath>
</defs>
</svg>
