<svg width="41" height="41" viewBox="0 0 41 41" fill="none" xmlns="http://www.w3.org/2000/svg">
<path d="M38.3991 24.6999C38.0418 24.1033 36.5759 22.3317 32.7145 24.5805L25.9339 28.53C25.6105 28.7183 25.282 28.8537 24.9398 28.9377C25.0625 28.732 25.1593 28.5016 25.2271 28.2482C25.5765 26.9443 24.8018 25.5829 23.4634 25.149C23.4368 25.1404 23.4096 25.1336 23.3821 25.1286C21.435 24.7774 19.5125 24.0824 17.9679 23.5239C17.4307 23.3297 16.9233 23.1463 16.4917 23.0064C14.7473 22.4404 13.1734 23.1397 11.8639 23.8984L6.83765 26.8105L6.48288 26.1837C6.27026 25.8081 5.92311 25.5374 5.5054 25.4216C5.08769 25.3058 4.65063 25.3592 4.27504 25.5718L2.37252 26.6484C1.59515 27.0884 1.32067 28.0788 1.7606 28.8563L7.3539 38.7392C7.65162 39.2653 8.20129 39.5611 8.76651 39.5611C9.03664 39.5611 9.31035 39.4934 9.56175 39.3512L11.4643 38.2745C11.8399 38.0619 12.1105 37.7147 12.2263 37.297C12.3421 36.8792 12.2888 36.4423 12.0762 36.0666L11.3975 34.8674L12.5231 34.2176L21.1997 36.5426C21.6921 36.6745 22.1752 36.7404 22.6481 36.7404C23.591 36.7403 24.4924 36.4785 25.3406 35.9562L37.6459 28.3791C38.7765 27.683 39.1354 25.9293 38.3991 24.6999ZM11.0281 36.9648C11.001 37.0625 10.9384 37.1433 10.8518 37.1923L8.94929 38.269C8.86272 38.318 8.76122 38.3302 8.66354 38.303C8.56585 38.276 8.48503 38.2133 8.43607 38.1268L2.84269 28.2437C2.74213 28.0661 2.80725 27.831 2.98499 27.7305C2.98499 27.7305 4.88711 26.654 4.8875 26.6538C5.06492 26.5534 5.30055 26.619 5.40072 26.7961L10.994 36.679C11.0431 36.7656 11.0551 36.8671 11.0281 36.9648ZM36.994 27.3202L24.6887 34.8973C23.7178 35.4951 22.6521 35.6445 21.5216 35.3414L12.5962 32.9499C12.4369 32.9073 12.2672 32.9295 12.1244 33.012L10.7851 33.7852L7.45019 27.8926L12.4872 24.9743C13.6135 24.3218 14.8317 23.775 16.1081 24.1891C16.5201 24.3227 16.9952 24.4944 17.5451 24.6932C19.1222 25.2634 21.082 25.9719 23.1163 26.344C23.814 26.5885 24.2041 27.2623 24.0262 27.9264C23.8097 28.7341 23.1704 28.8883 22.6162 28.8544C21.5071 28.6384 20.5092 28.3553 19.4635 28.0587C19.0131 27.9309 18.5473 27.7989 18.0575 27.6676C17.7259 27.5789 17.385 27.7756 17.2961 28.1072C17.2072 28.4389 17.404 28.7797 17.7357 28.8686C18.2168 28.9976 18.6781 29.1284 19.1242 29.255C20.1203 29.5375 21.0743 29.808 22.1305 30.0253C22.2181 30.0434 22.88 30.167 23.1258 30.2076C24.3919 30.4102 25.515 30.2128 26.5597 29.6044L33.3403 25.655C35.2817 24.5244 36.7739 24.4062 37.3325 25.3388C37.7167 25.9804 37.5459 26.9804 36.994 27.3202ZM5.31788 28.3476C5.37212 28.7188 5.1152 29.0638 4.74404 29.118C4.37288 29.1723 4.02791 28.9153 3.97366 28.5442C3.91942 28.173 4.17634 27.828 4.5475 27.7738C4.91866 27.7195 5.26356 27.9764 5.31788 28.3476ZM11.6446 16.7231L19.4159 21.2099C19.5122 21.2654 19.6195 21.2933 19.7268 21.2933C19.8341 21.2933 19.9414 21.2655 20.0377 21.2099L27.809 16.7231C28.0014 16.6121 28.1199 16.4068 28.1199 16.1847V7.21104C28.1199 6.98893 28.0014 6.78369 27.809 6.67264L20.0377 2.18583C19.8452 2.07478 19.6084 2.07478 19.4159 2.18583L11.6446 6.67264C11.4522 6.78369 11.3337 6.98893 11.3337 7.21104V16.1847C11.3337 16.4068 11.4522 16.6121 11.6446 16.7231ZM12.5771 8.28792L14.0925 9.16282V12.3375C14.0925 12.5596 14.2111 12.7649 14.4034 12.8759L16.6571 14.1771C16.7533 14.2326 16.8606 14.2604 16.968 14.2604C17.0753 14.2604 17.1826 14.2326 17.2788 14.1771C17.4712 14.066 17.5897 13.8608 17.5897 13.6387V11.1819L19.1051 12.0568V19.5947L12.5771 15.8258V8.28792ZM19.7268 10.98L18.2114 10.1051L24.7393 6.33621L26.2548 7.21112L19.7268 10.98ZM16.968 9.38718L15.9577 8.80386L22.4856 5.03497L23.4959 5.61829L16.968 9.38718ZM16.3462 10.464V12.5619L15.336 11.9786V9.88074L16.3462 10.464ZM20.3485 19.5947V12.0569L26.8765 8.28792V15.8258L20.3485 19.5947ZM19.7268 3.44215L21.2422 4.31713L14.7143 8.08602L13.1988 7.21112L19.7268 3.44215Z" fill="#3B6064"/>
</svg>
