<svg width="38" height="38" viewBox="0 0 38 38" fill="none" xmlns="http://www.w3.org/2000/svg">
<path d="M12.0216 11.9805C11.6546 11.9805 11.2959 12.0893 10.9907 12.2932C10.6856 12.4971 10.4477 12.7869 10.3073 13.126C10.1668 13.465 10.1301 13.8381 10.2017 14.1981C10.2733 14.5581 10.45 14.8887 10.7095 15.1482C10.969 15.4077 11.2997 15.5845 11.6596 15.6561C12.0196 15.7277 12.3927 15.6909 12.7317 15.5505C13.0708 15.41 13.3606 15.1722 13.5645 14.867C13.7684 14.5619 13.8773 14.2031 13.8773 13.8361C13.8773 13.3439 13.6818 12.872 13.3338 12.524C12.9858 12.176 12.5138 11.9805 12.0216 11.9805ZM12.0216 14.4546C11.8993 14.4546 11.7797 14.4184 11.678 14.3504C11.5763 14.2824 11.497 14.1858 11.4502 14.0728C11.4034 13.9598 11.3911 13.8354 11.415 13.7154C11.4388 13.5954 11.4978 13.4852 11.5843 13.3987C11.6708 13.3122 11.781 13.2533 11.901 13.2294C12.0209 13.2056 12.1453 13.2178 12.2583 13.2646C12.3714 13.3114 12.468 13.3907 12.5359 13.4924C12.6039 13.5942 12.6402 13.7138 12.6402 13.8361C12.6402 14.0001 12.575 14.1575 12.459 14.2735C12.343 14.3895 12.1857 14.4546 12.0216 14.4546Z" fill="#05D35D"/>
<path d="M26.8675 11.9805H16.9709C16.4787 11.9805 16.0067 12.176 15.6587 12.524C15.3107 12.872 15.1152 13.3439 15.1152 13.8361C15.1152 14.3282 15.3107 14.8002 15.6587 15.1482C16.0067 15.4962 16.4787 15.6917 16.9709 15.6917H26.8675C27.3596 15.6917 27.8316 15.4962 28.1796 15.1482C28.5276 14.8002 28.7231 14.3282 28.7231 13.8361C28.7231 13.3439 28.5276 12.872 28.1796 12.524C27.8316 12.176 27.3596 11.9805 26.8675 11.9805ZM26.8675 14.4546H16.9709C16.8068 14.4546 16.6495 14.3895 16.5335 14.2735C16.4175 14.1575 16.3523 14.0001 16.3523 13.8361C16.3523 13.672 16.4175 13.5147 16.5335 13.3987C16.6495 13.2827 16.8068 13.2175 16.9709 13.2175H26.8675C27.0315 13.2175 27.1889 13.2827 27.3049 13.3987C27.4209 13.5147 27.486 13.672 27.486 13.8361C27.486 14.0001 27.4209 14.1575 27.3049 14.2735C27.1889 14.3895 27.0315 14.4546 26.8675 14.4546Z" fill="#05D35D"/>
<path d="M12.0216 16.9294C11.6546 16.9294 11.2959 17.0383 10.9907 17.2422C10.6856 17.4461 10.4477 17.7359 10.3073 18.0749C10.1668 18.414 10.1301 18.7871 10.2017 19.1471C10.2733 19.507 10.45 19.8377 10.7095 20.0972C10.969 20.3567 11.2997 20.5334 11.6596 20.605C12.0196 20.6766 12.3927 20.6399 12.7317 20.4994C13.0708 20.359 13.3606 20.1211 13.5645 19.816C13.7684 19.5108 13.8773 19.1521 13.8773 18.7851C13.8773 18.2929 13.6818 17.8209 13.3338 17.4729C12.9858 17.1249 12.5138 16.9294 12.0216 16.9294ZM12.0216 19.4036C11.8993 19.4036 11.7797 19.3673 11.678 19.2994C11.5763 19.2314 11.497 19.1348 11.4502 19.0218C11.4034 18.9087 11.3911 18.7844 11.415 18.6644C11.4388 18.5444 11.4978 18.4342 11.5843 18.3477C11.6708 18.2612 11.781 18.2023 11.901 18.1784C12.0209 18.1545 12.1453 18.1668 12.2583 18.2136C12.3714 18.2604 12.468 18.3397 12.5359 18.4414C12.6039 18.5431 12.6402 18.6627 12.6402 18.7851C12.6402 18.9491 12.575 19.1064 12.459 19.2224C12.343 19.3384 12.1857 19.4036 12.0216 19.4036Z" fill="#05D35D"/>
<path d="M26.8675 16.9294H16.9709C16.4787 16.9294 16.0067 17.1249 15.6587 17.4729C15.3107 17.8209 15.1152 18.2929 15.1152 18.7851C15.1152 19.2772 15.3107 19.7492 15.6587 20.0972C16.0067 20.4452 16.4787 20.6407 16.9709 20.6407H26.8675C27.3596 20.6407 27.8316 20.4452 28.1796 20.0972C28.5276 19.7492 28.7231 19.2772 28.7231 18.7851C28.7231 18.2929 28.5276 17.8209 28.1796 17.4729C27.8316 17.1249 27.3596 16.9294 26.8675 16.9294ZM26.8675 19.4036H16.9709C16.8068 19.4036 16.6495 19.3384 16.5335 19.2224C16.4175 19.1064 16.3523 18.9491 16.3523 18.7851C16.3523 18.621 16.4175 18.4637 16.5335 18.3477C16.6495 18.2317 16.8068 18.1665 16.9709 18.1665H26.8675C27.0315 18.1665 27.1889 18.2317 27.3049 18.3477C27.4209 18.4637 27.486 18.621 27.486 18.7851C27.486 18.9491 27.4209 19.1064 27.3049 19.2224C27.1889 19.3384 27.0315 19.4036 26.8675 19.4036Z" fill="#05D35D"/>
<path d="M12.0216 21.8774C11.6546 21.8774 11.2959 21.9863 10.9907 22.1902C10.6856 22.3941 10.4477 22.6839 10.3073 23.0229C10.1668 23.362 10.1301 23.7351 10.2017 24.0951C10.2733 24.455 10.45 24.7857 10.7095 25.0452C10.969 25.3047 11.2997 25.4814 11.6596 25.553C12.0196 25.6246 12.3927 25.5879 12.7317 25.4474C13.0708 25.307 13.3606 25.0691 13.5645 24.764C13.7684 24.4588 13.8773 24.1001 13.8773 23.7331C13.8773 23.2409 13.6818 22.7689 13.3338 22.4209C12.9858 22.0729 12.5138 21.8774 12.0216 21.8774ZM12.0216 24.3516C11.8993 24.3516 11.7797 24.3153 11.678 24.2474C11.5763 24.1794 11.497 24.0828 11.4502 23.9698C11.4034 23.8567 11.3911 23.7324 11.415 23.6124C11.4388 23.4924 11.4978 23.3822 11.5843 23.2957C11.6708 23.2092 11.781 23.1503 11.901 23.1264C12.0209 23.1025 12.1453 23.1148 12.2583 23.1616C12.3714 23.2084 12.468 23.2877 12.5359 23.3894C12.6039 23.4911 12.6402 23.6107 12.6402 23.7331C12.6402 23.8971 12.575 24.0544 12.459 24.1704C12.343 24.2864 12.1857 24.3516 12.0216 24.3516Z" fill="#05D35D"/>
<path d="M26.8675 21.8774H16.9709C16.4787 21.8774 16.0067 22.0729 15.6587 22.4209C15.3107 22.7689 15.1152 23.2409 15.1152 23.7331C15.1152 24.2252 15.3107 24.6972 15.6587 25.0452C16.0067 25.3932 16.4787 25.5887 16.9709 25.5887H26.8675C27.3596 25.5887 27.8316 25.3932 28.1796 25.0452C28.5276 24.6972 28.7231 24.2252 28.7231 23.7331C28.7231 23.2409 28.5276 22.7689 28.1796 22.4209C27.8316 22.0729 27.3596 21.8774 26.8675 21.8774ZM26.8675 24.3516H16.9709C16.8068 24.3516 16.6495 24.2864 16.5335 24.1704C16.4175 24.0544 16.3523 23.8971 16.3523 23.7331C16.3523 23.569 16.4175 23.4117 16.5335 23.2957C16.6495 23.1797 16.8068 23.1145 16.9709 23.1145H26.8675C27.0315 23.1145 27.1889 23.1797 27.3049 23.2957C27.4209 23.4117 27.486 23.569 27.486 23.7331C27.486 23.8971 27.4209 24.0544 27.3049 24.1704C27.1889 24.2864 27.0315 24.3516 26.8675 24.3516Z" fill="#05D35D"/>
<path d="M19.4438 5.17676C16.7524 5.17676 14.1215 5.97485 11.8837 7.4701C9.64588 8.96535 7.90173 11.0906 6.87178 13.5771C5.84183 16.0636 5.57235 18.7997 6.09742 21.4394C6.62248 24.0791 7.9185 26.5037 9.8216 28.4068C11.7247 30.3099 14.1494 31.606 16.789 32.131C19.4287 32.6561 22.1648 32.3866 24.6513 31.3567C27.1378 30.3267 29.2631 28.5826 30.7583 26.3448C32.2536 24.107 33.0517 21.476 33.0517 18.7846C33.0476 15.1769 31.6126 11.718 29.0615 9.16693C26.5104 6.61585 23.0516 5.18085 19.4438 5.17676ZM19.4438 31.1554C16.9971 31.1554 14.6053 30.4299 12.571 29.0706C10.5366 27.7112 8.95101 25.7792 8.01469 23.5187C7.07838 21.2583 6.83339 18.7709 7.31072 16.3712C7.78805 13.9715 8.96626 11.7672 10.6963 10.0372C12.4264 8.30707 14.6307 7.12887 17.0304 6.65154C19.4301 6.17421 21.9174 6.41919 24.1779 7.35551C26.4384 8.29182 28.3704 9.87742 29.7297 11.9118C31.0891 13.9462 31.8146 16.3379 31.8146 18.7846C31.8108 22.0644 30.5063 25.2088 28.1871 27.5279C25.868 29.8471 22.7236 31.1517 19.4438 31.1554Z" fill="#05D35D"/>
<path d="M36.8877 15.8101L35.1013 15.0964C34.7056 13.4093 34.037 11.7983 33.122 10.3268L33.8791 8.55529C34.0039 8.27621 34.0477 7.9677 34.0058 7.66489C33.9638 7.36209 33.8376 7.07716 33.6416 6.84256C33.3459 6.48442 33.0063 6.11083 32.5635 5.65744C32.1212 5.22446 31.7482 4.88674 31.3975 4.59726C31.1628 4.39843 30.8769 4.26976 30.5724 4.226C30.2679 4.18224 29.9573 4.22516 29.6761 4.34984L27.9028 5.10879C26.431 4.19428 24.82 3.52574 23.1332 3.12947L22.4188 1.34189C22.3058 1.05968 22.1182 0.813559 21.8759 0.629941C21.6337 0.446323 21.346 0.33214 21.0438 0.299648C20.565 0.25202 20.0417 0.228516 19.4449 0.228516C18.848 0.228516 18.3247 0.25202 17.8534 0.299029C17.5496 0.330405 17.2602 0.444118 17.0164 0.627899C16.7725 0.81168 16.5835 1.05855 16.4697 1.34189L15.7565 3.13008C14.0697 3.52636 12.4587 4.1949 10.9869 5.10941L9.21607 4.35294C8.93678 4.22786 8.62796 4.18375 8.32482 4.22563C8.02168 4.26752 7.73639 4.39371 7.50148 4.58984C7.14334 4.88674 6.77036 5.2257 6.31821 5.66795C5.88523 6.11083 5.54566 6.48443 5.25742 6.83328C5.05853 7.06806 4.92983 7.35414 4.88607 7.65871C4.84231 7.96328 4.88526 8.27402 5.01 8.55529L5.76709 10.3268C4.85206 11.7983 4.18348 13.4093 3.78777 15.0964L2.00204 15.8108C1.71961 15.9234 1.47327 16.1109 1.2896 16.3533C1.10593 16.5956 0.991901 16.8834 0.959804 17.1858C0.912176 17.6645 0.888672 18.1878 0.888672 18.7847C0.888672 19.3816 0.912176 19.9049 0.959185 20.3768C0.990735 20.6804 1.10452 20.9697 1.28829 21.2134C1.47205 21.4571 1.71883 21.646 2.00204 21.7599L3.78839 22.4731C4.1841 24.1601 4.85268 25.7711 5.76771 27.2426L5.01248 29.0135C4.88762 29.2928 4.84374 29.6016 4.88584 29.9046C4.92795 30.2077 5.05434 30.4928 5.25061 30.7275C5.54504 31.0844 5.88462 31.4573 6.32811 31.9114C6.77222 32.3443 7.1452 32.6845 7.49344 32.9721C7.72822 33.171 8.01429 33.2997 8.31886 33.3435C8.62343 33.3872 8.93417 33.3443 9.21545 33.2196L10.9869 32.4625C12.4584 33.3775 14.0695 34.0461 15.7565 34.4418L16.4709 36.2275C16.584 36.5095 16.7718 36.7554 17.014 36.9387C17.2563 37.1221 17.5438 37.2361 17.8459 37.2685C18.3247 37.3161 18.848 37.3397 19.4449 37.3397C20.0417 37.3397 20.565 37.3161 21.037 37.2691C21.3404 37.2377 21.6296 37.1241 21.8733 36.9406C22.117 36.757 22.306 36.5105 22.42 36.2275L23.1332 34.4412C24.8202 34.0455 26.4313 33.3769 27.9028 32.4618L29.6736 33.2189C29.953 33.3437 30.2617 33.3876 30.5648 33.3455C30.8678 33.3034 31.1529 33.177 31.3876 32.9808C31.7445 32.6864 32.1175 32.3468 32.5715 31.9033C33.0045 31.4592 33.3447 31.0862 33.6323 30.738C33.8312 30.5032 33.9599 30.2171 34.0036 29.9126C34.0474 29.608 34.0045 29.2972 33.8797 29.016L33.1226 27.2445C34.0377 25.773 34.7062 24.1619 35.102 22.4749L36.8877 21.7586C37.1697 21.6455 37.4155 21.4578 37.5989 21.2155C37.7823 20.9733 37.8963 20.6857 37.9287 20.3836C37.9763 19.9049 37.9998 19.3816 37.9998 18.7847C37.9998 18.1878 37.9763 17.6664 37.9287 17.1876C37.8967 16.8851 37.7828 16.5971 37.5994 16.3544C37.416 16.1117 37.17 15.9235 36.8877 15.8101ZM36.7021 20.2667C36.6915 20.343 36.6608 20.4151 36.6131 20.4756C36.5653 20.536 36.5023 20.5826 36.4306 20.6106L34.3374 21.4444C34.2431 21.4821 34.1595 21.5425 34.094 21.6201C34.0285 21.6978 33.9832 21.7904 33.962 21.8898C33.5862 23.655 32.8891 25.3361 31.9053 26.8492C31.85 26.9343 31.8164 27.0316 31.8076 27.1327C31.7987 27.2337 31.8149 27.3354 31.8546 27.4288L32.7391 29.4997C32.773 29.5703 32.786 29.6492 32.7766 29.727C32.7672 29.8048 32.7357 29.8783 32.6859 29.9388C32.4132 30.2685 32.0958 30.6192 31.6963 31.0262C31.2775 31.4351 30.9287 31.7524 30.5903 32.0326C30.5298 32.0802 30.457 32.1097 30.3804 32.1178C30.3038 32.1259 30.2265 32.1122 30.1573 32.0784L28.0871 31.1938C27.9937 31.1544 27.892 31.1385 27.791 31.1473C27.69 31.1561 27.5927 31.1895 27.5075 31.2446C25.9944 32.2283 24.3133 32.9255 22.5481 33.3012C22.4487 33.3224 22.3561 33.3677 22.2784 33.4332C22.2008 33.4987 22.1404 33.5823 22.1027 33.6767L21.272 35.7636C21.244 35.8371 21.1965 35.9015 21.1346 35.95C21.0727 35.9985 20.9987 36.0292 20.9207 36.0389C20.4834 36.0828 19.9997 36.1007 19.4449 36.1007C18.9492 36.1037 18.4538 36.0818 17.9604 36.0352C17.8841 36.0246 17.812 35.9938 17.7515 35.9461C17.6911 35.8984 17.6444 35.8354 17.6165 35.7636L16.7851 33.6773C16.7474 33.5829 16.6871 33.4993 16.6094 33.4338C16.5318 33.3684 16.4391 33.323 16.3398 33.3018C14.5745 32.9261 12.8934 32.2289 11.3803 31.2452C11.2802 31.18 11.1633 31.1452 11.0439 31.145C10.9603 31.1451 10.8777 31.162 10.8008 31.1945L8.7299 32.079C8.65922 32.1128 8.58036 32.1257 8.50257 32.1163C8.42478 32.1069 8.3513 32.0755 8.29073 32.0258C7.96105 31.753 7.61034 31.4357 7.20334 31.0361C6.79449 30.6174 6.47718 30.2685 6.19698 29.9302C6.1494 29.8696 6.11987 29.7969 6.11178 29.7203C6.10368 29.6437 6.11735 29.5664 6.15121 29.4972L7.03572 27.4269C7.07544 27.3336 7.0916 27.2319 7.08275 27.1308C7.07391 27.0297 7.04034 26.9324 6.985 26.8474C6.0013 25.3351 5.30396 23.6548 4.92774 21.8904C4.90654 21.791 4.8612 21.6984 4.79571 21.6208C4.73023 21.5431 4.64662 21.4827 4.55228 21.445L2.46595 20.6119C2.39249 20.5838 2.32806 20.5363 2.27957 20.4744C2.23107 20.4125 2.20035 20.3386 2.1907 20.2605C2.14411 19.77 2.12244 19.2774 2.12575 18.7847C2.12241 18.2891 2.14429 17.7936 2.19132 17.3002C2.2019 17.2239 2.23264 17.1518 2.28037 17.0914C2.3281 17.0309 2.3911 16.9843 2.46286 16.9563L4.55228 16.125C4.6467 16.0872 4.73035 16.0268 4.79584 15.949C4.86133 15.8712 4.90663 15.7785 4.92774 15.679C5.30341 13.9141 6.00056 12.2334 6.98438 10.7208C7.03972 10.6358 7.07329 10.5384 7.08213 10.4374C7.09098 10.3363 7.07483 10.2346 7.0351 10.1412L6.15059 8.06974C6.11671 7.99904 6.10377 7.92011 6.1133 7.84229C6.12284 7.76447 6.15445 7.69101 6.2044 7.63058C6.47718 7.29966 6.79511 6.95018 7.19406 6.54319C7.61096 6.13557 7.95982 5.81826 8.29939 5.53682C8.35996 5.48925 8.43271 5.45972 8.5093 5.45162C8.58588 5.44352 8.6632 5.45719 8.73237 5.49105L10.8032 6.37494C10.8965 6.41476 10.9982 6.43102 11.0993 6.42228C11.2004 6.41354 11.2977 6.38008 11.3828 6.32484C12.8948 5.34091 14.5749 4.64355 16.3392 4.26758C16.4385 4.24638 16.5311 4.20104 16.6088 4.13556C16.6865 4.07008 16.7468 3.98647 16.7845 3.89213L17.6177 1.80579C17.6457 1.73233 17.6933 1.6679 17.7552 1.61941C17.8171 1.57092 17.891 1.5402 17.969 1.53054C18.4063 1.48724 18.8882 1.46559 19.4449 1.46559C20.0015 1.46559 20.4834 1.48724 20.9294 1.53116C21.0055 1.54179 21.0774 1.57248 21.1377 1.62009C21.198 1.66771 21.2446 1.73052 21.2726 1.80208L22.1046 3.89213C22.1423 3.98647 22.2026 4.07008 22.2803 4.13556C22.358 4.20104 22.4506 4.24638 22.5499 4.26758C24.3151 4.64307 25.996 5.34023 27.5088 6.32422C27.5938 6.37946 27.6912 6.41292 27.7923 6.42166C27.8934 6.4304 27.995 6.41414 28.0883 6.37432L30.1598 5.48981C30.2304 5.45605 30.3092 5.44312 30.3868 5.45254C30.4645 5.46196 30.5379 5.49335 30.5984 5.54301C30.9305 5.81764 31.2788 6.13495 31.6864 6.53267C32.094 6.9508 32.4119 7.29966 32.6927 7.63986C32.7404 7.70035 32.7701 7.77312 32.7782 7.84973C32.7863 7.92635 32.7725 8.0037 32.7385 8.07283L31.854 10.1437C31.8143 10.2371 31.7981 10.3388 31.807 10.4398C31.8158 10.5409 31.8494 10.6382 31.9047 10.7233C32.8885 12.2359 33.5857 13.9166 33.9614 15.6815C33.9825 15.781 34.0278 15.8737 34.0933 15.9515C34.1587 16.0293 34.2424 16.0897 34.3368 16.1275L36.4238 16.9612C36.4961 16.9889 36.5596 17.0355 36.6078 17.0961C36.656 17.1567 36.6871 17.2291 36.6978 17.3058V17.312C36.7446 17.8014 36.7667 18.293 36.764 18.7847C36.7673 19.2803 36.7455 19.7758 36.6984 20.2692L36.7021 20.2667Z" fill="#05D35D"/>
</svg>
