<svg width="36" height="36" viewBox="0 0 36 36" fill="none" xmlns="http://www.w3.org/2000/svg">
<path d="M35.4 34.8H34.3098V12.4338C34.3098 12.102 34.041 11.8338 33.7098 11.8338H28.7082C28.377 11.8338 28.1082 12.102 28.1082 12.4338V34.8H25.9098V22.0338C25.9098 21.702 25.641 21.4338 25.3098 21.4338H20.3082C19.977 21.4338 19.7082 21.702 19.7082 22.0338V34.8H17.5098V17.2338C17.5098 16.902 17.241 16.6338 16.9098 16.6338H11.9082C11.577 16.6338 11.3082 16.902 11.3082 17.2338V34.8H9.1098V25.6338C9.1098 25.302 8.841 25.0338 8.5098 25.0338H3.5082C3.177 25.0338 2.9082 25.302 2.9082 25.6338V34.8H1.2V0.6C1.2 0.2682 0.9312 0 0.6 0C0.2688 0 0 0.2682 0 0.6V35.4C0 35.7318 0.2688 36 0.6 36H35.4C35.7312 36 36 35.7318 36 35.4C36 35.0682 35.7312 34.8 35.4 34.8ZM4.1082 34.8V26.2338H7.9098V34.8H4.1082ZM12.5082 34.8V17.8338H16.3098V34.8H12.5082ZM20.9082 34.8V22.6338H24.7098V34.8H20.9082ZM29.3082 34.8V13.0338H33.1098V34.8H29.3082Z" fill="white"/>
<path d="M6.00938 21C7.33298 21 8.40937 19.9236 8.40937 18.6C8.40937 18.1572 8.28038 17.7468 8.07037 17.3904L12.9178 11.9946C13.3348 12.3432 13.8634 12.561 14.4478 12.561C15.1936 12.561 15.8524 12.2124 16.2928 11.6772L20.5828 14.7162C20.4736 14.9904 20.4094 15.2874 20.4094 15.6C20.4094 16.9236 21.4858 18 22.8094 18C24.133 18 25.2094 16.9236 25.2094 15.6C25.2094 15.2322 25.1194 14.8878 24.9712 14.5758L30.6082 7.09021C30.8014 7.14061 31.0006 7.17601 31.2094 7.17601C32.533 7.17601 33.6094 6.09961 33.6094 4.77601C33.6094 3.45241 32.533 2.37601 31.2094 2.37601C29.8858 2.37601 28.8094 3.45241 28.8094 4.77601C28.8094 5.45461 29.095 6.06541 29.5492 6.50221L24.1786 13.6338C23.7898 13.362 23.3188 13.2 22.8094 13.2C22.2334 13.2 21.7114 13.4124 21.2974 13.7514L16.8064 10.5702C16.8298 10.437 16.8478 10.3014 16.8478 10.1616C16.8478 8.83801 15.7714 7.76161 14.4478 7.76161C13.1242 7.76161 12.0478 8.83801 12.0478 10.1616C12.0478 10.455 12.1084 10.7328 12.205 10.9932L7.22137 16.5408C6.86437 16.3296 6.45338 16.2006 6.00938 16.2006C4.68578 16.2006 3.60938 17.277 3.60938 18.6006C3.60938 19.9242 4.68578 21.0006 6.00938 21.0006V21ZM31.2094 3.57601C31.8712 3.57601 32.4094 4.11421 32.4094 4.77601C32.4094 5.43781 31.8712 5.97601 31.2094 5.97601C30.5476 5.97601 30.0094 5.43781 30.0094 4.77601C30.0094 4.11421 30.5476 3.57601 31.2094 3.57601ZM22.8094 14.4C23.4712 14.4 24.0094 14.9382 24.0094 15.6C24.0094 16.2618 23.4712 16.8 22.8094 16.8C22.1476 16.8 21.6094 16.2618 21.6094 15.6C21.6094 14.9382 22.1476 14.4 22.8094 14.4ZM14.4478 8.96161C15.1096 8.96161 15.6478 9.49981 15.6478 10.1616C15.6478 10.8234 15.1096 11.3616 14.4478 11.3616C13.786 11.3616 13.2478 10.8234 13.2478 10.1616C13.2478 9.49981 13.786 8.96161 14.4478 8.96161ZM6.00938 17.4C6.67118 17.4 7.20938 17.9382 7.20938 18.6C7.20938 19.2618 6.67118 19.8 6.00938 19.8C5.34758 19.8 4.80938 19.2618 4.80938 18.6C4.80938 17.9382 5.34758 17.4 6.00938 17.4Z" fill="white"/>
</svg>
