<svg width="24" height="25" viewBox="0 0 24 25" fill="none" xmlns="http://www.w3.org/2000/svg">
<g clip-path="url(#clip0_3759_9517)">
<path d="M23.625 12.7422C23.625 6.32031 18.4219 1.11719 12 1.11719C5.57812 1.11719 0.375 6.32031 0.375 12.7422C0.375 18.5444 4.62609 23.3538 10.1836 24.2266V16.1027H7.23047V12.7422H10.1836V10.1809C10.1836 7.26766 11.918 5.65844 14.5744 5.65844C15.8466 5.65844 17.1769 5.88531 17.1769 5.88531V8.74469H15.7106C14.2669 8.74469 13.8164 9.64094 13.8164 10.5602V12.7422H17.0405L16.5248 16.1027H13.8164V24.2266C19.3739 23.3538 23.625 18.5444 23.625 12.7422Z" fill="#3D4C57"/>
</g>
<defs>
<clipPath id="clip0_3759_9517">
<rect width="24" height="24" fill="white" transform="translate(0 0.742188)"/>
</clipPath>
</defs>
</svg>
