<svg width="38" height="38" viewBox="0 0 38 38" fill="none" xmlns="http://www.w3.org/2000/svg">
<path d="M35.0228 11.2623H27.4116V8.30934H30.4481C30.6075 8.30934 30.7603 8.24695 30.873 8.1359C30.9857 8.02485 31.049 7.87422 31.049 7.71717C31.049 7.56012 30.9857 7.4095 30.873 7.29844C30.7603 7.18739 30.6075 7.125 30.4481 7.125H23.1174C22.958 7.125 22.8052 7.18739 22.6925 7.29844C22.5798 7.4095 22.5165 7.56012 22.5165 7.71717C22.5165 7.87422 22.5798 8.02485 22.6925 8.1359C22.8052 8.24695 22.958 8.30934 23.1174 8.30934H26.2099V11.2623H2.97588C2.81652 11.2623 2.66368 11.3247 2.55099 11.4357C2.43831 11.5468 2.375 11.6974 2.375 11.8545V26.1455C2.375 26.3026 2.43831 26.4532 2.55099 26.5643C2.66368 26.6753 2.81652 26.7377 2.97588 26.7377H26.2099V29.6907H23.1174C22.958 29.6907 22.8052 29.753 22.6925 29.8641C22.5798 29.9752 22.5165 30.1258 22.5165 30.2828C22.5165 30.4399 22.5798 30.5905 22.6925 30.7016C22.8052 30.8126 22.958 30.875 23.1174 30.875H30.4481C30.6075 30.875 30.7603 30.8126 30.873 30.7016C30.9857 30.5905 31.049 30.4399 31.049 30.2828C31.049 30.1258 30.9857 29.9752 30.873 29.8641C30.7603 29.753 30.6075 29.6907 30.4481 29.6907H27.4116V26.7377H35.0228C35.1821 26.7377 35.335 26.6753 35.4477 26.5643C35.5604 26.4532 35.6237 26.3026 35.6237 26.1455V11.8939C35.6292 11.8129 35.6177 11.7317 35.59 11.6552C35.5622 11.5787 35.5188 11.5087 35.4625 11.4495C35.4061 11.3902 35.338 11.343 35.2624 11.3108C35.1867 11.2786 35.1052 11.2621 35.0228 11.2623ZM3.57676 25.5534V12.4466H26.2099V15.2575H7.55057C7.39821 15.2655 7.25463 15.3303 7.14899 15.4388C7.04335 15.5473 6.98356 15.6914 6.98174 15.8418V22.1582C6.98174 22.3153 7.04505 22.4659 7.15774 22.577C7.27042 22.688 7.42326 22.7504 7.58262 22.7504H26.2099V25.5534H3.57676ZM26.2099 16.4418V21.5582H8.15145V16.4418H26.2099ZM34.4219 25.5534H27.4116V12.4466H34.4219V25.5534Z" fill="#3B6064"/>
</svg>
