<svg width="24" height="25" viewBox="0 0 24 25" fill="none" xmlns="http://www.w3.org/2000/svg">
<g clip-path="url(#clip0_3759_9523)">
<path d="M12.0043 7.35146C9.02305 7.35146 6.61836 9.75615 6.61836 12.7374C6.61836 15.7187 9.02305 18.1233 12.0043 18.1233C14.9855 18.1233 17.3902 15.7187 17.3902 12.7374C17.3902 9.75615 14.9855 7.35146 12.0043 7.35146ZM12.0043 16.239C10.0777 16.239 8.50273 14.6687 8.50273 12.7374C8.50273 10.8062 10.073 9.23584 12.0043 9.23584C13.9355 9.23584 15.5059 10.8062 15.5059 12.7374C15.5059 14.6687 13.9309 16.239 12.0043 16.239ZM18.8668 7.13115C18.8668 7.82959 18.3043 8.3874 17.6105 8.3874C16.9121 8.3874 16.3543 7.8249 16.3543 7.13115C16.3543 6.4374 16.9168 5.8749 17.6105 5.8749C18.3043 5.8749 18.8668 6.4374 18.8668 7.13115ZM22.434 8.40615C22.3543 6.72334 21.9699 5.23271 20.7371 4.00459C19.509 2.77646 18.0184 2.39209 16.3355 2.30771C14.6012 2.20928 9.40273 2.20928 7.66836 2.30771C5.99023 2.3874 4.49961 2.77178 3.2668 3.9999C2.03398 5.22803 1.6543 6.71865 1.56992 8.40146C1.47148 10.1358 1.47148 15.3343 1.56992 17.0687C1.64961 18.7515 2.03398 20.2421 3.2668 21.4702C4.49961 22.6983 5.98555 23.0827 7.66836 23.1671C9.40273 23.2655 14.6012 23.2655 16.3355 23.1671C18.0184 23.0874 19.509 22.703 20.7371 21.4702C21.9652 20.2421 22.3496 18.7515 22.434 17.0687C22.5324 15.3343 22.5324 10.1405 22.434 8.40615ZM20.1934 18.9296C19.8277 19.8483 19.1199 20.5562 18.1965 20.9265C16.8137 21.4749 13.5324 21.3483 12.0043 21.3483C10.4762 21.3483 7.19023 21.4702 5.81211 20.9265C4.89336 20.5608 4.18555 19.853 3.81523 18.9296C3.2668 17.5468 3.39336 14.2655 3.39336 12.7374C3.39336 11.2093 3.27148 7.92334 3.81523 6.54521C4.18086 5.62646 4.88867 4.91865 5.81211 4.54834C7.19492 3.9999 10.4762 4.12646 12.0043 4.12646C13.5324 4.12646 16.8184 4.00459 18.1965 4.54834C19.1152 4.91396 19.823 5.62178 20.1934 6.54521C20.7418 7.92803 20.6152 11.2093 20.6152 12.7374C20.6152 14.2655 20.7418 17.5515 20.1934 18.9296Z" fill="#3D4C57"/>
</g>
<defs>
<clipPath id="clip0_3759_9523">
<rect width="24" height="24" fill="white" transform="translate(0 0.742188)"/>
</clipPath>
</defs>
</svg>
