<svg width="36" height="36" viewBox="0 0 36 36" fill="none" xmlns="http://www.w3.org/2000/svg">
<path d="M32.0625 19.5938V18.4063C32.3902 18.4063 32.6563 18.1405 32.6563 17.8125V14.25C32.6563 13.922 32.3902 13.6563 32.0625 13.6563H28.8563L28.7412 13.2102C28.4787 12.1902 28.0709 11.2131 27.5298 10.3092L27.2923 9.91192L29.5688 7.63154C29.7979 7.40193 29.7979 7.02991 29.5688 6.80029L27.0472 4.275C26.8143 4.05304 26.4486 4.05304 26.2157 4.275L23.9351 6.5556L23.538 6.3181C22.6328 5.77677 21.6547 5.36903 20.6333 5.10625L20.1875 4.99028V1.78125C20.1875 1.4533 19.9217 1.1875 19.5938 1.1875H16.0313C15.7033 1.1875 15.4375 1.4533 15.4375 1.78125V4.9875L14.9915 5.10277C13.9715 5.36509 12.9943 5.77283 12.09 6.31323L11.6927 6.55097L9.41279 4.275C9.1797 4.05118 8.81162 4.05118 8.57853 4.275L6.05625 6.79658C5.94539 6.90722 5.883 7.05751 5.883 7.21406C5.883 7.37085 5.94539 7.52091 6.05625 7.63154L8.33685 9.91192L8.09935 10.3092C7.55849 11.2131 7.15051 12.1902 6.8882 13.2102L6.77177 13.6563H3.5625C3.23455 13.6563 2.96875 13.922 2.96875 14.25V17.8125C2.96875 18.1405 3.23455 18.4063 3.5625 18.4063V19.5938C2.57887 19.5938 1.78125 18.7961 1.78125 17.8125V14.25C1.78125 13.2664 2.57887 12.4688 3.5625 12.4688H5.8598C6.10473 11.6477 6.43593 10.855 6.84784 10.104L5.21503 8.47114C4.88104 8.13786 4.69341 7.68559 4.69341 7.21406C4.69341 6.74254 4.88104 6.29027 5.21503 5.95722L7.73847 3.43378C8.44146 2.76094 9.54987 2.76094 10.2529 3.43378L11.8852 5.06589C12.6362 4.65421 13.4292 4.32371 14.25 4.07902V1.78125C14.25 0.79762 15.0476 0 16.0313 0H19.5938C20.5774 0 21.375 0.79762 21.375 1.78125V4.07902C22.1961 4.32371 22.9886 4.65491 23.7398 5.06659L25.3726 3.43378C26.0758 2.76094 27.184 2.76094 27.8872 3.43378L30.4102 5.95652C30.744 6.28981 30.9314 6.74161 30.9314 7.21337C30.9314 7.68512 30.744 8.13739 30.4102 8.47045L28.7774 10.1033C29.1891 10.8547 29.5201 11.6477 29.7652 12.4688H32.0625C33.0461 12.4688 33.8438 13.2664 33.8438 14.25V17.8125C33.8438 18.7961 33.0461 19.5938 32.0625 19.5938Z" fill="white"/>
<path d="M26.125 16.0313H24.9375C24.9375 12.0963 21.7475 8.90625 17.8125 8.90625C13.8775 8.90625 10.6875 12.0963 10.6875 16.0313H9.5C9.5 11.4404 13.2216 7.71875 17.8125 7.71875C22.4032 7.71875 26.125 11.4404 26.125 16.0313Z" fill="white"/>
<path d="M17.8125 20.7813C15.845 20.7813 14.25 19.186 14.25 17.2188C14.25 15.2513 15.845 13.6562 17.8125 13.6562C19.7802 13.6562 21.375 15.2513 21.375 17.2188C21.3729 19.1855 19.7793 20.7792 17.8125 20.7813ZM17.8125 14.8438C16.5009 14.8438 15.4375 15.9072 15.4375 17.2188C15.4375 18.5303 16.5009 19.5938 17.8125 19.5938C19.1241 19.5938 20.1875 18.5303 20.1875 17.2188C20.1875 15.9072 19.1241 14.8438 17.8125 14.8438Z" fill="white"/>
<path d="M27.9063 23.1563C25.9388 23.1563 24.3438 21.561 24.3438 19.5938C24.3438 17.6263 25.9388 16.0312 27.9063 16.0312C29.8737 16.0312 31.4688 17.6263 31.4688 19.5938C31.4667 21.5605 29.873 23.1542 27.9063 23.1563ZM27.9063 17.2188C26.5947 17.2188 25.5313 18.2822 25.5313 19.5938C25.5313 20.9053 26.5947 21.9688 27.9063 21.9688C29.2178 21.9688 30.2813 20.9053 30.2813 19.5938C30.2813 18.2822 29.2178 17.2188 27.9063 17.2188Z" fill="white"/>
<path d="M7.71875 23.1563C5.75126 23.1563 4.15625 21.561 4.15625 19.5938C4.15625 17.6263 5.75126 16.0312 7.71875 16.0312C9.68648 16.0312 11.2813 17.6263 11.2813 19.5938C11.2792 21.5605 9.68555 23.1542 7.71875 23.1563ZM7.71875 17.2188C6.40717 17.2188 5.34375 18.2822 5.34375 19.5938C5.34375 20.9053 6.40717 21.9688 7.71875 21.9688C9.03034 21.9688 10.0938 20.9053 10.0938 19.5938C10.0938 18.2822 9.03034 17.2188 7.71875 17.2188Z" fill="white"/>
<path d="M33.289 24.6796C32.4041 24.0714 31.3551 23.747 30.2813 23.75H25.5313C25.2425 23.7525 24.9542 23.7787 24.6696 23.8281C24.2897 23.2339 23.7955 22.7213 23.2156 22.3194C23.1287 22.2538 23.0373 22.1942 22.9419 22.1415C22.1114 21.6384 21.1584 21.3736 20.1875 21.375H15.4375C13.6217 21.3685 11.9297 22.2951 10.957 23.8281C10.6717 23.7787 10.383 23.7525 10.0938 23.75H5.34375C4.27083 23.747 3.22202 24.071 2.33766 24.6784C0.876013 25.6729 0.000927735 27.3259 0 29.0937V31.4687C0.00208739 33.0899 0.945362 34.5623 2.41791 35.2414C2.96156 35.4974 3.55554 35.6285 4.15625 35.625H10.0938V34.4375H4.75V27.9062H3.5625V34.3779C3.33892 34.3331 3.12183 34.2607 2.91587 34.1631C1.86405 33.6781 1.18982 32.6268 1.1875 31.4687V29.0937C1.18889 27.7179 1.87054 26.4318 3.00795 25.6581C3.69517 25.1863 4.50995 24.9352 5.34375 24.9375H10.0938C10.1984 24.9375 10.2992 24.9486 10.4013 24.9556C10.2004 25.5219 10.0963 26.118 10.0938 26.7187V32.6562C10.0958 34.2951 11.4239 35.6229 13.0625 35.625H14.8438V26.125H13.6563V34.4375H13.0625C12.0789 34.4375 11.2813 33.6399 11.2813 32.6562V26.7187C11.2813 24.423 13.1423 22.5625 15.4375 22.5625H20.1875C20.9515 22.5629 21.7002 22.7745 22.3517 23.1734C22.412 23.2063 22.47 23.2434 22.5249 23.2843C23.0813 23.6653 23.538 24.1744 23.8562 24.7686C24.1761 25.3689 24.3438 26.0385 24.3438 26.7187V32.6562C24.3438 33.6399 23.5461 34.4375 22.5625 34.4375H21.9688V26.125H20.7813V35.625H22.5625C24.2013 35.6229 25.5292 34.2951 25.5313 32.6562V26.7187C25.5285 26.118 25.4248 25.5222 25.2242 24.9556C25.3265 24.9486 25.4273 24.9375 25.5313 24.9375H30.2813C31.1155 24.9352 31.931 25.187 32.6187 25.6593C33.7552 26.4334 34.4359 27.7186 34.4375 29.0937V31.4687C34.4354 32.6309 33.7561 33.6853 32.6992 34.1677C32.4962 34.2638 32.2824 34.3343 32.0625 34.3779V27.9062H30.875V34.4375H25.5313V35.625H31.4688C32.066 35.6287 32.6565 35.4993 33.1971 35.246C34.6745 34.569 35.6227 33.0939 35.625 31.4687V29.0937C35.6241 27.3266 34.7497 25.6743 33.289 24.6796Z" fill="white"/>
<path d="M15.4375 34.4375H20.1875V35.625H15.4375V34.4375Z" fill="white"/>
</svg>
