<svg width="44" height="24" viewBox="0 0 44 24" fill="none" xmlns="http://www.w3.org/2000/svg">
<path d="M37.86 23.818C37.1144 23.8186 36.3853 23.598 35.7651 23.1841C35.1449 22.7703 34.6613 22.1818 34.3756 21.493C34.0899 20.8043 34.0149 20.0464 34.16 19.315C34.3051 18.5836 34.6639 17.9117 35.1909 17.3843C35.718 16.8569 36.3896 16.4976 37.1209 16.3519C37.8521 16.2063 38.6102 16.2807 39.2991 16.566C39.988 16.8512 40.5769 17.3343 40.9912 17.9542C41.4055 18.5742 41.6266 19.303 41.6266 20.0487C41.6261 21.0477 41.2292 22.0058 40.523 22.7125C39.8168 23.4192 38.8591 23.8168 37.86 23.818ZM37.86 17.6543C37.3863 17.6538 36.9231 17.7937 36.529 18.0565C36.1349 18.3193 35.8276 18.693 35.646 19.1305C35.4643 19.5679 35.4165 20.0495 35.5086 20.5141C35.6007 20.9787 35.8285 21.4056 36.1632 21.7408C36.498 22.0759 36.9246 22.3042 37.3891 22.3968C37.8537 22.4894 38.3352 22.4422 38.7729 22.261C39.2106 22.0799 39.5847 21.773 39.8479 21.3792C40.1111 20.9854 40.2516 20.5223 40.2516 20.0487C40.2514 19.4142 39.9994 18.8057 39.551 18.3568C39.1026 17.9079 38.4945 17.6553 37.86 17.6543Z" fill="#05D35D"/>
<path d="M17.9976 23.818C17.252 23.8188 16.5228 23.5983 15.9025 23.1846C15.2821 22.7708 14.7984 22.1824 14.5126 21.4937C14.2267 20.805 14.1516 20.047 14.2966 19.3155C14.4416 18.5841 14.8003 17.9121 15.3273 17.3846C15.8543 16.8571 16.526 16.4977 17.2573 16.352C17.9885 16.2063 18.7466 16.2807 19.4356 16.5659C20.1246 16.8511 20.7135 17.3342 21.1278 17.9541C21.5422 18.5741 21.7633 19.303 21.7633 20.0487C21.7626 21.0475 21.3658 22.0053 20.6598 22.7119C19.9539 23.4185 18.9965 23.8163 17.9976 23.818ZM17.9976 17.6543C17.5239 17.6536 17.0606 17.7934 16.6664 18.056C16.2722 18.3187 15.9647 18.6924 15.7829 19.1298C15.6012 19.5673 15.5532 20.0488 15.6452 20.5135C15.7372 20.9782 15.9649 21.4052 16.2996 21.7404C16.6343 22.0756 17.061 22.3041 17.5255 22.3967C17.9901 22.4894 18.4717 22.4422 18.9094 22.2611C19.3471 22.08 19.7213 21.7731 19.9846 21.3793C20.2478 20.9854 20.3883 20.5224 20.3883 20.0487C20.3878 19.4144 20.1359 18.8062 19.6878 18.3574C19.2397 17.9086 18.6319 17.6558 17.9976 17.6543Z" fill="#05D35D"/>
<path d="M42.8201 20.7363H40.94C40.7577 20.7363 40.5828 20.6639 40.4539 20.5349C40.3249 20.406 40.2525 20.2311 40.2525 20.0488C40.2525 19.8665 40.3249 19.6916 40.4539 19.5627C40.5828 19.4337 40.7577 19.3613 40.94 19.3613H42.6258V15.7157C42.6253 15.2228 42.4991 14.7382 42.2591 14.3077L38.5374 7.6352C38.5056 7.57825 38.4592 7.53082 38.403 7.49778C38.3467 7.46475 38.2827 7.44732 38.2175 7.44728H33.1455V19.364H34.7827C34.965 19.364 35.1399 19.4365 35.2688 19.5654C35.3978 19.6943 35.4702 19.8692 35.4702 20.0516C35.4702 20.2339 35.3978 20.4088 35.2688 20.5377C35.1399 20.6666 34.965 20.7391 34.7827 20.7391H32.458C32.2757 20.7391 32.1008 20.6666 31.9719 20.5377C31.8429 20.4088 31.7705 20.2339 31.7705 20.0516V6.75977C31.7705 6.57743 31.8429 6.40256 31.9719 6.27363C32.1008 6.1447 32.2757 6.07227 32.458 6.07227H38.2175C38.5276 6.07211 38.8322 6.15479 39.0997 6.31176C39.3673 6.46872 39.588 6.69427 39.7392 6.96511L43.4599 13.6385C43.8137 14.2737 43.9995 14.9886 43.9999 15.7157V19.5565C43.9994 19.8693 43.8749 20.1691 43.6538 20.3902C43.4326 20.6114 43.1328 20.7358 42.8201 20.7363Z" fill="#05D35D"/>
<path d="M14.918 20.7361H8.32618C8.14384 20.7361 7.96897 20.6637 7.84004 20.5348C7.71111 20.4058 7.63867 20.231 7.63867 20.0486V14.7612C7.63867 14.5789 7.71111 14.404 7.84004 14.2751C7.96897 14.1462 8.14384 14.0737 8.32618 14.0737C8.50852 14.0737 8.68339 14.1462 8.81232 14.2751C8.94125 14.404 9.01368 14.5789 9.01368 14.7612V19.3611H14.918C15.1003 19.3611 15.2752 19.4335 15.4041 19.5625C15.5331 19.6914 15.6055 19.8663 15.6055 20.0486C15.6055 20.231 15.5331 20.4058 15.4041 20.5348C15.2752 20.6637 15.1003 20.7361 14.918 20.7361Z" fill="#05D35D"/>
<path d="M8.32618 12.3222C8.14384 12.3222 7.96897 12.2498 7.84004 12.1208C7.71111 11.9919 7.63867 11.817 7.63867 11.6347V7.01832C7.63867 6.83598 7.71111 6.66111 7.84004 6.53218C7.96897 6.40324 8.14384 6.33081 8.32618 6.33081C8.50852 6.33081 8.68339 6.40324 8.81232 6.53218C8.94125 6.66111 9.01368 6.83598 9.01368 7.01832V11.6374C9.01296 11.8193 8.9402 11.9935 8.81135 12.1218C8.6825 12.2501 8.50804 12.3222 8.32618 12.3222Z" fill="#05D35D"/>
<path d="M32.4576 20.7361H21.0753C20.893 20.7361 20.7181 20.6637 20.5891 20.5347C20.4602 20.4058 20.3878 20.2309 20.3878 20.0486C20.3878 19.8663 20.4602 19.6914 20.5891 19.5624C20.7181 19.4335 20.893 19.3611 21.0753 19.3611H31.7701V1.37501H9.01368V4.20662C9.01368 4.38896 8.94125 4.56383 8.81232 4.69276C8.68339 4.82169 8.50852 4.89412 8.32618 4.89412C8.14384 4.89412 7.96897 4.82169 7.84004 4.69276C7.71111 4.56383 7.63867 4.38896 7.63867 4.20662V1.24851C7.63916 0.917375 7.77098 0.599955 8.00521 0.365892C8.23945 0.13183 8.55696 0.000242412 8.8881 0H31.8966C32.2276 0.000484948 32.5449 0.13218 32.7789 0.366216C33.013 0.600252 33.1447 0.917534 33.1451 1.24851V20.0486C33.1451 20.2309 33.0727 20.4058 32.9438 20.5347C32.8148 20.6637 32.64 20.7361 32.4576 20.7361Z" fill="#05D35D"/>
<path d="M11.0442 15.4487H2.31837C2.13603 15.4487 1.96116 15.3763 1.83223 15.2474C1.70329 15.1184 1.63086 14.9436 1.63086 14.7612C1.63086 14.5789 1.70329 14.404 1.83223 14.2751C1.96116 14.1462 2.13603 14.0737 2.31837 14.0737H11.0442C11.2265 14.0737 11.4014 14.1462 11.5303 14.2751C11.6593 14.404 11.7317 14.5789 11.7317 14.7612C11.7317 14.9436 11.6593 15.1184 11.5303 15.2474C11.4014 15.3763 11.2265 15.4487 11.0442 15.4487Z" fill="#05D35D"/>
<path d="M17.9975 12.322H5.8213C5.63896 12.322 5.46409 12.2496 5.33516 12.1207C5.20622 11.9917 5.13379 11.8169 5.13379 11.6345C5.13379 11.4522 5.20622 11.2773 5.33516 11.1484C5.46409 11.0195 5.63896 10.947 5.8213 10.947H17.9975C18.1798 10.947 18.3547 11.0195 18.4836 11.1484C18.6126 11.2773 18.685 11.4522 18.685 11.6345C18.685 11.8169 18.6126 11.9917 18.4836 12.1207C18.3547 12.2496 18.1798 12.322 17.9975 12.322Z" fill="#05D35D"/>
<path d="M5.4423 8.69215H0.687506C0.505168 8.69215 0.330298 8.61972 0.201366 8.49078C0.0724335 8.36185 0 8.18698 0 8.00464C0 7.82231 0.0724335 7.64744 0.201366 7.5185C0.330298 7.38957 0.505168 7.31714 0.687506 7.31714H5.4423C5.62464 7.31714 5.79951 7.38957 5.92844 7.5185C6.05737 7.64744 6.1298 7.82231 6.1298 8.00464C6.1298 8.18698 6.05737 8.36185 5.92844 8.49078C5.79951 8.61972 5.62464 8.69215 5.4423 8.69215Z" fill="#05D35D"/>
<path d="M13.0659 4.8943H4.67286C4.49052 4.8943 4.31565 4.82187 4.18672 4.69293C4.05778 4.564 3.98535 4.38913 3.98535 4.20679C3.98535 4.02446 4.05778 3.84959 4.18672 3.72065C4.31565 3.59172 4.49052 3.51929 4.67286 3.51929H13.0659C13.2483 3.51929 13.4231 3.59172 13.5521 3.72065C13.681 3.84959 13.7534 4.02446 13.7534 4.20679C13.7534 4.38913 13.681 4.564 13.5521 4.69293C13.4231 4.82187 13.2483 4.8943 13.0659 4.8943Z" fill="#05D35D"/>
</svg>
