<svg width="37" height="37" viewBox="0 0 37 37" fill="none" xmlns="http://www.w3.org/2000/svg">
<path d="M13.1035 30.8332C12.9293 30.8332 12.7551 30.7747 12.6118 30.6544C12.2849 30.3815 12.2402 29.8959 12.5131 29.5691L14.1596 27.5927C15.305 26.219 15.527 24.2981 14.7285 22.6994C14.5805 22.4034 14.6375 22.0442 14.8734 21.8099L17.6838 18.9994C18.8077 17.8755 18.8077 16.044 17.6838 14.9202L9.00271 22.923C8.68975 23.2112 8.20104 23.1927 7.91275 22.8782C7.62446 22.5653 7.6445 22.0766 7.95746 21.7883L16.6386 13.787C17.2491 13.2243 18.1864 13.2413 18.7738 13.8302C20.5005 15.5569 20.5005 18.3642 18.7738 20.0909L16.3364 22.5283C17.1258 24.5617 16.7604 26.8835 15.3451 28.5824L13.6955 30.5557C13.5429 30.7392 13.324 30.8332 13.1035 30.8332Z" fill="#05D35D"/>
<path d="M16.1872 36.9999H5.39551C4.12055 36.9999 3.08301 35.9624 3.08301 34.6874V24.5186C3.08301 20.9219 4.79426 17.4778 7.66022 15.304L10.8653 12.8744C11.206 12.6154 11.6886 12.6832 11.946 13.0224C12.2035 13.3615 12.1372 13.8456 11.798 14.1031L8.59292 16.5327C6.10776 18.4167 4.62467 21.4013 4.62467 24.5186V34.6874C4.62467 35.1129 4.97001 35.4582 5.39551 35.4582H16.1872C16.6127 35.4582 16.958 35.1129 16.958 34.6874V33.1488C16.958 32.7233 17.3033 32.378 17.7288 32.378C19.4293 32.378 20.8122 30.9951 20.8122 29.2947V25.8228C20.8122 25.3973 21.1575 25.052 21.583 25.052C22.0085 25.052 22.3538 25.3973 22.3538 25.8228V29.2947C22.3538 31.5825 20.6842 33.488 18.4997 33.8549V34.6874C18.4997 35.9624 17.4621 36.9999 16.1872 36.9999Z" fill="#05D35D"/>
<path d="M30.0618 29.2917H26.9785C26.6871 29.2917 26.4189 29.1267 26.2894 28.8646L26.1275 28.5393C25.4076 27.1025 23.9615 26.2083 22.3535 26.2083C20.7456 26.2083 19.2995 27.1025 18.5811 28.5409L18.4192 28.8662C18.2866 29.1267 18.0199 29.2917 17.7285 29.2917H14.6452C14.2197 29.2917 13.8743 28.9463 13.8743 28.5208C13.8743 28.0953 14.2197 27.75 14.6452 27.75H17.2537C18.2511 25.8445 20.1952 24.6667 22.3535 24.6667C24.5118 24.6667 26.4559 25.8445 27.4549 27.75H30.0618C31.3368 27.75 32.3743 26.7125 32.3743 25.4375V3.85417C32.3743 2.57921 31.3368 1.54167 30.0618 1.54167H27.4534C26.4559 3.44563 24.5118 4.625 22.3535 4.625C20.1952 4.625 18.2511 3.44563 17.2521 1.54167H14.6452C13.3702 1.54167 12.3327 2.57921 12.3327 3.85417V19.5113C12.3327 19.9368 11.9873 20.2822 11.5618 20.2822C11.1363 20.2822 10.791 19.9384 10.791 19.5113V3.85417C10.791 1.72975 12.5208 0 14.6452 0H17.7285C18.0199 0 18.2866 0.164958 18.4176 0.4255L18.5811 0.750792C19.2995 2.18917 20.7456 3.08333 22.3535 3.08333C23.9615 3.08333 25.4076 2.18917 26.1275 0.750792L26.2909 0.4255C26.4204 0.164958 26.6871 0 26.9785 0H30.0618C32.1863 0 33.916 1.72975 33.916 3.85417V25.4375C33.916 27.5619 32.1863 29.2917 30.0618 29.2917Z" fill="#05D35D"/>
<path d="M13.1035 10.7917H11.5618C11.1363 10.7917 10.791 10.4463 10.791 10.0208C10.791 9.59533 11.1363 9.25 11.5618 9.25H13.1035C13.529 9.25 13.8743 9.59533 13.8743 10.0208C13.8743 10.4463 13.529 10.7917 13.1035 10.7917Z" fill="#05D35D"/>
<path d="M27.3331 10.7917H24.4872C24.0617 10.7917 23.7164 10.4463 23.7164 10.0208C23.7164 9.59533 24.0617 9.25 24.4872 9.25H27.3331C27.7586 9.25 28.1039 9.59533 28.1039 10.0208C28.1039 10.4463 27.7601 10.7917 27.3331 10.7917ZM20.2183 10.7917H17.3724C16.9469 10.7917 16.6016 10.4463 16.6016 10.0208C16.6016 9.59533 16.9469 9.25 17.3724 9.25H20.2183C20.6438 9.25 20.9891 9.59533 20.9891 10.0208C20.9891 10.4463 20.6454 10.7917 20.2183 10.7917Z" fill="#05D35D"/>
<path d="M33.1455 10.7917H31.6038C31.1783 10.7917 30.833 10.4463 30.833 10.0208C30.833 9.59533 31.1783 9.25 31.6038 9.25H33.1455C33.571 9.25 33.9163 9.59533 33.9163 10.0208C33.9163 10.4463 33.571 10.7917 33.1455 10.7917Z" fill="#05D35D"/>
</svg>
