<svg width="24" height="25" viewBox="0 0 24 25" fill="none" xmlns="http://www.w3.org/2000/svg">
<g clip-path="url(#clip0_3759_9528)">
<path d="M21 2.24219H2.99531C2.17031 2.24219 1.5 2.92188 1.5 3.75625V21.7281C1.5 22.5625 2.17031 23.2422 2.99531 23.2422H21C21.825 23.2422 22.5 22.5625 22.5 21.7281V3.75625C22.5 2.92188 21.825 2.24219 21 2.24219ZM7.84687 20.2422H4.73438V10.2203H7.85156V20.2422H7.84687ZM6.29062 8.85156C5.29219 8.85156 4.48594 8.04063 4.48594 7.04688C4.48594 6.05312 5.29219 5.24219 6.29062 5.24219C7.28437 5.24219 8.09531 6.05312 8.09531 7.04688C8.09531 8.04531 7.28906 8.85156 6.29062 8.85156ZM19.5141 20.2422H16.4016V15.3672C16.4016 14.2047 16.3781 12.7094 14.7844 12.7094C13.1625 12.7094 12.9141 13.975 12.9141 15.2828V20.2422H9.80156V10.2203H12.7875V11.5891H12.8297C13.2469 10.8016 14.2641 9.97187 15.7781 9.97187C18.9281 9.97187 19.5141 12.0484 19.5141 14.7484V20.2422Z" fill="#3D4C57"/>
</g>
<defs>
<clipPath id="clip0_3759_9528">
<rect width="24" height="24" fill="white" transform="translate(0 0.742188)"/>
</clipPath>
</defs>
</svg>
