<svg width="20" height="19" viewBox="0 0 20 19" fill="none" xmlns="http://www.w3.org/2000/svg">
<path d="M17.6718 6.94963e-05H2.02765C1.67269 -0.00354292 1.3308 0.133804 1.07699 0.381972C0.823186 0.63014 0.678192 0.968859 0.673828 1.32381V17.0311C0.678981 17.3856 0.824322 17.7235 1.07804 17.971C1.33177 18.2185 1.67321 18.3555 2.02765 18.3519H17.6718C18.0268 18.3547 18.3684 18.2169 18.6221 17.9685C18.8758 17.7202 19.0209 17.3816 19.0256 17.0266V1.31929C19.0193 0.965387 18.8735 0.628283 18.62 0.381254C18.3665 0.134225 18.0258 -0.00276174 17.6718 6.94963e-05Z" fill="#0076B2"/>
<path d="M3.39142 6.87888H6.1156V15.6441H3.39142V6.87888ZM4.75426 2.51657C5.06671 2.51657 5.37215 2.60924 5.63192 2.78286C5.89169 2.95648 6.09413 3.20325 6.21364 3.49194C6.33314 3.78064 6.36433 4.09829 6.30326 4.40472C6.2422 4.71115 6.09162 4.99258 5.87058 5.21341C5.64953 5.43424 5.36796 5.58455 5.06148 5.64532C4.75499 5.70609 4.43737 5.6746 4.14879 5.55483C3.86021 5.43505 3.61363 5.23237 3.44026 4.97243C3.26689 4.7125 3.17451 4.40698 3.17481 4.09452C3.1752 3.67589 3.34179 3.27453 3.63795 2.97865C3.93411 2.68277 4.33563 2.51657 4.75426 2.51657Z" fill="white"/>
<path d="M7.82422 6.87904H10.4356V8.08244H10.4717C10.8357 7.3935 11.7232 6.66695 13.0485 6.66695C15.8073 6.66093 16.3187 8.47655 16.3187 10.8307V15.6443H13.5945V11.3797C13.5945 10.3644 13.5765 9.05719 12.179 9.05719C10.7816 9.05719 10.5439 10.1643 10.5439 11.3136V15.6443H7.82422V6.87904Z" fill="white"/>
</svg>
