<svg width="20" height="20" viewBox="0 0 20 20" fill="none" xmlns="http://www.w3.org/2000/svg">
<path d="M0.806029 1.0701L0.806069 1.07014L8.03036 8.29553L8.24999 8.51519V8.82582V16.875C8.24999 16.9361 8.27977 16.9934 8.32987 17.0285L0.806029 1.0701ZM0.806029 1.0701C0.769516 1.03359 0.757025 1.00122 0.752392 0.974285C0.747043 0.943189 0.750304 0.905037 0.766359 0.866336C0.78242 0.82762 0.807209 0.798191 0.833194 0.779852C0.855754 0.76393 0.887475 0.75 0.938589 0.75H18.3116H19.0616C19.1132 0.75 19.1449 0.764057 19.1672 0.779823C19.193 0.798025 19.2177 0.827304 19.2337 0.866019C19.2497 0.90475 19.253 0.943091 19.2476 0.974443C19.2429 1.00167 19.2303 1.03396 19.1941 1.07012L19.1941 1.07013L11.9696 8.29552L11.75 8.51518V8.82582V19.0617C11.75 19.2101 11.5802 19.303 11.455 19.2153L11.4549 19.2153L8.33002 17.0287L0.806029 1.0701Z" stroke="white" stroke-width="1.5"/>
</svg>
