<svg width="24" height="24" viewBox="0 0 24 24" fill="none" xmlns="http://www.w3.org/2000/svg">
<g clip-path="url(#clip0_2906_9223)">
<path d="M12.0043 6.60937C9.02305 6.60937 6.61836 9.01406 6.61836 11.9953C6.61836 14.9766 9.02305 17.3812 12.0043 17.3812C14.9855 17.3812 17.3902 14.9766 17.3902 11.9953C17.3902 9.01406 14.9855 6.60937 12.0043 6.60937ZM12.0043 15.4969C10.0777 15.4969 8.50273 13.9266 8.50273 11.9953C8.50273 10.0641 10.073 8.49374 12.0043 8.49374C13.9355 8.49374 15.5059 10.0641 15.5059 11.9953C15.5059 13.9266 13.9309 15.4969 12.0043 15.4969ZM18.8668 6.38906C18.8668 7.08749 18.3043 7.64531 17.6105 7.64531C16.9121 7.64531 16.3543 7.08281 16.3543 6.38906C16.3543 5.69531 16.9168 5.13281 17.6105 5.13281C18.3043 5.13281 18.8668 5.69531 18.8668 6.38906ZM22.434 7.66406C22.3543 5.98124 21.9699 4.49062 20.7371 3.26249C19.509 2.03437 18.0184 1.64999 16.3355 1.56562C14.6012 1.46718 9.40273 1.46718 7.66836 1.56562C5.99023 1.64531 4.49961 2.02968 3.2668 3.25781C2.03398 4.48593 1.6543 5.97656 1.56992 7.65937C1.47148 9.39374 1.47148 14.5922 1.56992 16.3266C1.64961 18.0094 2.03398 19.5 3.2668 20.7281C4.49961 21.9562 5.98555 22.3406 7.66836 22.425C9.40273 22.5234 14.6012 22.5234 16.3355 22.425C18.0184 22.3453 19.509 21.9609 20.7371 20.7281C21.9652 19.5 22.3496 18.0094 22.434 16.3266C22.5324 14.5922 22.5324 9.39843 22.434 7.66406ZM20.1934 18.1875C19.8277 19.1062 19.1199 19.8141 18.1965 20.1844C16.8137 20.7328 13.5324 20.6062 12.0043 20.6062C10.4762 20.6062 7.19023 20.7281 5.81211 20.1844C4.89336 19.8187 4.18555 19.1109 3.81523 18.1875C3.2668 16.8047 3.39336 13.5234 3.39336 11.9953C3.39336 10.4672 3.27148 7.18124 3.81523 5.80312C4.18086 4.88437 4.88867 4.17656 5.81211 3.80624C7.19492 3.25781 10.4762 3.38437 12.0043 3.38437C13.5324 3.38437 16.8184 3.26249 18.1965 3.80624C19.1152 4.17187 19.823 4.87968 20.1934 5.80312C20.7418 7.18593 20.6152 10.4672 20.6152 11.9953C20.6152 13.5234 20.7418 16.8094 20.1934 18.1875Z" fill="#3D4C57"/>
</g>
<defs>
<clipPath id="clip0_2906_9223">
<rect width="24" height="24" fill="white"/>
</clipPath>
</defs>
</svg>
