<svg width="67" height="67" viewBox="0 0 67 67" fill="none" xmlns="http://www.w3.org/2000/svg">
<path d="M43.2709 19.5416H23.7292C21.4205 19.5416 19.5417 17.6628 19.5417 15.3541C19.5417 13.0454 21.4205 11.1666 23.7292 11.1666H43.2709C45.5796 11.1666 47.4584 13.0454 47.4584 15.3541C47.4584 17.6628 45.5796 19.5416 43.2709 19.5416ZM23.7292 13.9583C22.9587 13.9583 22.3334 14.5864 22.3334 15.3541C22.3334 16.1218 22.9587 16.75 23.7292 16.75H43.2709C44.0414 16.75 44.6667 16.1218 44.6667 15.3541C44.6667 14.5864 44.0414 13.9583 43.2709 13.9583H23.7292Z" fill="#05D35D"/>
<path d="M40.4793 13.9583C40.0689 13.9583 39.6641 13.7797 39.3877 13.4335C38.9076 12.8305 39.0053 11.9539 39.6055 11.471L47.3496 5.27625C48.067 4.70396 47.8744 3.94183 47.7962 3.72129C47.7208 3.50633 47.397 2.79167 46.4786 2.79167H20.5216C19.6032 2.79167 19.2793 3.50633 19.204 3.72408C19.1258 3.94463 18.9304 4.70675 19.6506 5.27904L27.3947 11.4738C27.9949 11.9567 28.0926 12.8333 27.6125 13.4363C27.1323 14.0365 26.2529 14.1342 25.6499 13.654L17.9058 7.45933C16.4961 6.3315 15.9712 4.50296 16.5686 2.80004C17.1661 1.09992 18.7182 0 20.5216 0H46.4813C48.2848 0 49.8369 1.09992 50.4343 2.80004C51.0318 4.50296 50.5069 6.3315 49.0971 7.45933L41.3531 13.654C41.0934 13.8578 40.7863 13.9583 40.4793 13.9583Z" fill="#05D35D"/>
<path d="M34.8958 51.6458H27.9166C27.1461 51.6458 26.5208 51.0205 26.5208 50.25C26.5208 49.4795 27.1461 48.8541 27.9166 48.8541H34.8958C36.434 48.8541 37.6874 47.6035 37.6874 46.0625C37.6874 44.5215 36.434 43.2708 34.8958 43.2708H32.1041C29.0249 43.2708 26.5208 40.7667 26.5208 37.6875C26.5208 34.6083 29.0249 32.1041 32.1041 32.1041H39.0833C39.8538 32.1041 40.4791 32.7295 40.4791 33.5C40.4791 34.2705 39.8538 34.8958 39.0833 34.8958H32.1041C30.5659 34.8958 29.3124 36.1465 29.3124 37.6875C29.3124 39.2285 30.5659 40.4791 32.1041 40.4791H34.8958C37.975 40.4791 40.4791 42.9833 40.4791 46.0625C40.4791 49.1417 37.975 51.6458 34.8958 51.6458Z" fill="#05D35D"/>
<path d="M33.5001 55.8333C32.7296 55.8333 32.1042 55.208 32.1042 54.4375V50.25C32.1042 49.4795 32.7296 48.8541 33.5001 48.8541C34.2706 48.8541 34.8959 49.4795 34.8959 50.25V54.4375C34.8959 55.208 34.2706 55.8333 33.5001 55.8333Z" fill="#05D35D"/>
<path d="M33.5001 34.8958C32.7296 34.8958 32.1042 34.2705 32.1042 33.5V29.3125C32.1042 28.542 32.7296 27.9166 33.5001 27.9166C34.2706 27.9166 34.8959 28.542 34.8959 29.3125V33.5C34.8959 34.2705 34.2706 34.8958 33.5001 34.8958Z" fill="#05D35D"/>
<path d="M43.2708 67H23.7292C13.1236 67 8.375 57.8852 8.375 48.8542C8.375 35.8925 15.2174 22.4729 24.642 16.9398C24.857 16.8142 25.0999 16.75 25.3483 16.75H41.6517C41.9001 16.75 42.143 16.8142 42.358 16.9398C51.7826 22.4729 58.625 35.8925 58.625 48.8542C58.625 57.8852 53.8764 67 43.2708 67ZM25.7336 19.5417C17.2748 24.7174 11.1667 36.97 11.1667 48.8542C11.1667 55.9366 14.458 64.2083 23.7292 64.2083H43.2708C52.542 64.2083 55.8333 55.9366 55.8333 48.8542C55.8333 36.97 49.7252 24.7174 41.2664 19.5417H25.7336Z" fill="#05D35D"/>
</svg>
