<svg width="81" height="81" viewBox="0 0 81 81" fill="none" xmlns="http://www.w3.org/2000/svg">
<path d="M56.7179 49.7305C56.4119 49.732 56.1154 49.6247 55.8812 49.4278L46.1434 41.5415C45.9902 41.4145 45.867 41.2554 45.7823 41.0754C45.6977 40.8954 45.6538 40.6989 45.6538 40.5V18.6923C45.6538 18.3382 45.7945 17.9986 46.0449 17.7482C46.2953 17.4978 46.6349 17.3572 46.989 17.3572C47.3431 17.3572 47.6827 17.4978 47.9331 17.7482C48.1835 17.9986 48.3241 18.3382 48.3241 18.6923V39.8681L57.5635 47.3539C57.7833 47.5297 57.9419 47.7705 58.0166 48.0418C58.0914 48.3132 58.0785 48.6012 57.9798 48.8648C57.8811 49.1284 57.7016 49.354 57.4669 49.5095C57.2323 49.6649 56.9546 49.7423 56.6734 49.7305H56.7179Z" fill="#05D35D"/>
<path d="M33.5841 55.08H18.6926C18.3385 55.08 17.9989 54.9393 17.7485 54.6889C17.4981 54.4385 17.3574 54.0989 17.3574 53.7448C17.3574 53.3907 17.4981 53.0511 17.7485 52.8007C17.9989 52.5503 18.3385 52.4097 18.6926 52.4097H33.5841C33.9382 52.4097 34.2778 52.5503 34.5282 52.8007C34.7786 53.0511 34.9193 53.3907 34.9193 53.7448C34.9193 54.0989 34.7786 54.4385 34.5282 54.6889C34.2778 54.9393 33.9382 55.08 33.5841 55.08Z" fill="#05D35D"/>
<path d="M27.5402 40.7493H2.4836C2.12949 40.7493 1.78989 40.6086 1.5395 40.3582C1.28911 40.1079 1.14844 39.7683 1.14844 39.4141C1.14844 39.06 1.28911 38.7204 1.5395 38.47C1.78989 38.2197 2.12949 38.079 2.4836 38.079H27.5402C27.8943 38.079 28.2339 38.2197 28.4843 38.47C28.7347 38.7204 28.8754 39.06 28.8754 39.4141C28.8754 39.7683 28.7347 40.1079 28.4843 40.3582C28.2339 40.6086 27.8943 40.7493 27.5402 40.7493Z" fill="#05D35D"/>
<path d="M18.0073 26.2582H9.10616C8.75205 26.2582 8.41245 26.1176 8.16206 25.8672C7.91167 25.6168 7.771 25.2772 7.771 24.9231C7.771 24.5689 7.91167 24.2293 8.16206 23.979C8.41245 23.7286 8.75205 23.5879 9.10616 23.5879H18.0073C18.3614 23.5879 18.701 23.7286 18.9514 23.979C19.2018 24.2293 19.3424 24.5689 19.3424 24.9231C19.3424 25.2772 19.2018 25.6168 18.9514 25.8672C18.701 26.1176 18.3614 26.2582 18.0073 26.2582Z" fill="#05D35D"/>
<path d="M46.989 65.8682C46.6349 65.8682 46.2953 65.7275 46.0449 65.4771C45.7945 65.2267 45.6538 64.8871 45.6538 64.533V64.266C45.6538 63.9118 45.7945 63.5722 46.0449 63.3219C46.2953 63.0715 46.6349 62.9308 46.989 62.9308C47.3431 62.9308 47.6827 63.0715 47.9331 63.3219C48.1835 63.5722 48.3241 63.9118 48.3241 64.266V64.533C48.3241 64.8871 48.1835 65.2267 47.9331 65.4771C47.6827 65.7275 47.3431 65.8682 46.989 65.8682Z" fill="#05D35D"/>
<path d="M71.8585 41.8352H71.5915C71.2374 41.8352 70.8978 41.6946 70.6474 41.4442C70.397 41.1938 70.2563 40.8542 70.2563 40.5001C70.2563 40.146 70.397 39.8064 70.6474 39.556C70.8978 39.3056 71.2374 39.1649 71.5915 39.1649H71.8585C72.2127 39.1649 72.5523 39.3056 72.8026 39.556C73.053 39.8064 73.1937 40.146 73.1937 40.5001C73.1937 40.8542 73.053 41.1938 72.8026 41.4442C72.5523 41.6946 72.2127 41.8352 71.8585 41.8352Z" fill="#05D35D"/>
<path d="M15.853 46.1612C15.5315 46.1619 15.2207 46.0459 14.9784 45.8347C14.7361 45.6235 14.5788 45.3315 14.5356 45.0129C14.3303 43.5176 14.2321 42.0094 14.2419 40.5001C14.2419 40.146 14.3825 39.8064 14.6329 39.556C14.8833 39.3056 15.2229 39.1649 15.577 39.1649C15.9311 39.1649 16.2707 39.3056 16.5211 39.556C16.7715 39.8064 16.9122 40.146 16.9122 40.5001C16.9124 41.8846 17.0075 43.2676 17.197 44.6391C17.2207 44.8153 17.2088 44.9945 17.1623 45.1661C17.1157 45.3377 17.0354 45.4982 16.9259 45.6383C16.8165 45.7785 16.6802 45.8953 16.525 45.982C16.3698 46.0688 16.1988 46.1236 16.0221 46.1434L15.853 46.1612Z" fill="#05D35D"/>
<path d="M46.989 73.265C42.5854 73.2805 38.2245 72.4008 34.1712 70.6795C30.1179 68.9581 26.4568 66.4308 23.41 63.2512C23.2069 62.9901 23.1079 62.6628 23.1324 62.3328C23.1569 62.0028 23.303 61.6936 23.5424 61.4653C23.7819 61.2369 24.0976 61.1056 24.4284 61.0968C24.7591 61.088 25.0814 61.2023 25.3327 61.4176C28.1313 64.3361 31.4945 66.6547 35.2175 68.2323C38.9405 69.81 42.9456 70.6137 46.989 70.5947C52.353 70.5931 57.619 69.158 62.242 66.4379C66.8651 63.7178 70.6771 59.8115 73.2835 55.1233C75.8899 50.4352 77.1959 45.1357 77.0664 39.7734C76.9368 34.411 75.3765 29.1807 72.5468 24.6239C69.7171 20.0671 65.721 16.3494 60.972 13.8556C56.223 11.3619 50.8938 10.1827 45.5361 10.4401C40.1784 10.6976 34.9868 12.3823 30.4988 15.3199C26.0108 18.2575 22.3895 22.3413 20.0098 27.1484C19.8516 27.4659 19.5738 27.7076 19.2375 27.8203C18.9011 27.9329 18.5338 27.9074 18.2162 27.7492C17.8987 27.591 17.657 27.3132 17.5444 26.9769C17.4317 26.6405 17.4572 26.2732 17.6154 25.9556C20.2064 20.7195 24.15 16.2712 29.0377 13.0712C33.9254 9.87117 39.5797 8.03581 45.4151 7.75514C51.2504 7.47446 57.0547 8.75868 62.227 11.4748C67.3993 14.1909 71.7516 18.2403 74.8332 23.2035C77.9148 28.1668 79.6137 33.8635 79.754 39.7039C79.8943 45.5443 78.471 51.3161 75.6313 56.4216C72.7916 61.5271 68.6388 65.7808 63.603 68.7422C58.5671 71.7036 52.8311 73.2651 46.989 73.265Z" fill="#05D35D"/>
<path d="M11.1621 55.08H8.73214C8.37803 55.08 8.03843 54.9393 7.78803 54.6889C7.53764 54.4385 7.39697 54.0989 7.39697 53.7448C7.39697 53.3907 7.53764 53.0511 7.78803 52.8007C8.03843 52.5503 8.37803 52.4097 8.73214 52.4097H11.1621C11.5162 52.4097 11.8558 52.5503 12.1062 52.8007C12.3566 53.0511 12.4973 53.3907 12.4973 53.7448C12.4973 54.0989 12.3566 54.4385 12.1062 54.6889C11.8558 54.9393 11.5162 55.08 11.1621 55.08Z" fill="#05D35D"/>
<path d="M17.0725 31.7592C16.8477 31.7565 16.6271 31.6976 16.431 31.5876C16.2349 31.4777 16.0695 31.3203 15.9499 31.1299C15.8304 30.9395 15.7605 30.7221 15.7467 30.4977C15.7329 30.2733 15.7756 30.0491 15.8709 29.8454L17.7223 25.9734C17.7977 25.8151 17.9036 25.6731 18.0338 25.5556C18.1641 25.4381 18.3162 25.3474 18.4815 25.2888C18.6468 25.2301 18.8221 25.2045 18.9973 25.2136C19.1725 25.2226 19.3441 25.2661 19.5025 25.3415C19.6609 25.4169 19.8029 25.5227 19.9204 25.653C20.0379 25.7832 20.1285 25.9354 20.1872 26.1007C20.2459 26.266 20.2714 26.4412 20.2624 26.6164C20.2534 26.7916 20.2099 26.9633 20.1345 27.1217L18.2831 31.0026C18.1727 31.2296 18.0006 31.421 17.7866 31.5549C17.5725 31.6887 17.325 31.7595 17.0725 31.7592Z" fill="#05D35D"/>
</svg>
