<svg width="51" height="22" viewBox="0 0 51 22" fill="none" xmlns="http://www.w3.org/2000/svg">
<path d="M29.5155 11.5703C29.6326 11.2196 29.7497 10.9469 29.8669 10.6742C30.5696 8.80424 31.2724 6.97322 31.9751 5.10324C32.2875 4.24616 33.0683 3.85659 33.8882 4.09033C34.8252 4.36304 35.2156 5.29803 34.8252 6.27198C34.4348 7.20697 34.0443 8.103 33.6149 9.03799C32.8731 10.7132 32.1703 12.3884 31.4285 14.0636C31.3114 14.2973 31.1943 14.5311 31.0772 14.7259C30.3744 15.7777 28.6566 15.7777 27.9538 14.6869C27.6024 14.1804 27.4072 13.5961 27.173 13.0507C26.1969 10.7911 25.2209 8.5705 24.2448 6.31094C23.9715 5.68761 23.9325 5.10324 24.401 4.55783C25.1818 3.6618 26.5873 3.85659 27.0558 4.98637C27.4072 5.84344 27.7195 6.73947 28.0319 7.59655C28.5004 8.80424 28.9298 10.0509 29.3984 11.2586C29.4374 11.3755 29.4764 11.4534 29.5155 11.5703Z" fill="#1293CE"/>
<path d="M50.6766 7.75263C50.6766 9.77844 50.6766 11.8043 50.6766 13.869C50.6766 14.5703 50.3252 15.0767 49.7005 15.3494C49.0758 15.6221 48.4902 15.5053 48.0217 15.0378C47.6313 14.6871 47.5142 14.2197 47.5142 13.7132C47.5142 9.73949 47.5142 5.72682 47.5142 1.75311C47.5142 1.63623 47.5142 1.51936 47.5532 1.40249C47.6313 0.623327 48.334 0 49.1539 0C50.0128 0.0389579 50.6766 0.662285 50.7156 1.51936C50.7546 2.10373 50.7156 2.72706 50.7156 3.35038C50.6766 4.79183 50.6766 6.27223 50.6766 7.75263Z" fill="#1293CE"/>
<path d="M46.9287 19.6736C46.7725 19.9464 46.6554 20.1022 46.5383 20.297C46.3431 20.5697 46.1869 20.5697 45.9917 20.297C45.8746 20.1411 45.7574 19.9464 45.6403 19.7905C45.5622 19.9074 45.6013 19.9853 45.6013 20.1022C45.6013 20.3359 45.6013 20.5307 45.6013 20.7645C45.6013 20.9593 45.5622 21.154 45.328 21.154C45.0937 21.154 45.0547 20.9593 45.0547 20.7645C45.0547 20.2191 45.0547 19.6347 45.0547 19.0893C45.0547 18.9334 45.0547 18.7776 45.2499 18.6997C45.4451 18.6607 45.5622 18.7387 45.6794 18.8945C45.8746 19.2062 46.0698 19.5178 46.265 19.8295C46.4602 19.5178 46.6554 19.2062 46.8506 18.8945C46.9677 18.6997 47.0849 18.6218 47.2801 18.6607C47.4753 18.6997 47.4753 18.8945 47.4753 19.0503C47.4753 19.5957 47.4753 20.1411 47.4753 20.6866C47.4753 20.8813 47.4362 21.0761 47.202 21.0761C46.9677 21.0761 46.9287 20.8813 46.9287 20.6866C46.9287 20.3749 46.9287 20.0632 46.9287 19.6736Z" fill="#1293CE"/>
<path d="M41.8921 19.8293C41.8921 19.5566 41.8921 19.2449 41.8921 18.9722C41.8921 18.7385 41.9702 18.6216 42.2044 18.6216C42.5948 18.6216 43.0243 18.6216 43.4147 18.6216C43.6099 18.6216 43.727 18.6995 43.727 18.8943C43.727 19.0891 43.5709 19.128 43.4147 19.128C43.1414 19.128 42.8681 19.128 42.5948 19.128C42.3996 19.128 42.4387 19.2449 42.4387 19.3228C42.4387 19.4397 42.3606 19.5955 42.5948 19.5955C42.8291 19.5955 43.0633 19.5955 43.2976 19.5955C43.4538 19.5955 43.5709 19.6734 43.5709 19.8293C43.5709 19.9851 43.4538 20.063 43.2976 20.063C43.0633 20.063 42.8291 20.063 42.5948 20.063C42.3606 20.063 42.4387 20.2189 42.4387 20.3357C42.4387 20.4526 42.4387 20.5695 42.5948 20.5695C42.8681 20.5695 43.1414 20.5695 43.4147 20.5695C43.5709 20.5695 43.727 20.6084 43.727 20.8422C43.727 21.037 43.5709 21.0759 43.4147 21.0759C42.9852 21.0759 42.5948 21.0759 42.1654 21.0759C41.9311 21.0759 41.853 20.9591 41.853 20.7643C41.8921 20.4526 41.8921 20.1409 41.8921 19.8293Z" fill="#0A94CF"/>
<path d="M30.5697 18.6216C30.804 18.6216 31.0382 18.6605 31.2334 18.7774C31.3896 18.8553 31.4677 18.9722 31.3896 19.167C31.3115 19.3228 31.1553 19.3228 30.9992 19.2449C30.843 19.167 30.6478 19.0891 30.4916 19.0891C30.3745 19.0891 30.2574 19.128 30.2574 19.2449C30.2183 19.3618 30.3355 19.4397 30.4526 19.4787C30.6478 19.5566 30.843 19.5955 31.0382 19.6734C31.4286 19.7903 31.5848 20.063 31.5458 20.3747C31.5067 20.7253 31.3115 20.9591 30.9211 21.037C30.5307 21.1149 30.1403 21.037 29.8279 20.8422C29.6717 20.7643 29.5937 20.6084 29.6717 20.4526C29.7889 20.2968 29.906 20.2968 30.0622 20.4136C30.2574 20.5305 30.4526 20.6084 30.7259 20.6084C30.843 20.6084 30.9601 20.5695 30.9992 20.4136C31.0382 20.2578 30.9211 20.2189 30.804 20.1799C30.6478 20.102 30.4526 20.063 30.2964 20.0241C29.867 19.8682 29.7108 19.6345 29.7498 19.2449C29.8279 18.8553 30.1012 18.6216 30.4916 18.6216C30.4526 18.6216 30.4916 18.6216 30.5697 18.6216Z" fill="#0A94CF"/>
<path d="M36.6604 18.622C36.8946 18.622 37.1289 18.6609 37.3631 18.8168C37.5193 18.8947 37.5584 19.0115 37.4803 19.1674C37.4022 19.3232 37.2851 19.3232 37.1289 19.2453C36.9727 19.1674 36.8166 19.0895 36.6214 19.0895C36.5042 19.0895 36.3871 19.0895 36.3481 19.2453C36.309 19.4011 36.4261 19.4401 36.5433 19.479C36.6994 19.518 36.8946 19.5959 37.0508 19.6349C37.4803 19.7907 37.6364 20.0245 37.5974 20.414C37.5584 20.7257 37.3241 20.9984 36.9337 21.0374C36.5433 21.1153 36.1919 20.9984 35.8405 20.8036C35.6843 20.7257 35.6063 20.5699 35.7234 20.414C35.8405 20.2582 35.9576 20.2582 36.1138 20.3751C36.309 20.4919 36.5042 20.6088 36.7385 20.5699C36.8556 20.5699 36.9727 20.5309 37.0118 20.3751C37.0508 20.2192 36.9337 20.1803 36.8166 20.1413C36.6604 20.0634 36.4652 20.0245 36.309 19.9855C35.8796 19.8297 35.7234 19.5959 35.7624 19.2063C35.8015 18.8557 36.1138 18.622 36.5433 18.583C36.5823 18.622 36.6214 18.622 36.6604 18.622Z" fill="#0A94CF"/>
<path d="M49.6616 18.6216C49.8568 18.6216 50.091 18.6605 50.2862 18.7774C50.4424 18.8553 50.5595 18.9722 50.4424 19.167C50.3643 19.3618 50.2082 19.3618 50.052 19.2449C49.8958 19.167 49.7006 19.0891 49.5445 19.128C49.4273 19.128 49.3102 19.167 49.3102 19.3228C49.3102 19.4397 49.3883 19.5176 49.4664 19.5566C49.6616 19.6345 49.8177 19.6734 50.013 19.7124C50.4424 19.8682 50.5986 20.063 50.5595 20.4916C50.5205 20.8422 50.2862 21.0759 49.8568 21.1538C49.4664 21.1928 49.115 21.1149 48.8027 20.9201C48.6465 20.8422 48.6074 20.6864 48.6855 20.5305C48.7636 20.3747 48.9198 20.3747 49.0759 20.4526C49.2712 20.5695 49.5054 20.6864 49.7397 20.6474C49.8568 20.6474 49.9739 20.6084 50.013 20.4526C50.052 20.2968 49.9349 20.2578 49.8177 20.2189C49.6616 20.1409 49.4664 20.102 49.3102 20.063C48.8417 19.9072 48.6855 19.6734 48.7636 19.2449C48.8027 18.8943 49.115 18.6605 49.5445 18.6605C49.5835 18.6216 49.6225 18.6216 49.6616 18.6216Z" fill="#0A94CF"/>
<path d="M34.7083 18.8949C34.7083 18.9728 34.6693 19.0507 34.5912 19.1286C34.4741 19.2845 34.396 19.4403 34.2789 19.5572C33.9665 19.9078 33.8103 20.2584 33.8494 20.7259C33.8884 20.9207 33.7713 21.0765 33.5761 21.0765C33.3809 21.0765 33.2638 20.9207 33.3028 20.7259C33.3809 20.2584 33.1857 19.8688 32.8733 19.5572C32.7562 19.4013 32.6391 19.2455 32.522 19.0897C32.4048 18.9338 32.4048 18.778 32.561 18.6611C32.7172 18.5443 32.8733 18.5832 32.9905 18.739C33.1466 18.9338 33.3028 19.1676 33.4199 19.3624C33.5371 19.5182 33.5761 19.5572 33.7323 19.3624C33.8884 19.1286 34.0446 18.8949 34.2008 18.7001C34.2789 18.5832 34.396 18.5443 34.5521 18.5832C34.7083 18.7001 34.7474 18.778 34.7083 18.8949Z" fill="#0A94CF"/>
<path d="M39.6665 18.6609C39.9007 18.6609 40.135 18.6609 40.3692 18.6609C40.5254 18.6609 40.6816 18.6998 40.7206 18.8946C40.7206 19.0894 40.6035 19.1673 40.4083 19.1673C39.9788 19.2063 39.9788 19.2063 39.9788 19.6738C39.9788 20.0244 39.9788 20.375 39.9788 20.7646C39.9788 20.9594 39.9007 21.1152 39.7055 21.1152C39.4713 21.1152 39.4322 20.9594 39.4322 20.7646C39.4322 20.3361 39.4322 19.8686 39.4322 19.44C39.4322 19.2453 39.3932 19.1673 39.198 19.2063C39.1199 19.2063 39.0028 19.2063 38.9247 19.2063C38.7685 19.1673 38.6904 19.0894 38.6904 18.9336C38.6904 18.7778 38.8076 18.6998 38.9247 18.6998C39.1589 18.6609 39.3932 18.6609 39.6665 18.6609Z" fill="#0A94CF"/>
<path d="M10.7756 11.8043C10.3071 11.2199 9.79954 10.6355 9.33103 10.0512C9.40912 10.0122 9.4872 9.97325 9.56529 9.93429C9.64337 9.89534 9.72145 9.85638 9.79954 9.81742C10.8537 9.27201 11.5564 8.49285 11.9468 7.36307C12.1811 6.62287 12.2592 5.84371 12.1811 5.06455C12.0249 3.38936 11.2831 2.1427 9.7605 1.4025C8.86253 0.935007 7.92552 0.779175 6.94947 0.779175C5.19258 0.779175 3.39665 0.779175 1.63976 0.779175C0.819882 0.779175 0.156168 1.28563 0.039042 2.1427H0V14.0638V14.1028C0.078084 14.1418 0.078084 14.2197 0.078084 14.2586C0.351378 15.0767 1.09318 15.5053 1.87402 15.3884C2.6939 15.2326 3.24048 14.6092 3.24048 13.7522C3.24048 12.7782 3.24048 11.8432 3.24048 10.8693C3.24048 10.6745 3.27953 10.6355 3.47474 10.6355C4.13845 10.6355 4.76312 10.6355 5.42684 10.6355C5.70013 10.6355 5.8563 10.7135 6.01247 10.9082C6.98851 12.1549 7.96456 13.3626 8.94061 14.6092C9.40912 15.1936 9.99475 15.5053 10.7365 15.3884C11.8688 15.2326 12.4154 14.0638 11.7907 13.0899C11.4783 12.6224 11.0879 12.2328 10.7756 11.8043ZM8.94061 5.96058C8.90157 6.85662 8.19882 7.55786 7.22277 7.75265C7.02756 7.79161 6.7933 7.79161 6.59809 7.79161C5.54396 7.79161 4.52887 7.79161 3.47474 7.79161C3.27953 7.79161 3.24048 7.75265 3.24048 7.55786C3.24048 6.93453 3.24048 6.3112 3.24048 5.72683C3.24048 5.10351 3.24048 4.51914 3.24048 3.89581C3.24048 3.70102 3.27953 3.62311 3.47474 3.62311C4.52887 3.62311 5.62205 3.62311 6.67618 3.62311C6.98852 3.62311 7.26181 3.66206 7.5351 3.77894C8.51115 4.0906 8.97966 4.8308 8.94061 5.96058Z" fill="#1293CE"/>
<path d="M23.5425 8.29783C23.113 6.34993 22.0589 4.90849 20.1458 4.28516C18.1547 3.62287 16.2807 3.89558 14.6799 5.29807C13.3915 6.42785 12.8059 7.86929 12.7278 9.54448C12.6888 10.947 13.0011 12.2715 13.86 13.4013C14.9532 14.8038 16.4368 15.4661 18.1547 15.583C19.7163 15.6609 21.1219 15.3103 22.3322 14.2974C22.8787 13.8299 22.9959 13.0507 22.5664 12.5053C22.176 11.9988 21.3952 11.882 20.8095 12.3105C20.1458 12.778 19.4431 13.0117 18.6622 13.0507C17.3348 13.1286 16.2807 12.3884 15.9293 11.1418C15.8512 10.908 15.8902 10.8691 16.1245 10.8691C17.1396 10.8691 18.1547 10.8691 19.1698 10.8691C20.1458 10.8691 21.1609 10.8691 22.137 10.8691C22.9959 10.8691 23.5815 10.2847 23.6205 9.42761C23.6596 8.99907 23.6205 8.64845 23.5425 8.29783ZM20.341 8.84324C19.6383 8.84324 18.9355 8.84324 18.2328 8.84324C17.53 8.84324 16.7882 8.84324 16.0854 8.84324C15.9293 8.84324 15.8512 8.80428 15.8902 8.64845C16.0464 7.98617 16.3197 7.36284 16.8663 6.9343C18.0766 5.99931 19.7944 6.50576 20.341 7.98617C20.4191 8.18096 20.4581 8.37575 20.5362 8.57054C20.6534 8.80428 20.5753 8.8822 20.341 8.84324Z" fill="#1293CE"/>
<path d="M38.6908 10.8304C39.7059 10.8304 40.721 10.8304 41.7361 10.8304C42.7121 10.8304 43.6882 10.8304 44.6642 10.8304C45.5622 10.8304 46.1869 10.2071 46.1869 9.31102C46.1869 8.9604 46.1478 8.60978 46.0697 8.25916C45.6403 6.35022 44.5861 4.90877 42.6731 4.28545C40.721 3.62316 38.847 3.93483 37.2462 5.29835C35.9579 6.42813 35.3722 7.90854 35.2941 9.58373C35.2551 10.8693 35.5284 12.116 36.3092 13.1679C37.4805 14.8431 39.1593 15.5443 41.1504 15.5443C42.595 15.5443 43.8834 15.1547 44.9766 14.2197C45.5231 13.7522 45.6012 13.012 45.1718 12.4666C44.7423 11.9212 44.0005 11.8433 43.4149 12.2329C42.7512 12.7004 42.0484 12.9341 41.2285 12.9731C39.9011 13.012 38.847 12.3108 38.4956 11.0641C38.4565 10.8693 38.4956 10.8304 38.6908 10.8304ZM38.4565 8.64874C38.5737 8.14228 38.7689 7.63583 39.1593 7.24625C40.2915 6.03856 42.2046 6.35022 42.8683 7.86958C42.9854 8.14228 43.0635 8.41499 43.1416 8.6877C43.1806 8.88248 43.1416 8.92144 42.9464 8.88248C42.2046 8.88248 41.5018 8.88248 40.76 8.88248C40.0573 8.88248 39.3155 8.88248 38.6127 8.88248C38.4565 8.84353 38.4175 8.80457 38.4565 8.64874Z" fill="#1293CE"/>
</svg>
