<svg width="19" height="27" viewBox="0 0 19 27" fill="none" xmlns="http://www.w3.org/2000/svg">
<rect width="18.6056" height="26.695" rx="5.66257" fill="#05D35D"/>
<rect x="3.23535" y="3.23535" width="12.1341" height="8.89833" rx="1" fill="#DDF8D3"/>
<rect width="3.47844" height="2.42682" rx="1.21341" transform="matrix(-1 0 0 1 15.2891 13.751)" fill="#DDF8D3"/>
<rect width="3.47844" height="2.42682" rx="1.21341" transform="matrix(-1 0 0 1 15.2891 16.9873)" fill="#DDF8D3"/>
<rect width="3.47844" height="2.42682" rx="1.21341" transform="matrix(-1 0 0 1 15.2891 20.2227)" fill="#DDF8D3"/>
<rect width="3.47844" height="2.42682" rx="1.21341" transform="matrix(-1 0 0 1 11.002 16.9873)" fill="#DDF8D3"/>
<rect width="3.47844" height="2.42682" rx="1.21341" transform="matrix(-1 0 0 1 11.002 13.751)" fill="#DDF8D3"/>
<rect width="3.47844" height="2.42682" rx="1.21341" transform="matrix(-1 0 0 1 6.71387 16.9873)" fill="#DDF8D3"/>
<rect width="3.47844" height="2.42682" rx="1.21341" transform="matrix(-1 0 0 1 11.002 20.2227)" fill="#DDF8D3"/>
<rect width="3.47844" height="2.42682" rx="1.21341" transform="matrix(-1 0 0 1 6.71387 13.751)" fill="#DDF8D3"/>
<rect width="3.47844" height="2.42682" rx="1.21341" transform="matrix(-1 0 0 1 6.71387 20.2227)" fill="#DDF8D3"/>
</svg>
