<svg width="23" height="18" viewBox="0 0 23 18" fill="none" xmlns="http://www.w3.org/2000/svg">
<path d="M22.3235 0.343576C21.4171 0.877042 20.4294 1.25437 19.3741 1.47556C18.9471 1.02209 18.4281 0.657358 17.8492 0.403766C17.2702 0.150174 16.6435 0.0130756 16.0074 0.000890451C15.3714 -0.0112947 14.7395 0.10169 14.1505 0.332907C13.5615 0.564125 13.0278 0.908693 12.5824 1.34545C12.1441 1.76769 11.7966 2.26886 11.5598 2.8203C11.323 3.37174 11.2016 3.96265 11.2024 4.55926C11.2024 4.92358 11.2429 5.26187 11.2971 5.60017C9.42368 5.50327 7.59229 5.02935 5.92131 4.20904C4.25034 3.38873 2.77697 2.2403 1.59647 0.838008C1.18945 1.53119 0.957713 2.30674 0.92 3.10199C0.930049 3.85147 1.12697 4.58769 1.49424 5.24881C1.8615 5.90992 2.38837 6.47662 3.03059 6.9013C2.29363 6.87687 1.57392 6.68038 0.933529 6.3288V6.40687C0.933529 8.57977 2.55706 10.4144 4.72176 10.8568C4.31588 10.9348 3.91 10.9869 3.45 11.0129L2.61118 10.9348C2.91094 11.8338 3.4938 12.621 4.27912 13.1874C5.06444 13.7538 6.0134 14.0715 6.99471 14.0966C5.29577 15.335 3.22756 16.0147 1.09588 16.0353L0 15.9702C2.16665 17.2978 4.68274 18.002 7.25176 18C15.9106 18 20.6594 11.078 20.6459 5.11875V4.46818C21.5794 3.83062 22.3776 3.03693 23 2.11312C22.1476 2.50346 21.2412 2.73767 20.2941 2.84176C21.2771 2.28236 22.0025 1.38477 22.3235 0.330565" fill="white"/>
</svg>
