<svg width="23" height="23" viewBox="0 0 23 23" fill="none" xmlns="http://www.w3.org/2000/svg">
<path d="M23 1.69161V21.3084C23 21.757 22.8218 22.1873 22.5045 22.5045C22.1873 22.8218 21.757 23 21.3084 23H1.69161C1.24297 23 0.812701 22.8218 0.495462 22.5045C0.178223 22.1873 0 21.757 0 21.3084V1.69161C0 1.24297 0.178223 0.812701 0.495462 0.495462C0.812701 0.178223 1.24297 0 1.69161 0H21.3084C21.757 0 22.1873 0.178223 22.5045 0.495462C22.8218 0.812701 23 1.24297 23 1.69161ZM6.76645 8.79936H3.38323V19.6316H6.75161V8.79936H6.76645ZM7.04839 5.07484C7.05034 4.81956 7.002 4.5664 6.90611 4.32981C6.81023 4.09322 6.66868 3.87784 6.48955 3.69595C6.31042 3.51407 6.09722 3.36925 5.86212 3.26976C5.62702 3.17027 5.37463 3.11807 5.11935 3.11613H5.06C4.54052 3.11613 4.04231 3.32249 3.67498 3.68982C3.30765 4.05715 3.10129 4.55536 3.10129 5.07484C3.10129 5.59432 3.30765 6.09253 3.67498 6.45986C4.04231 6.82719 4.54052 7.03355 5.06 7.03355C5.31529 7.03946 5.56924 6.99502 5.80735 6.90275C6.04546 6.81049 6.26306 6.67222 6.44771 6.49583C6.63236 6.31945 6.78045 6.10841 6.88352 5.87477C6.98658 5.64114 7.04261 5.38949 7.04839 5.13419V5.07484ZM19.6019 13.0432C19.6019 9.77871 17.5245 8.51742 15.4768 8.51742C14.8046 8.48631 14.136 8.63154 13.5373 8.9387C12.9386 9.24585 12.4307 9.70425 12.0639 10.2684H11.96V8.78452H8.78452V19.6168H12.1677V13.8742C12.1182 13.2866 12.3022 12.7031 12.68 12.2504C13.0578 11.7976 13.5988 11.512 14.1858 11.4555H14.3194C15.3877 11.4555 16.189 12.1232 16.189 13.8297V19.6316H19.5723L19.6019 13.0581V13.0432Z" fill="white"/>
</svg>
