<svg width="35" height="35" viewBox="0 0 35 35" fill="none" xmlns="http://www.w3.org/2000/svg">
<path d="M31.3543 26.9789C29.8603 26.9789 28.5797 27.8793 28.0158 29.1664H21.6073C21.0048 27.4702 19.4027 26.25 17.5 26.25C15.5973 26.25 13.9965 27.4702 13.3927 29.1664H6.98425C6.42031 27.8793 5.13975 26.9789 3.64569 26.9789C1.63188 26.9789 0 28.6107 0 30.6263C0 32.6388 1.63188 34.2707 3.64569 34.2707C5.14106 34.2707 6.42163 33.369 6.98425 32.0832H13.3927C13.9952 33.7781 15.5973 35 17.5 35C19.4027 35 21.0048 33.7781 21.6073 32.0832H28.0158C28.5784 33.369 29.8589 34.2707 31.3543 34.2707C33.3681 34.2707 35 32.6388 35 30.6263C35 28.6107 33.3681 26.9789 31.3543 26.9789ZM17.5 32.0832C16.6937 32.0832 16.0418 31.4309 16.0418 30.625C16.0418 29.8187 16.6937 29.1664 17.5 29.1664C18.3063 29.1664 18.9582 29.8187 18.9582 30.625C18.9582 31.4309 18.3063 32.0832 17.5 32.0832Z" fill="#3B6064"/>
<path d="M17.4992 0C11.8638 0 7.29102 4.5675 7.29102 10.2082C7.29102 13.0248 8.43289 15.5767 10.2818 17.4256L17.4992 24.0621L24.7184 17.4234C26.5668 15.5767 27.7091 13.0248 27.7074 10.206C27.7074 4.57275 23.1377 0 17.4992 0ZM22.6573 15.3597L17.4992 20.1001L12.2558 15.2788C10.9669 13.986 10.2074 12.1546 10.2074 10.2082C10.2074 6.188 13.479 2.91637 17.4992 2.91637C21.5194 2.91637 24.791 6.18625 24.791 10.206C24.7923 12.1546 24.0346 13.9843 22.6573 15.3597Z" fill="#05D35D"/>
<path d="M17.5 5.83301C15.0846 5.83301 13.125 7.79213 13.125 10.208C13.125 12.6239 15.0846 14.583 17.5 14.583C19.9167 14.583 21.875 12.6239 21.875 10.208C21.875 7.79213 19.9167 5.83301 17.5 5.83301ZM17.5 11.6662C16.6937 11.6662 16.0418 11.0134 16.0418 10.208C16.0418 9.40257 16.6937 8.74938 17.5 8.74938C18.3063 8.74938 18.9582 9.40257 18.9582 10.208C18.9582 11.0134 18.3063 11.6662 17.5 11.6662Z" fill="#05D35D"/>
<circle cx="18" cy="10" r="2" fill="#05D35D"/>
</svg>
