<svg width="38" height="38" viewBox="0 0 38 38" fill="none" xmlns="http://www.w3.org/2000/svg">
<g clip-path="url(#clip0_553_8802)">
<path d="M15.8056 17.6911V35.9845C15.4709 35.9845 15.1362 35.9058 14.8279 35.7485L1.79238 29.103C1.03617 28.7178 0.556641 27.9199 0.556641 27.0471V11.3105C0.556641 10.8704 0.678508 10.4496 0.896414 10.0903L15.8056 17.6911Z" stroke="#3B6064" stroke-width="1.69922" stroke-miterlimit="10" stroke-linecap="round" stroke-linejoin="round"/>
<path d="M31.0539 20.4156V27.0469C31.0539 27.9197 30.5751 28.7176 29.8182 29.1028L16.7833 35.7483C16.4751 35.9057 16.1404 35.9844 15.8057 35.9844V17.6909" stroke="#3B6064" stroke-width="1.69922" stroke-miterlimit="10" stroke-linecap="round" stroke-linejoin="round"/>
<path d="M22.9761 14.0356L15.8057 17.6912L0.896484 10.0904C1.10289 9.75123 1.39464 9.46697 1.75089 9.27623L14.7857 2.27369C14.7893 2.27221 14.7922 2.26998 14.7957 2.2685C15.433 1.93006 16.1892 1.93154 16.8249 2.27369L23.0204 5.60196" stroke="#3B6064" stroke-width="1.69922" stroke-miterlimit="10" stroke-linecap="round" stroke-linejoin="round"/>
<path d="M26.8294 2.52135C27.6923 2.19449 28.6278 2.01562 29.6052 2.01562C33.9338 2.01562 37.4429 5.52469 37.4429 9.85327C37.4429 14.1819 33.9338 17.6909 29.6052 17.6909C25.2766 17.6909 21.7676 14.1819 21.7676 9.85327C21.7676 7.48584 22.8173 5.36356 24.4765 3.92646" stroke="#3B6064" stroke-width="1.69922" stroke-miterlimit="10" stroke-linecap="round" stroke-linejoin="round"/>
<path d="M33.0313 11.5989L31.2859 9.8535L33.0313 8.1081C33.4954 7.64401 33.4954 6.8915 33.0313 6.42741C32.5672 5.96332 31.8147 5.96332 31.3506 6.42741L29.6052 8.17282L27.8598 6.42741C27.3957 5.96332 26.6432 5.96332 26.1791 6.42741C25.715 6.8915 25.715 7.64401 26.1791 8.1081L27.9245 9.8535L26.1791 11.5989C25.715 12.063 25.715 12.8155 26.1791 13.2796C26.6432 13.7437 27.3957 13.7437 27.8598 13.2796L29.6052 11.5342L31.3506 13.2796C31.8147 13.7437 32.5672 13.7437 33.0313 13.2796C33.4955 12.8155 33.4955 12.063 33.0313 11.5989Z" stroke="#3B6064" stroke-width="1.69922" stroke-miterlimit="10" stroke-linecap="round" stroke-linejoin="round"/>
</g>
<defs>
<clipPath id="clip0_553_8802">
<rect width="38" height="38" fill="white"/>
</clipPath>
</defs>
</svg>
