<svg width="36" height="36" viewBox="0 0 36 36" fill="none" xmlns="http://www.w3.org/2000/svg">
<g clip-path="url(#clip0_553_8889)">
<path d="M1.25586 27.1575L3.92802 28.071L4.84159 25.3989" stroke="#3B6064" stroke-width="1.40625" stroke-miterlimit="10" stroke-linecap="round" stroke-linejoin="round"/>
<path d="M3.93686 28.0708C1.90216 25.2341 0.704102 21.757 0.704102 17.9998C0.704102 8.44696 8.44818 0.702881 18.001 0.702881C21.7583 0.702881 25.2353 1.90094 28.072 3.93564" stroke="#3B6064" stroke-width="1.40625" stroke-miterlimit="10" stroke-linecap="round" stroke-linejoin="round"/>
<path d="M34.7459 8.84221L32.0737 7.92871L31.1602 10.6008" stroke="#3B6064" stroke-width="1.40625" stroke-miterlimit="10" stroke-linecap="round" stroke-linejoin="round"/>
<path d="M32.0648 7.92871C34.0995 10.7654 35.2976 14.2424 35.2976 17.9997C35.2976 27.5525 27.5535 35.2966 18.0007 35.2966C14.2434 35.2966 10.7664 34.0985 7.92969 32.0638" stroke="#3B6064" stroke-width="1.40625" stroke-miterlimit="10" stroke-linecap="round" stroke-linejoin="round"/>
<path d="M30.0038 20.4829V15.5166H26.764C26.5692 14.8279 26.2949 14.1727 25.9526 13.5608L28.2444 11.2689L24.7327 7.75723L22.4409 10.0491C21.829 9.70672 21.1738 9.43243 20.4851 9.23766V5.9978H15.5188V9.23766C14.8302 9.43243 14.175 9.70672 13.5631 10.0491L11.2713 7.75723L7.75957 11.2689L10.0514 13.5608C9.70905 14.1727 9.43477 14.8279 9.24 15.5166H6V20.4829H9.23986C9.43463 21.1715 9.70891 21.8268 10.0513 22.4386L7.75943 24.7305L11.2711 28.2421L13.563 25.9503C14.1749 26.2927 14.8301 26.567 15.5188 26.7617V30.0016H20.4851V26.7617C21.1737 26.567 21.829 26.2927 22.4408 25.9503L24.7327 28.2421L28.2443 24.7305L25.9525 22.4386C26.2949 21.8267 26.5691 21.1715 26.7639 20.4829H30.0038V20.4829Z" stroke="#3B6064" stroke-width="1.40625" stroke-miterlimit="10" stroke-linecap="round" stroke-linejoin="round"/>
<path d="M18.0012 24.0713C21.3545 24.0713 24.0728 21.353 24.0728 17.9998C24.0728 14.6465 21.3545 11.9282 18.0012 11.9282C14.648 11.9282 11.9297 14.6465 11.9297 17.9998C11.9297 21.353 14.648 24.0713 18.0012 24.0713Z" stroke="#3B6064" stroke-width="1.40625" stroke-miterlimit="10" stroke-linecap="round" stroke-linejoin="round"/>
<path d="M18.001 14.823V18H20.472" stroke="#3B6064" stroke-width="1.40625" stroke-miterlimit="10" stroke-linecap="round" stroke-linejoin="round"/>
</g>
<defs>
<clipPath id="clip0_553_8889">
<rect width="36" height="36" fill="white"/>
</clipPath>
</defs>
</svg>
