<svg width="35" height="35" viewBox="0 0 35 35" fill="none" xmlns="http://www.w3.org/2000/svg">
<g clip-path="url(#clip0_553_8621)">
<path d="M0.972341 21.3889H4.86099C5.3979 21.3889 5.83333 21.824 5.83333 22.3609V32.0832C5.83333 32.6201 5.3979 33.0556 4.86099 33.0556H0.972341C0.435435 33.0556 0 32.6201 0 32.0832V22.3609C0 21.824 0.435435 21.3889 0.972341 21.3889Z" fill="#3B6064"/>
<path d="M10.6946 13.6111H14.5836C15.1206 13.6111 15.556 14.0465 15.556 14.5834V32.0834C15.556 32.6203 15.1206 33.0558 14.5836 33.0558H10.6946C10.1577 33.0558 9.72266 32.6203 9.72266 32.0834V14.5834C9.72266 14.0465 10.1577 13.6111 10.6946 13.6111Z" fill="#3B6064"/>
<path d="M20.4167 17.5H24.3057C24.8426 17.5 25.2777 17.9354 25.2777 18.4723V32.0833C25.2777 32.6202 24.8426 33.0557 24.3057 33.0557H20.4167C19.8798 33.0557 19.4443 32.6202 19.4443 32.0833V18.4723C19.4443 17.9354 19.8798 17.5 20.4167 17.5Z" fill="#3B6064"/>
<path d="M30.1393 11.6667H34.028C34.5649 11.6667 35.0003 12.1022 35.0003 12.6391V32.0834C35.0003 32.6203 34.5649 33.0558 34.028 33.0558H30.1393C29.6024 33.0558 29.167 32.6203 29.167 32.0834V12.6391C29.167 12.1022 29.6024 11.6667 30.1393 11.6667Z" fill="#3B6064"/>
<path d="M32.0833 0C30.4733 0.00178019 29.1684 1.30666 29.1667 2.91667C29.1706 3.23425 29.2268 3.54899 29.3333 3.84806L24.4662 6.74123C23.8275 6.06369 22.9015 5.73542 21.9786 5.85897C21.0554 5.98251 20.2486 6.54292 19.8103 7.36465L15.5176 5.23839C15.5386 5.11342 15.551 4.98739 15.5557 4.86099C15.5578 3.68037 14.8482 2.6151 13.758 2.16187C12.6678 1.70898 11.4121 1.95786 10.5772 2.79241C9.74192 3.62696 9.49234 4.88235 9.94487 5.9729L4.37642 10.1286C3.93494 9.86547 3.43079 9.72519 2.91667 9.72234C1.30595 9.72234 0 11.0279 0 12.639C0 14.2497 1.30595 15.5557 2.91667 15.5557C4.52738 15.5557 5.83333 14.2497 5.83333 12.639C5.83084 12.288 5.76462 11.9408 5.63787 11.6136L11.2619 7.41628C12.362 8.02973 13.7342 7.84994 14.6389 6.97337L19.5205 9.39123C19.8459 10.8407 21.2099 11.8134 22.6864 11.6489C24.1629 11.4844 25.2794 10.2357 25.2777 8.75C25.2777 8.67594 25.2613 8.60616 25.2559 8.53353L30.5495 5.38651C31.0085 5.67668 31.54 5.83155 32.0833 5.83333C33.6941 5.83333 35 4.52738 35 2.91667C35 1.30595 33.6941 0 32.0833 0Z" fill="#05D35D"/>
</g>
<defs>
<clipPath id="clip0_553_8621">
<rect width="35" height="35" fill="white"/>
</clipPath>
</defs>
</svg>
