<svg width="35" height="35" viewBox="0 0 35 35" fill="none" xmlns="http://www.w3.org/2000/svg">
<path d="M22.0966 9.30383C21.7041 9.30383 21.3168 9.32418 20.9336 9.35907V1.74448C20.9336 1.28182 20.7498 0.838104 20.4227 0.510953C20.0955 0.183802 19.6518 1.09239e-05 19.1891 1.09239e-05H7.46051C7.23033 -0.000805685 7.00228 0.0441695 6.78965 0.132319C6.57701 0.220468 6.38403 0.35003 6.22194 0.513465L0.513465 6.22194C0.35003 6.38403 0.220468 6.57701 0.132319 6.78965C0.0441695 7.00228 -0.000805685 7.23033 1.09239e-05 7.46051V26.167C1.09239e-05 26.6297 0.183802 27.0734 0.510953 27.4005C0.838104 27.7277 1.28182 27.9115 1.74448 27.9115H10.7075C11.7411 29.9369 13.2959 31.6502 15.2118 32.875C17.1276 34.0998 19.3353 34.7918 21.6075 34.8798C23.8797 34.9677 26.1343 34.4484 28.1391 33.3754C30.1439 32.3024 31.8265 30.7144 33.0135 28.7749C34.2006 26.8355 34.8493 24.6146 34.8928 22.3412C34.9362 20.0677 34.3729 17.8237 33.2609 15.8403C32.1488 13.8568 30.5282 12.2057 28.5659 11.0568C26.6036 9.90789 24.3705 9.3028 22.0966 9.30383ZM6.39639 1.98521V5.23341C6.39639 5.54185 6.27386 5.83766 6.05576 6.05576C5.83766 6.27386 5.54185 6.39639 5.23341 6.39639H1.98521L6.39639 1.98521ZM1.74448 26.7485C1.59026 26.7485 1.44235 26.6872 1.3333 26.5782C1.22425 26.4691 1.16299 26.3212 1.16299 26.167V7.55936H5.23341C5.85029 7.55936 6.44191 7.31431 6.87811 6.87811C7.31431 6.44191 7.55936 5.85029 7.55936 5.23341V1.16299H19.1891C19.3434 1.16299 19.4913 1.22425 19.6003 1.3333C19.7094 1.44235 19.7706 1.59026 19.7706 1.74448V9.51956C17.9177 9.8608 16.163 10.6075 14.6324 11.7061C13.1017 12.8048 11.8329 14.2283 10.9167 15.8746C10.0005 17.521 9.45966 19.3496 9.33283 21.2295C9.20599 23.1093 9.49632 24.994 10.183 26.7485H1.74448ZM22.0966 33.7264C19.7964 33.7264 17.5479 33.0443 15.6354 31.7664C13.7229 30.4885 12.2323 28.6722 11.3521 26.5471C10.4718 24.422 10.2415 22.0837 10.6903 19.8277C11.139 17.5718 12.2466 15.4995 13.8731 13.8731C15.4995 12.2466 17.5718 11.139 19.8277 10.6903C22.0837 10.2415 24.422 10.4718 26.5471 11.3521C28.6722 12.2323 30.4885 13.7229 31.7664 15.6354C33.0443 17.5479 33.7263 19.7964 33.7263 22.0966C33.7228 25.1799 32.4964 28.1359 30.3162 30.3162C28.1359 32.4964 25.1799 33.7228 22.0966 33.7264Z" fill="#3B6064"/>
<path d="M23.308 12.8683C21.4298 12.6237 19.5217 12.9574 17.8379 13.8248C17.6045 13.9504 17.4025 14.1269 17.2468 14.3414C17.0912 14.5559 16.9859 14.8028 16.939 15.0636C16.892 15.3244 16.9046 15.5925 16.9756 15.8478C17.0467 16.1031 17.1745 16.339 17.3495 16.5381C17.6128 16.8242 17.963 17.0158 18.346 17.0834C18.729 17.151 19.1236 17.0907 19.469 16.912C20.2824 16.4967 21.1829 16.2806 22.0961 16.2816C23.5565 16.2835 24.9628 16.834 26.0364 17.824C27.11 18.814 27.7724 20.1712 27.8924 21.6267C27.6498 21.7226 27.4336 21.8752 27.2619 22.0717C27.0902 22.2682 26.9679 22.5029 26.9054 22.7562C26.8428 23.0095 26.8416 23.2741 26.9021 23.528C26.9625 23.7818 27.0828 24.0175 27.2528 24.2155L28.4739 25.6302C28.6204 25.7985 28.8013 25.9335 29.0044 26.0259C29.2075 26.1184 29.428 26.1662 29.6511 26.1662C29.8743 26.1662 30.0948 26.1184 30.2979 26.0259C30.501 25.9335 30.6819 25.7985 30.8284 25.6302L32.0495 24.2166C32.2215 24.0167 32.3426 23.7782 32.4026 23.5215C32.4626 23.2647 32.4597 22.9972 32.3941 22.7418C32.3285 22.4864 32.2021 22.2506 32.0258 22.0545C31.8495 21.8585 31.6284 21.7079 31.3814 21.6156C31.2664 19.4451 30.3966 17.383 28.9224 15.7858C27.4482 14.1885 25.4623 13.1566 23.308 12.8683ZM30.8185 22.678C30.9089 22.6762 30.9978 22.7013 31.0739 22.7502C31.15 22.7991 31.2099 22.8695 31.2459 22.9525C31.284 23.0341 31.2975 23.125 31.2849 23.2142C31.2723 23.3034 31.2341 23.387 31.1749 23.4549L29.9538 24.8673C29.9164 24.9097 29.8703 24.9437 29.8188 24.967C29.7672 24.9903 29.7112 25.0024 29.6546 25.0024C29.598 25.0024 29.5421 24.9903 29.4905 24.967C29.4389 24.9437 29.3929 24.9097 29.3555 24.8673L28.1343 23.4543C28.075 23.3863 28.0367 23.3026 28.0241 23.2133C28.0115 23.124 28.0252 23.033 28.0634 22.9513C28.0997 22.8682 28.1598 22.7979 28.2363 22.7492C28.3127 22.7005 28.4019 22.6757 28.4925 22.678C28.6467 22.678 28.7947 22.6167 28.9037 22.5077C29.0128 22.3986 29.074 22.2507 29.074 22.0965C29.072 20.2465 28.3362 18.4728 27.028 17.1646C25.7199 15.8565 23.9462 15.1206 22.0961 15.1186C21.0003 15.1171 19.9198 15.3762 18.9439 15.8746C18.8266 15.9389 18.6912 15.9624 18.5591 15.9413C18.427 15.9203 18.3056 15.8559 18.2141 15.7583C18.156 15.6916 18.1139 15.6125 18.0914 15.527C18.0688 15.4414 18.0662 15.3519 18.0839 15.2652C18.0976 15.179 18.131 15.0972 18.1814 15.026C18.2318 14.9548 18.2979 14.8962 18.3746 14.8546C19.6159 14.2183 20.9998 13.9113 22.3938 13.9632C23.7877 14.015 25.145 14.424 26.3355 15.1508C27.5261 15.8776 28.5101 16.898 29.1932 18.1142C29.8764 19.3304 30.2358 20.7016 30.237 22.0965C30.237 22.2507 30.2983 22.3986 30.4073 22.5077C30.5164 22.6167 30.6643 22.678 30.8185 22.678Z" fill="#3B6064"/>
<path d="M24.7234 27.2811C23.91 27.6964 23.0095 27.9124 22.0962 27.9114C20.6359 27.9095 19.2295 27.359 18.156 26.369C17.0824 25.379 16.4199 24.0218 16.2999 22.5664C16.5424 22.4701 16.7583 22.3173 16.9297 22.1207C17.101 21.9241 17.223 21.6893 17.2853 21.436C17.3476 21.1827 17.3484 20.9182 17.2878 20.6646C17.2272 20.4109 17.1068 20.1753 16.9367 19.9776L15.7155 18.5623C15.5689 18.3937 15.3878 18.2586 15.1845 18.1661C14.9811 18.0736 14.7603 18.0259 14.5369 18.0261C14.3136 18.0262 14.093 18.0741 13.8899 18.1667C13.6867 18.2593 13.5058 18.3944 13.3594 18.5628L12.1382 19.9764C11.9662 20.1763 11.8451 20.4148 11.7851 20.6716C11.7251 20.9284 11.7281 21.1959 11.7937 21.4513C11.8593 21.7067 11.9856 21.9424 12.1619 22.1385C12.3382 22.3346 12.5593 22.4852 12.8064 22.5774C12.9216 24.7486 13.792 26.8113 15.2671 28.4086C16.7422 30.006 18.7292 31.0375 20.8844 31.3248C21.2833 31.375 21.6849 31.4003 22.0869 31.4004C23.5716 31.4034 25.0352 31.0494 26.3545 30.3682C26.5879 30.2427 26.7899 30.0661 26.9456 29.8516C27.1012 29.6371 27.2064 29.3903 27.2534 29.1295C27.3003 28.8687 27.2878 28.6006 27.2167 28.3453C27.1457 28.09 27.0179 27.854 26.8429 27.655C26.5798 27.3685 26.2296 27.1766 25.8465 27.109C25.4634 27.0415 25.0687 27.1019 24.7234 27.2811ZM25.8178 29.3361C24.5766 29.9724 23.1929 30.2793 21.7992 30.2276C20.4054 30.1758 19.0483 29.7671 17.8578 29.0405C16.6673 28.314 15.6833 27.2939 15 26.078C14.3167 24.8622 13.957 23.4913 13.9554 22.0965C13.9554 21.9423 13.8941 21.7944 13.7851 21.6854C13.676 21.5763 13.5281 21.5151 13.3739 21.5151C13.2835 21.5169 13.1945 21.4917 13.1184 21.4429C13.0423 21.394 12.9825 21.3236 12.9465 21.2406C12.9084 21.159 12.8948 21.0681 12.9074 20.9789C12.92 20.8897 12.9582 20.8061 13.0174 20.7382L14.2386 19.3258C14.2762 19.2835 14.3223 19.2496 14.3739 19.2264C14.4255 19.2032 14.4815 19.1913 14.538 19.1913C14.5946 19.1913 14.6506 19.2032 14.7022 19.2264C14.7538 19.2496 14.7999 19.2835 14.8375 19.3258L16.0586 20.7394C16.1179 20.8073 16.1562 20.891 16.1688 20.9803C16.1814 21.0696 16.1678 21.1606 16.1296 21.2423C16.0932 21.3254 16.0329 21.3957 15.9563 21.4442C15.8798 21.4928 15.7905 21.5175 15.6998 21.5151C15.5456 21.5151 15.3977 21.5763 15.2887 21.6854C15.1796 21.7944 15.1184 21.9423 15.1184 22.0965C15.1204 23.9466 15.8562 25.7203 17.1643 27.0284C18.4725 28.3366 20.2462 29.0724 22.0962 29.0744C23.192 29.076 24.2725 28.8168 25.2485 28.3185C25.3657 28.2539 25.5011 28.2302 25.6333 28.2513C25.7655 28.2723 25.8869 28.3369 25.9782 28.4348C26.0364 28.5014 26.0784 28.5806 26.101 28.6661C26.1236 28.7516 26.1262 28.8412 26.1085 28.9279C26.0944 29.0136 26.0609 29.095 26.0105 29.1657C25.9601 29.2365 25.8942 29.2948 25.8178 29.3361Z" fill="#3B6064"/>
<path d="M4.07075 12.7929H11.6301C11.7843 12.7929 11.9322 12.7316 12.0413 12.6225C12.1503 12.5135 12.2116 12.3656 12.2116 12.2114C12.2116 12.0572 12.1503 11.9092 12.0413 11.8002C11.9322 11.6911 11.7843 11.6299 11.6301 11.6299H4.07075C3.91653 11.6299 3.76862 11.6911 3.65957 11.8002C3.55052 11.9092 3.48926 12.0572 3.48926 12.2114C3.48926 12.3656 3.55052 12.5135 3.65957 12.6225C3.76862 12.7316 3.91653 12.7929 4.07075 12.7929Z" fill="#3B6064"/>
<path d="M9.30414 9.30385H16.8635C17.0177 9.30385 17.1656 9.24258 17.2747 9.13353C17.3837 9.02448 17.445 8.87658 17.445 8.72236C17.445 8.56814 17.3837 8.42023 17.2747 8.31118C17.1656 8.20213 17.0177 8.14087 16.8635 8.14087H9.30414C9.14992 8.14087 9.00202 8.20213 8.89297 8.31118C8.78392 8.42023 8.72266 8.56814 8.72266 8.72236C8.72266 8.87658 8.78392 9.02448 8.89297 9.13353C9.00202 9.24258 9.14992 9.30385 9.30414 9.30385Z" fill="#3B6064"/>
<path d="M4.07075 16.2816H9.30414C9.45836 16.2816 9.60627 16.2204 9.71532 16.1113C9.82437 16.0023 9.88563 15.8544 9.88563 15.7001C9.88563 15.5459 9.82437 15.398 9.71532 15.289C9.60627 15.1799 9.45836 15.1187 9.30414 15.1187H4.07075C3.91653 15.1187 3.76862 15.1799 3.65957 15.289C3.55052 15.398 3.48926 15.5459 3.48926 15.7001C3.48926 15.8544 3.55052 16.0023 3.65957 16.1113C3.76862 16.2204 3.91653 16.2816 4.07075 16.2816Z" fill="#3B6064"/>
<path d="M8.14117 18.6077H4.07075C3.91653 18.6077 3.76862 18.6689 3.65957 18.778C3.55052 18.887 3.48926 19.0349 3.48926 19.1892C3.48926 19.3434 3.55052 19.4913 3.65957 19.6003C3.76862 19.7094 3.91653 19.7706 4.07075 19.7706H8.14117C8.29539 19.7706 8.44329 19.7094 8.55234 19.6003C8.66139 19.4913 8.72266 19.3434 8.72266 19.1892C8.72266 19.0349 8.66139 18.887 8.55234 18.778C8.44329 18.6689 8.29539 18.6077 8.14117 18.6077Z" fill="#3B6064"/>
<path d="M7.55968 22.0964H4.07075C3.91653 22.0964 3.76862 22.1577 3.65957 22.2667C3.55052 22.3758 3.48926 22.5237 3.48926 22.6779C3.48926 22.8321 3.55052 22.98 3.65957 23.0891C3.76862 23.1981 3.91653 23.2594 4.07075 23.2594H7.55968C7.7139 23.2594 7.8618 23.1981 7.97085 23.0891C8.0799 22.98 8.14117 22.8321 8.14117 22.6779C8.14117 22.5237 8.0799 22.3758 7.97085 22.2667C7.8618 22.1577 7.7139 22.0964 7.55968 22.0964Z" fill="#3B6064"/>
</svg>
