<svg width="35" height="35" viewBox="0 0 35 35" fill="none" xmlns="http://www.w3.org/2000/svg">
<g clip-path="url(#clip0_553_8769)">
<path d="M31.7187 34.9791H22.6034C20.7944 34.9791 19.3222 33.5069 19.3222 31.6978V22.5825C19.3222 20.7734 20.7944 19.3013 22.6034 19.3013H31.7187C33.5278 19.3013 35 20.7734 35 22.5825V31.6978C35 33.508 33.5278 34.9791 31.7187 34.9791ZM22.6034 21.4888C21.9997 21.4888 21.5097 21.9788 21.5097 22.5825V31.6978C21.5097 32.3016 21.9997 32.7916 22.6034 32.7916H31.7187C32.3225 32.7916 32.8125 32.3016 32.8125 31.6978V22.5825C32.8125 21.9788 32.3225 21.4888 31.7187 21.4888H22.6034ZM31.7187 15.7258H22.6034C20.7944 15.7258 19.3222 14.2536 19.3222 12.4445V3.32922C19.3222 1.52016 20.7944 0.0479736 22.6034 0.0479736H31.7187C33.5278 0.0479736 35 1.52016 35 3.32922V12.4445C35 14.2536 33.5278 15.7258 31.7187 15.7258ZM22.6034 2.23547C21.9997 2.23547 21.5097 2.72547 21.5097 3.32922V12.4445C21.5097 13.0483 21.9997 13.5383 22.6034 13.5383H31.7187C32.3225 13.5383 32.8125 13.0483 32.8125 12.4445V3.32922C32.8125 2.72547 32.3225 2.23547 31.7187 2.23547H22.6034ZM12.3966 15.7258H3.28125C1.47219 15.7258 0 14.2536 0 12.4445V3.32922C0 1.52016 1.47219 0.0479736 3.28125 0.0479736H12.3966C14.2056 0.0479736 15.6778 1.52016 15.6778 3.32922V12.4445C15.6778 14.2536 14.2056 15.7258 12.3966 15.7258ZM3.28125 2.23547C2.6775 2.23547 14.053 0.98697 14.053 1.59072V13.5383L11.4015 14.8483C11.4015 14.8483 2.12121 14.5831 1.75328 14.318C1.38535 14.0528 2.6775 13.5383 3.28125 13.5383H12.3966C13.0003 13.5383 13.4903 13.0483 13.4903 12.4445V3.32922C13.4903 2.72547 13.0003 2.23547 12.3966 2.23547H3.28125Z" fill="#05D35D"/>
<path d="M22.3721 15.7258H31.4874C33.2964 15.7258 34.7686 14.2536 34.7686 12.4445V3.32922C34.7686 1.52016 33.2964 0.0479736 31.4874 0.0479736H22.3721C20.563 0.0479736 19.0908 1.52016 19.0908 3.32922V12.4445C19.0908 14.2536 20.563 15.7258 22.3721 15.7258Z" fill="#05D35D"/>
<path d="M22.3721 34.7686H31.4874C33.2964 34.7686 34.7686 33.2964 34.7686 31.4874V22.3721C34.7686 20.563 33.2964 19.0908 31.4874 19.0908H22.3721C20.563 19.0908 19.0908 20.563 19.0908 22.3721V31.4874C19.0908 33.2964 20.563 34.7686 22.3721 34.7686Z" fill="#05D35D"/>
</g>
<path d="M0.319649 34.3225C0.53293 34.5369 0.81293 34.6441 1.09402 34.6441C1.37293 34.6441 1.65184 34.5369 1.86621 34.3247L4.23746 31.96C5.44277 32.8383 6.89199 33.3141 8.41449 33.3141C10.3154 33.3141 12.1004 32.5758 13.4436 31.2316C14.7867 29.8884 15.5272 28.1034 15.5272 26.2025C15.5272 24.3016 14.7878 22.5166 13.4436 21.1734C12.1004 19.8314 10.3154 19.0909 8.41449 19.0909C6.51356 19.0909 4.72965 19.8303 3.38652 21.1734C2.0434 22.5166 1.30293 24.3027 1.30293 26.2025C1.30293 27.7403 1.78746 29.2038 2.68543 30.4178L0.321837 32.7759C-0.106913 33.2025 -0.106914 33.8948 0.319649 34.3225Z" fill="#3B6064"/>
<defs>
<clipPath id="clip0_553_8769">
<rect width="35" height="35" fill="white"/>
</clipPath>
</defs>
</svg>
