<svg width="36" height="35" viewBox="0 0 36 35" fill="none" xmlns="http://www.w3.org/2000/svg">
<g clip-path="url(#clip0_553_8742)">
<path d="M32.7187 34.9789H23.6034C21.7944 34.9789 20.3222 33.5068 20.3222 31.6977V22.5824C20.3222 20.7733 21.7944 19.3011 23.6034 19.3011H32.7187C34.5278 19.3011 36 20.7733 36 22.5824V31.6977C36 33.5079 34.5278 34.9789 32.7187 34.9789ZM23.6034 21.4886C22.9997 21.4886 22.5097 21.9786 22.5097 22.5824V31.6977C22.5097 32.3014 22.9997 32.7914 23.6034 32.7914H32.7187C33.3225 32.7914 33.8125 32.3014 33.8125 31.6977V22.5824C33.8125 21.9786 33.3225 21.4886 32.7187 21.4886H23.6034ZM32.7187 15.7257H23.6034C21.7944 15.7257 20.3222 14.2535 20.3222 12.4444V3.3291C20.3222 1.52004 21.7944 0.0478516 23.6034 0.0478516H32.7187C34.5278 0.0478516 36 1.52004 36 3.3291V12.4444C36 14.2535 34.5278 15.7257 32.7187 15.7257ZM23.6034 2.23535C22.9997 2.23535 22.5097 2.72535 22.5097 3.3291V12.4444C22.5097 13.0482 22.9997 13.5382 23.6034 13.5382H32.7187C33.3225 13.5382 33.8125 13.0482 33.8125 12.4444V3.3291C33.8125 2.72535 33.3225 2.23535 32.7187 2.23535H23.6034ZM13.3966 15.7257H4.28125C2.47219 15.7257 1 14.2535 1 12.4444V3.3291C1 1.52004 2.47219 0.0478516 4.28125 0.0478516H13.3966C15.2056 0.0478516 16.6778 1.52004 16.6778 3.3291V12.4444C16.6778 14.2535 15.2056 15.7257 13.3966 15.7257ZM4.28125 2.23535C3.6775 2.23535 15.053 0.986848 15.053 1.5906V13.5382L12.4015 14.8482C12.4015 14.8482 3.12121 14.583 2.75328 14.3179C2.38535 14.0527 3.6775 13.5382 4.28125 13.5382H13.3966C14.0003 13.5382 14.4903 13.0482 14.4903 12.4444V3.3291C14.4903 2.72535 14.0003 2.23535 13.3966 2.23535H4.28125Z" fill="#05D35D"/>
<path d="M23.3721 15.7257H32.4874C34.2964 15.7257 35.7686 14.2535 35.7686 12.4444V3.3291C35.7686 1.52004 34.2964 0.0478516 32.4874 0.0478516H23.3721C21.563 0.0478516 20.0908 1.52004 20.0908 3.3291V12.4444C20.0908 14.2535 21.563 15.7257 23.3721 15.7257Z" fill="#05D35D"/>
<path d="M23.3721 34.7686H32.4874C34.2964 34.7686 35.7686 33.2964 35.7686 31.4874V22.3721C35.7686 20.563 34.2964 19.0908 32.4874 19.0908H23.3721C21.563 19.0908 20.0908 20.563 20.0908 22.3721V31.4874C20.0908 33.2964 21.563 34.7686 23.3721 34.7686Z" fill="#05D35D"/>
</g>
<path d="M16.6223 25.3502L15.4161 25.3072C15.2438 24.704 15.0284 24.1009 14.6838 23.584L15.5023 22.6793C15.6315 22.507 15.6315 22.2485 15.5023 22.1193L13.8222 20.4392C13.6498 20.2669 13.3914 20.2669 13.2621 20.4392L12.3575 21.2577C11.8405 20.9561 11.2374 20.6977 10.6343 20.5253L10.5912 19.3191C10.5912 19.1037 10.4189 18.9314 10.1604 18.9314H7.79104C7.57564 18.9314 7.40333 19.1037 7.36025 19.3191L7.31717 20.5253C6.71405 20.6977 6.11094 20.9131 5.59399 21.2577L4.68932 20.4392C4.517 20.3099 4.25852 20.3099 4.12929 20.4392L2.44919 22.1193C2.27687 22.2916 2.27687 22.5501 2.44919 22.6793L3.2677 23.584C2.96614 24.144 2.70766 24.704 2.53535 25.3072L1.32912 25.3502C1.11372 25.3502 0.941406 25.5656 0.941406 25.781V28.1504C0.941406 28.3658 1.11372 28.5381 1.32912 28.5812L2.10455 28.6243H2.53535C2.70766 29.2274 2.92306 29.7874 3.2677 30.3475L2.44919 31.2521C2.27687 31.4244 2.31995 31.6829 2.44919 31.8122L4.12929 33.4923C4.3016 33.6646 4.56008 33.6646 4.7324 33.4923C4.77548 33.4492 4.77548 33.4492 4.81856 33.4061L5.63707 32.6737C6.1971 33.0184 6.75713 33.2338 7.36025 33.4061L7.40333 34.6123C7.40333 34.8277 7.61872 35 7.83412 35H10.2035C10.4189 35 10.5912 34.8277 10.6343 34.6123L10.6774 33.4061C11.2805 33.2338 11.8836 33.0184 12.4005 32.6737L13.3052 33.4923C13.4775 33.6215 13.736 33.6215 13.8652 33.4923L15.5453 31.8122C15.7177 31.6398 15.7177 31.3814 15.5453 31.2521L14.7268 30.3475C15.0715 29.7874 15.2869 29.2274 15.4592 28.6243L16.6654 28.5812C16.8808 28.5812 17.0531 28.3658 17.0531 28.1504V25.738C17.01 25.5226 16.8377 25.3502 16.6223 25.3502ZM9.5573 30.0028C7.74796 30.3475 6.02478 29.012 5.89555 27.1596C5.72323 25.4364 7.14485 23.7994 8.99727 23.7994C10.7204 23.7994 12.1421 25.221 12.1421 26.9442C12.099 28.452 11.022 29.7443 9.5573 30.0028Z" fill="#3B6064"/>
<defs>
<clipPath id="clip0_553_8742">
<rect width="35" height="35" fill="white" transform="translate(1)"/>
</clipPath>
</defs>
</svg>
