<svg width="24" height="25" viewBox="0 0 24 25" fill="none" xmlns="http://www.w3.org/2000/svg">
<g clip-path="url(#clip0_3274_9516)">
<path d="M21.533 7.85394C21.5482 8.06713 21.5482 8.28036 21.5482 8.49355C21.5482 14.996 16.599 22.4885 7.5533 22.4885C4.76648 22.4885 2.17767 21.6813 0 20.2804C0.395953 20.326 0.776625 20.3412 1.18781 20.3412C3.48727 20.3412 5.60405 19.5646 7.29441 18.2397C5.13197 18.194 3.31978 16.7778 2.69541 14.8286C3 14.8742 3.30455 14.9047 3.62437 14.9047C4.06598 14.9047 4.50764 14.8437 4.91878 14.7372C2.66498 14.2803 0.974578 12.3006 0.974578 9.90978V9.84889C1.62937 10.2144 2.39086 10.4428 3.19791 10.4732C1.87303 9.58995 1.00505 8.08236 1.00505 6.37677C1.00505 5.46308 1.24866 4.62552 1.67508 3.89455C4.09641 6.87931 7.73602 8.82852 11.8172 9.04175C11.7411 8.67627 11.6954 8.29559 11.6954 7.91488C11.6954 5.20419 13.8883 2.99609 16.6141 2.99609C18.0304 2.99609 19.3095 3.59 20.208 4.54939C21.3197 4.3362 22.3857 3.92502 23.3299 3.36158C22.9643 4.50373 22.1877 5.46312 21.1674 6.07222C22.1573 5.96567 23.1167 5.6915 23.9999 5.31083C23.33 6.28541 22.4924 7.15339 21.533 7.85394Z" fill="#3D4C57"/>
</g>
<defs>
<clipPath id="clip0_3274_9516">
<rect width="24" height="24" fill="white" transform="translate(0 0.742188)"/>
</clipPath>
</defs>
</svg>
