<svg width="38" height="38" viewBox="0 0 38 38" fill="none" xmlns="http://www.w3.org/2000/svg">
<path d="M19.5695 0.249268H11.1867C9.87174 0.249268 8.80195 1.31906 8.80195 2.63399V5.95662H6.2607C4.94577 5.95662 3.87598 7.0264 3.87598 8.34134V35.3657C3.87598 36.6807 4.94577 37.7504 6.2607 37.7504H24.4957C25.8107 37.7504 26.8805 36.6807 26.8805 35.3657V33.2892H32.1898C33.2567 33.2892 34.1248 32.4211 34.1248 31.3542V19.872C34.1248 18.8051 33.2567 17.937 32.1898 17.937H26.8805V8.34141C26.8805 7.02648 25.8107 5.95669 24.4957 5.95669H21.9539V2.63406C21.9539 1.31906 20.8841 0.249268 19.5695 0.249268ZM26.8819 19.1089H32.1898C32.6107 19.1089 32.9528 19.4511 32.9528 19.872V31.3542C32.9528 31.7751 32.6106 32.1172 32.1898 32.1172H26.8819V19.1089ZM9.97379 6.55111C9.97379 6.54814 9.9755 6.54562 9.9755 6.54257C9.9755 6.5396 9.97379 6.53708 9.97379 6.53404V2.63406C9.97379 1.96543 10.518 1.42126 11.1866 1.42126H19.5694C20.238 1.42126 20.7819 1.96543 20.7819 2.63406V6.53552C20.7819 6.53804 20.7805 6.54012 20.7805 6.54257C20.7805 6.54502 20.7819 6.54717 20.7819 6.54962V10.1258H9.97379V6.55111ZM24.4957 7.12853C25.1643 7.12853 25.7085 7.6727 25.7085 8.34134V35.3657C25.7085 36.0344 25.1643 36.5785 24.4957 36.5785H6.2607C5.59206 36.5785 5.04789 36.0344 5.04789 35.3657V8.34141C5.04789 7.67278 5.59206 7.1286 6.2607 7.1286H8.80195V10.1259H7.37992C7.05632 10.1259 6.79396 10.3883 6.79396 10.7119C6.79396 11.0355 7.05632 11.2978 7.37992 11.2978H23.3758C23.6994 11.2978 23.9618 11.0355 23.9618 10.7119C23.9618 10.3883 23.6994 10.1259 23.3758 10.1259H21.9539V7.12853H24.4957Z" fill="#05D35D"/>
<path d="M22.8525 12.6641H7.589C6.76985 12.6641 6.10352 13.3304 6.10352 14.1493V17.8095C6.10352 18.6284 6.76985 19.2947 7.589 19.2947H22.8525C23.6716 19.2947 24.3379 18.6284 24.3379 17.8095V14.1493C24.3379 13.3304 23.6716 12.6641 22.8525 12.6641ZM23.166 17.8094C23.166 17.9822 23.0252 18.1227 22.8525 18.1227H7.589C7.41622 18.1227 7.27543 17.9822 7.27543 17.8094V14.1492C7.27543 13.9764 7.41622 13.8359 7.589 13.8359H22.8525C23.0252 13.8359 23.166 13.9764 23.166 14.1492V17.8094Z" fill="#05D35D"/>
<path d="M9.76059 22.8896H7.06252C6.73893 22.8896 6.47656 23.152 6.47656 23.4756C6.47656 23.7992 6.73893 24.0616 7.06252 24.0616H9.76059C10.0842 24.0616 10.3466 23.7992 10.3466 23.4756C10.3466 23.152 10.0842 22.8896 9.76059 22.8896Z" fill="#05D35D"/>
<path d="M16.9129 22.8896H14.2149C13.8913 22.8896 13.6289 23.152 13.6289 23.4756C13.6289 23.7992 13.8913 24.0616 14.2149 24.0616H16.9129C17.2365 24.0616 17.4988 23.7992 17.4988 23.4756C17.4988 23.152 17.2365 22.8896 16.9129 22.8896Z" fill="#05D35D"/>
<path d="M21.3672 22.8896C21.0436 22.8896 20.7812 23.152 20.7812 23.4756C20.7812 23.7992 21.0436 24.0616 21.3672 24.0616H24.0652C24.3888 24.0616 24.6512 23.7992 24.6512 23.4756C24.6512 23.152 24.3888 22.8896 24.0652 22.8896H21.3672Z" fill="#05D35D"/>
<path d="M9.76059 27.6565H7.06252C6.73893 27.6565 6.47656 27.9189 6.47656 28.2425C6.47656 28.566 6.73893 28.8284 7.06252 28.8284H9.76059C10.0842 28.8284 10.3466 28.566 10.3466 28.2425C10.3466 27.9189 10.0842 27.6565 9.76059 27.6565Z" fill="#05D35D"/>
<path d="M16.9129 27.6565H14.2149C13.8913 27.6565 13.6289 27.9189 13.6289 28.2425C13.6289 28.566 13.8913 28.8284 14.2149 28.8284H16.9129C17.2365 28.8284 17.4988 28.566 17.4988 28.2425C17.4988 27.9189 17.2365 27.6565 16.9129 27.6565Z" fill="#05D35D"/>
<path d="M24.0652 27.6565H21.3672C21.0436 27.6565 20.7812 27.9189 20.7812 28.2425C20.7812 28.566 21.0436 28.8284 21.3672 28.8284H24.0652C24.3888 28.8284 24.6512 28.566 24.6512 28.2425C24.6512 27.9189 24.3888 27.6565 24.0652 27.6565Z" fill="#05D35D"/>
<path d="M9.76059 32.4233H7.06252C6.73893 32.4233 6.47656 32.6857 6.47656 33.0093C6.47656 33.3329 6.73893 33.5953 7.06252 33.5953H9.76059C10.0842 33.5953 10.3466 33.3329 10.3466 33.0093C10.3466 32.6857 10.0842 32.4233 9.76059 32.4233Z" fill="#05D35D"/>
<path d="M16.9129 32.4233H14.2149C13.8913 32.4233 13.6289 32.6857 13.6289 33.0093C13.6289 33.3329 13.8913 33.5953 14.2149 33.5953H16.9129C17.2365 33.5953 17.4988 33.3329 17.4988 33.0093C17.4988 32.6857 17.2365 32.4233 16.9129 32.4233Z" fill="#05D35D"/>
<path d="M24.0652 32.4233H21.3672C21.0436 32.4233 20.7812 32.6857 20.7812 33.0093C20.7812 33.3329 21.0436 33.5953 21.3672 33.5953H24.0652C24.3888 33.5953 24.6512 33.3329 24.6512 33.0093C24.6512 32.6857 24.3888 32.4233 24.0652 32.4233Z" fill="#05D35D"/>
<path d="M13.7517 2.63354H11.6084C11.2848 2.63354 11.0225 2.89591 11.0225 3.2195C11.0225 3.5431 11.2848 3.80546 11.6084 3.80546H13.7517C14.0753 3.80546 14.3377 3.5431 14.3377 3.2195C14.3377 2.89591 14.0752 2.63354 13.7517 2.63354Z" fill="#05D35D"/>
<path d="M19.1472 2.63354H17.0039C16.6803 2.63354 16.418 2.89591 16.418 3.2195C16.418 3.5431 16.6803 3.80546 17.0039 3.80546H19.1472C19.4708 3.80546 19.7332 3.5431 19.7332 3.2195C19.7332 2.89591 19.4708 2.63354 19.1472 2.63354Z" fill="#05D35D"/>
<path d="M13.7517 6.46704H11.6084C11.2848 6.46704 11.0225 6.7294 11.0225 7.053C11.0225 7.37659 11.2848 7.63896 11.6084 7.63896H13.7517C14.0753 7.63896 14.3377 7.37659 14.3377 7.053C14.3377 6.7294 14.0752 6.46704 13.7517 6.46704Z" fill="#05D35D"/>
<path d="M19.1472 6.46704H17.0039C16.6803 6.46704 16.418 6.7294 16.418 7.053C16.418 7.37659 16.6803 7.63896 17.0039 7.63896H19.1472C19.4708 7.63896 19.7332 7.37659 19.7332 7.053C19.7332 6.7294 19.4708 6.46704 19.1472 6.46704Z" fill="#05D35D"/>
<path d="M29.918 20.5327C29.5944 20.5327 29.332 20.7951 29.332 21.1187V30.1069C29.332 30.4305 29.5944 30.6928 29.918 30.6928C30.2416 30.6928 30.5039 30.4305 30.5039 30.1069V21.1187C30.5039 20.7951 30.2416 20.5327 29.918 20.5327Z" fill="#05D35D"/>
</svg>
