<svg width="39" height="36" viewBox="0 0 39 36" fill="none" xmlns="http://www.w3.org/2000/svg">
<path d="M0 32.2793H38.4474V33.5195H0V32.2793Z" fill="#3B6064"/>
<path d="M6.20117 34.76H38.4474V36.0002H6.20117V34.76Z" fill="#3B6064"/>
<path d="M14.2627 25.9655C14.4272 25.9655 14.5849 25.9002 14.7012 25.7839C14.8175 25.6676 14.8829 25.5099 14.8829 25.3454V23.0902C14.8829 22.9257 14.8175 22.768 14.7012 22.6517C14.5849 22.5354 14.4272 22.4701 14.2627 22.4701H13.4773C13.3833 22.1792 13.2658 21.8965 13.126 21.6247L13.6823 21.0684C13.7399 21.0109 13.7856 20.9425 13.8168 20.8673C13.8479 20.7921 13.864 20.7114 13.864 20.63C13.864 20.5486 13.8479 20.4679 13.8168 20.3927C13.7856 20.3175 13.7399 20.2491 13.6823 20.1915L12.0884 18.5977C12.0308 18.5399 11.9625 18.4941 11.8872 18.4628C11.8119 18.4315 11.7312 18.4154 11.6496 18.4154H11.6493C11.4849 18.4154 11.3272 18.4808 11.2109 18.5971L10.6547 19.1533C10.3828 19.0136 10.1001 18.8961 9.80926 18.8021V18.0166C9.80926 17.8521 9.74393 17.6944 9.62763 17.5781C9.51134 17.4618 9.35361 17.3965 9.18914 17.3965H6.93394C6.76948 17.3965 6.61175 17.4618 6.49545 17.5781C6.37916 17.6944 6.31382 17.8521 6.31382 18.0166V18.802C6.02298 18.896 5.74025 19.0135 5.46843 19.1533L4.91218 18.597C4.85462 18.5394 4.78626 18.4938 4.71103 18.4626C4.6358 18.4314 4.55517 18.4154 4.47374 18.4154C4.3923 18.4154 4.31167 18.4314 4.23644 18.4626C4.16121 18.4938 4.09286 18.5394 4.03529 18.597L2.44078 20.1916C2.38319 20.2491 2.3375 20.3175 2.30633 20.3927C2.27515 20.4679 2.25911 20.5486 2.25911 20.63C2.25911 20.7114 2.27515 20.7921 2.30633 20.8673C2.3375 20.9425 2.38319 21.0109 2.44078 21.0685L2.99703 21.6247C2.8573 21.8965 2.73984 22.1793 2.64579 22.4701H1.86035C1.69589 22.4701 1.53816 22.5354 1.42186 22.6517C1.30557 22.768 1.24023 22.9257 1.24023 23.0902V25.3454C1.24023 25.5099 1.30557 25.6676 1.42186 25.7839C1.53816 25.9002 1.69589 25.9655 1.86035 25.9655H2.6458C2.73979 26.2564 2.85726 26.5391 2.99703 26.8109L2.44078 27.3672C2.38319 27.4247 2.3375 27.4931 2.30633 27.5683C2.27515 27.6435 2.25911 27.7242 2.25911 27.8056C2.25911 27.887 2.27515 27.9677 2.30633 28.0429C2.3375 28.1181 2.38319 28.1865 2.44078 28.244L4.03531 29.8386C4.09288 29.8961 4.16123 29.9418 4.23646 29.973C4.31169 30.0042 4.39232 30.0202 4.47376 30.0202C4.55519 30.0202 4.63582 30.0042 4.71105 29.973C4.78628 29.9418 4.85463 29.8961 4.9122 29.8386L5.46845 29.2823C5.74029 29.422 6.02302 29.5395 6.31384 29.6335V30.419C6.31384 30.5835 6.37918 30.7412 6.49547 30.8575C6.61177 30.9738 6.7695 31.0391 6.93396 31.0391H9.18916C9.2706 31.0391 9.35123 31.0231 9.42647 30.9919C9.50171 30.9607 9.57007 30.9151 9.62765 30.8575C9.68524 30.7999 9.73091 30.7315 9.76208 30.6563C9.79324 30.5811 9.80928 30.5004 9.80928 30.419V29.6335C10.1001 29.5395 10.3829 29.4221 10.6547 29.2823L11.2109 29.8385C11.2685 29.8961 11.3368 29.9418 11.4121 29.973C11.4873 30.0042 11.5679 30.0202 11.6494 30.0202C11.7308 30.0202 11.8114 30.0042 11.8867 29.973C11.9619 29.9418 12.0302 29.8961 12.0878 29.8385L13.6823 28.244C13.7399 28.1865 13.7856 28.1181 13.8168 28.0429C13.8479 27.9676 13.864 27.887 13.864 27.8056C13.864 27.7241 13.8479 27.6435 13.8168 27.5683C13.7856 27.4931 13.7399 27.4247 13.6823 27.3671L13.1261 26.8109C13.2658 26.539 13.3833 26.2563 13.4773 25.9655L14.2627 25.9655ZM12.3034 25.5646C12.2268 25.805 12.1299 26.0384 12.0136 26.2623C11.8942 26.485 11.8492 26.7401 11.8853 26.9902C11.9213 27.2403 12.0364 27.4724 12.2137 27.6524L12.3669 27.8056L11.6493 28.5232L11.4961 28.37C11.3163 28.1924 11.0843 28.0771 10.8342 28.0411C10.584 28.0051 10.3289 28.0502 10.1063 28.1698C9.8823 28.2861 9.64881 28.383 9.40837 28.4596C9.16698 28.533 8.95536 28.6816 8.80437 28.8838C8.65338 29.0859 8.57092 29.331 8.56902 29.5833V29.7989H7.55406V29.5833C7.55217 29.331 7.46971 29.0859 7.31872 28.8838C7.16773 28.6816 6.95611 28.533 6.71472 28.4596C6.47435 28.3831 6.24096 28.2861 6.01709 28.1698C5.79438 28.0504 5.53927 28.0054 5.28912 28.0414C5.03898 28.0774 4.80693 28.1926 4.62697 28.37L4.47376 28.5232L3.75614 27.8056L3.90935 27.6524C4.0867 27.4724 4.20181 27.2404 4.23783 26.9904C4.27385 26.7403 4.22889 26.4852 4.10952 26.2625C3.99331 26.0385 3.89637 25.8051 3.81976 25.5646C3.74636 25.3232 3.59775 25.1116 3.39562 24.9606C3.19348 24.8096 2.94839 24.7272 2.6961 24.7253H2.48047V23.7103H2.69606C2.94836 23.7084 3.19345 23.626 3.39558 23.475C3.59771 23.324 3.74632 23.1124 3.81972 22.871C3.89628 22.6306 3.99322 22.3972 4.10949 22.1733C4.22887 21.9506 4.27384 21.6955 4.23783 21.4454C4.20182 21.1953 4.08671 20.9632 3.90934 20.7832L3.75613 20.63L4.47375 19.9124L4.62696 20.0656C4.80693 20.2429 5.03892 20.358 5.28899 20.394C5.53906 20.43 5.79409 20.3851 6.01678 20.2657C6.24078 20.1495 6.47427 20.0526 6.71471 19.976C6.9561 19.9026 7.16772 19.754 7.31871 19.5518C7.4697 19.3497 7.55216 19.1046 7.55406 18.8523V18.6367H8.56902V18.8523C8.57092 19.1046 8.65337 19.3497 8.80436 19.5518C8.95535 19.754 9.16697 19.9026 9.40836 19.976C9.64873 20.0525 9.88212 20.1495 10.106 20.2657C10.3287 20.3851 10.5838 20.4301 10.8339 20.394C11.0841 20.358 11.3161 20.2429 11.4961 20.0656L11.6493 19.9127L12.3669 20.63L12.2137 20.7832C12.0364 20.9632 11.9213 21.1952 11.8853 21.4452C11.8493 21.6953 11.8942 21.9503 12.0136 22.173C12.1298 22.397 12.2267 22.6305 12.3034 22.871C12.3768 23.1124 12.5254 23.324 12.7275 23.475C12.9296 23.626 13.1747 23.7084 13.427 23.7103H13.6426V24.7253H13.427C13.1747 24.7272 12.9296 24.8096 12.7275 24.9606C12.5254 25.1116 12.3768 25.3232 12.3034 25.5646Z" fill="#3B6064"/>
<path d="M8.06105 20.8071C7.38648 20.8071 6.72707 21.0072 6.16619 21.3819C5.60531 21.7567 5.16816 22.2894 4.91001 22.9126C4.65187 23.5358 4.58433 24.2216 4.71593 24.8832C4.84753 25.5448 5.17236 26.1525 5.64935 26.6295C6.12634 27.1065 6.73406 27.4313 7.39566 27.5629C8.05726 27.6945 8.74303 27.627 9.36625 27.3688C9.98946 27.1107 10.5221 26.6735 10.8969 26.1126C11.2717 25.5518 11.4717 24.8923 11.4717 24.2178C11.4707 23.3135 11.111 22.4466 10.4716 21.8072C9.83221 21.1678 8.96529 20.8082 8.06105 20.8071ZM8.06105 26.3882C7.63178 26.3882 7.21215 26.2609 6.85523 26.0224C6.4983 25.7839 6.22012 25.445 6.05584 25.0484C5.89157 24.6518 5.84859 24.2154 5.93233 23.7944C6.01608 23.3733 6.22279 22.9866 6.52633 22.6831C6.82987 22.3795 7.2166 22.1728 7.63762 22.0891C8.05864 22.0053 8.49504 22.0483 8.89163 22.2126C9.28822 22.3769 9.62719 22.655 9.86568 23.012C10.1042 23.3689 10.2315 23.7885 10.2315 24.2178C10.2308 24.7932 10.0019 25.3448 9.595 25.7517C9.18811 26.1586 8.63646 26.3875 8.06105 26.3882Z" fill="#3B6064"/>
<path d="M17.3633 14.2959C17.1988 14.2959 17.0411 14.3612 16.9248 14.4775C16.8085 14.5938 16.7432 14.7516 16.7432 14.916V30.419C16.7432 30.5835 16.8085 30.7412 16.9248 30.8575C17.0411 30.9738 17.1988 31.0391 17.3633 31.0391H21.7041C21.8686 31.0391 22.0263 30.9738 22.1426 30.8575C22.2589 30.7412 22.3242 30.5835 22.3242 30.419V14.916C22.3242 14.7516 22.2589 14.5938 22.1426 14.4775C22.0263 14.3612 21.8686 14.2959 21.7041 14.2959H17.3633ZM21.084 29.7989H17.9834V15.5361H21.084V29.7989Z" fill="#3B6064"/>
<path d="M24.8047 15.5361C24.6402 15.5361 24.4825 15.6015 24.3662 15.7178C24.2499 15.8341 24.1846 15.9918 24.1846 16.1563V30.419C24.1846 30.5835 24.2499 30.7412 24.3662 30.8575C24.4825 30.9738 24.6402 31.0391 24.8047 31.0391H29.1455C29.31 31.0391 29.4677 30.9738 29.584 30.8575C29.7003 30.7412 29.7656 30.5835 29.7656 30.419V16.1563C29.7656 15.9918 29.7003 15.8341 29.584 15.7178C29.4677 15.6015 29.31 15.5361 29.1455 15.5361H24.8047ZM28.5254 29.7989H25.4248V16.7764H28.5254V29.7989Z" fill="#3B6064"/>
<path d="M32.2461 8.71484C32.0816 8.71484 31.9239 8.78018 31.8076 8.89647C31.6913 9.01277 31.626 9.1705 31.626 9.33496V30.419C31.626 30.5835 31.6913 30.7412 31.8076 30.8575C31.9239 30.9738 32.0816 31.0391 32.2461 31.0391H36.5869C36.7514 31.0391 36.9091 30.9738 37.0254 30.8575C37.1417 30.7412 37.207 30.5835 37.207 30.419V9.33496C37.207 9.1705 37.1417 9.01277 37.0254 8.89647C36.9091 8.78018 36.7514 8.71484 36.5869 8.71484H32.2461ZM35.9668 29.7989H32.8662V9.95508H35.9668V29.7989Z" fill="#3B6064"/>
<path d="M37.2461 0.147849C37.1616 0.0759018 37.0594 0.027969 36.95 0.00906016C36.8407 -0.0098487 36.7282 0.000960392 36.6245 0.0403579L33.2662 1.3136C33.1641 1.35228 33.074 1.41726 33.005 1.50195C32.936 1.58665 32.8907 1.68806 32.8735 1.79593C32.8563 1.90379 32.8679 2.01428 32.9072 2.11621C32.9464 2.21814 33.0119 2.3079 33.0969 2.3764L33.896 3.01999L27.5255 10.0476C27.1885 9.93493 26.8257 9.92471 26.4829 10.0183C26.1402 10.1118 25.8328 10.305 25.5999 10.5733L21.3786 9.18499C21.3571 8.91746 21.2779 8.65777 21.1464 8.42383C21.0148 8.18988 20.8341 7.98726 20.6167 7.82992C20.3992 7.67258 20.1503 7.56429 19.8869 7.51249C19.6236 7.4607 19.3521 7.46664 19.0913 7.52991C18.8305 7.59319 18.5865 7.71228 18.3761 7.87898C18.1658 8.04569 17.9941 8.25603 17.8729 8.49551C17.7518 8.73499 17.684 8.9979 17.6742 9.26611C17.6645 9.53433 17.7131 9.80146 17.8166 10.0491L13.2129 14.4687L14.0716 15.3632L18.6539 10.964C18.9231 11.1136 19.2255 11.1931 19.5334 11.1952C19.8351 11.195 20.1322 11.1213 20.399 10.9805C20.6659 10.8397 20.8945 10.6361 21.065 10.3872L25.1239 11.7221C25.1223 11.7536 25.1145 11.7834 25.1145 11.8154C25.1139 12.1058 25.1813 12.3922 25.3113 12.6519C25.4412 12.9116 25.6302 13.1372 25.863 13.3107C26.0959 13.4843 26.3661 13.6009 26.6521 13.6513C26.938 13.7016 27.2318 13.6844 27.51 13.6008C27.7881 13.5173 28.0428 13.3698 28.2536 13.1702C28.4645 12.9706 28.6258 12.7244 28.7245 12.4513C28.8231 12.1782 28.8565 11.8858 28.8219 11.5975C28.7873 11.3092 28.6857 11.0329 28.5252 10.7909L34.8633 3.79907L35.7567 4.51866C35.8396 4.58542 35.9382 4.62973 36.0431 4.64735C36.148 4.66497 36.2557 4.65529 36.3558 4.61925C36.4559 4.58321 36.545 4.52201 36.6146 4.44156C36.6842 4.3611 36.732 4.26409 36.7532 4.15985L37.4517 0.744367C37.474 0.635638 37.4667 0.522916 37.4305 0.41798C37.3944 0.313045 37.3307 0.219751 37.2461 0.147849ZM19.5334 9.955C19.4107 9.955 19.2908 9.91863 19.1889 9.85049C19.0869 9.78235 19.0074 9.6855 18.9605 9.57219C18.9135 9.45887 18.9012 9.33419 18.9252 9.2139C18.9491 9.09361 19.0082 8.98311 19.0949 8.89639C19.1816 8.80966 19.2921 8.7506 19.4124 8.72667C19.5327 8.70275 19.6574 8.71503 19.7707 8.76196C19.884 8.8089 19.9809 8.88838 20.049 8.99036C20.1171 9.09233 20.1535 9.21223 20.1535 9.33488C20.1533 9.49928 20.0879 9.65688 19.9716 9.77313C19.8554 9.88938 19.6978 9.95478 19.5334 9.955ZM26.9748 12.4355C26.8522 12.4355 26.7323 12.3991 26.6303 12.331C26.5283 12.2628 26.4488 12.166 26.4019 12.0527C26.355 11.9394 26.3427 11.8147 26.3666 11.6944C26.3905 11.5741 26.4496 11.4636 26.5363 11.3769C26.623 11.2901 26.7335 11.2311 26.8538 11.2071C26.9741 11.1832 27.0988 11.1955 27.2121 11.2424C27.3254 11.2894 27.4223 11.3689 27.4904 11.4708C27.5586 11.5728 27.5949 11.6927 27.5949 11.8154C27.5947 11.9798 27.5293 12.1374 27.4131 12.2536C27.2968 12.3699 27.1392 12.4353 26.9748 12.4355ZM35.7422 2.91446L34.7181 2.08966L36.0111 1.59944L35.7422 2.91446Z" fill="#3B6064"/>
<path d="M3.7207 34.76H4.96094V36.0002H3.7207V34.76Z" fill="#3B6064"/>
<path d="M0 34.76H2.48048V36.0002H0V34.76Z" fill="#3B6064"/>
</svg>
