<svg width="24" height="25" viewBox="0 0 24 25" fill="none" xmlns="http://www.w3.org/2000/svg">
<path d="M22.9031 7.24565C22.6414 6.26023 21.8703 5.48415 20.8913 5.22077C19.1167 4.74219 12.0008 4.74219 12.0008 4.74219C12.0008 4.74219 4.88501 4.74219 3.11038 5.22077C2.13134 5.48419 1.36026 6.26023 1.09855 7.24565C0.623047 9.03177 0.623047 12.7584 0.623047 12.7584C0.623047 12.7584 0.623047 16.4849 1.09855 18.2711C1.36026 19.2565 2.13134 20.0002 3.11038 20.2636C4.88501 20.7422 12.0008 20.7422 12.0008 20.7422C12.0008 20.7422 19.1167 20.7422 20.8913 20.2636C21.8703 20.0002 22.6414 19.2565 22.9031 18.2711C23.3786 16.4849 23.3786 12.7584 23.3786 12.7584C23.3786 12.7584 23.3786 9.03177 22.9031 7.24565ZM9.67355 16.1418V9.3749L15.621 12.7584L9.67355 16.1418Z" fill="#3D4C57"/>
</svg>
